# This file uses centimeters as units for non-parametric coordinates.

mtllib Pebble_4_LP_OBJ.mtl
g default
v -0.066572 0.045500 0.017575
v -0.049644 0.050152 -0.052757
v -0.027564 0.000000 -0.115126
v -0.004249 0.051151 0.052451
v 0.117118 0.000000 0.048538
v 0.024719 0.059455 -0.027998
v -0.115665 0.000000 -0.055364
v 0.070484 0.036159 0.071303
v -0.091692 0.000000 -0.094145
v -0.088594 0.000000 0.052895
v -0.037011 0.000000 0.101063
v 0.054929 0.000000 0.103188
v 0.054227 0.000000 -0.092375
v -0.117118 0.000000 -0.011613
v 0.114145 0.000000 -0.031674
v -0.114288 0.000000 0.013503
v 0.088018 0.049571 0.006853
v -0.104922 0.034317 -0.006544
v 0.030693 0.000000 0.115126
vt 0.822654 0.520177
vt 0.783446 0.550491
vt 0.742673 0.502166
vt 0.794990 0.472206
vt 0.843231 0.549062
vt 0.820917 0.572460
vt 0.878805 0.505612
vt 0.887210 0.571056
vt 0.859799 0.448553
vt 0.923197 0.416111
vt 0.943525 0.489439
vt 0.921371 0.547382
vt 0.731171 0.440301
vt 0.781104 0.413127
vt 0.830903 0.402084
vt 0.792018 0.360808
vt 0.741113 0.417962
vt 0.868148 0.362747
vt 0.845914 0.575925
vn -0.361050 0.905966 0.221062
vn -0.482650 0.690110 0.539256
vn -0.263823 0.748387 0.608535
vn -0.125792 0.918752 0.374260
vn -0.609547 0.792746 0.002376
vn -0.722129 0.556279 0.411198
vn -0.132374 0.914602 -0.382075
vn -0.468205 0.794751 -0.386206
vn 0.164572 0.942661 -0.290357
vn 0.283895 0.763573 -0.579966
vn 0.002857 0.791761 -0.610824
vn -0.367702 0.755622 -0.542062
vn 0.003137 0.731251 0.682101
vn 0.305717 0.841623 0.445205
vn 0.487032 0.868221 -0.094827
vn 0.786924 0.572008 0.231424
vn 0.559469 0.399653 0.726134
vn 0.587802 0.725885 -0.357183
vn -0.942973 0.332336 0.018852
s 1
g polySurface1 pPlatonic34
usemtl initialShadingGroup
f 1/1/1 10/2/2 11/3/3 4/4/4
f 1/1/1 18/5/5 16/6/6 10/2/2
f 1/1/1 2/7/7 7/8/8 18/5/5
f 1/1/1 4/4/4 6/9/9 2/7/7
f 2/7/7 6/9/9 13/10/10 3/11/11
f 2/7/7 3/11/11 9/12/12 7/8/8
f 4/4/4 11/3/3 19/13/13 8/14/14
f 4/4/4 8/14/14 17/15/15 6/9/9
f 5/16/16 8/14/14 19/13/13 12/17/17
f 5/16/16 15/18/18 17/15/15 8/14/14
f 6/9/9 17/15/15 15/18/18 13/10/10
f 7/8/8 14/19/19 16/6/6 18/5/5
