# This file uses centimeters as units for non-parametric coordinates.

mtllib Pebble_3_LP_OBJ.mtl
g default
v -0.067927 0.000000 0.058163
v -0.007563 0.029431 0.078922
v -0.084165 0.000000 0.017657
v 0.048617 0.000000 0.079281
v 0.080946 0.000000 0.016485
v 0.057765 0.000000 -0.109844
v -0.053225 0.037868 -0.014752
v 0.006582 0.041220 0.013492
v -0.006133 0.038998 -0.073759
v -0.031298 0.000000 -0.085785
v -0.072152 0.000000 -0.037214
v 0.052927 0.021481 0.016416
v 0.071655 0.000000 -0.073329
v -0.045988 0.000000 0.101597
v 0.043024 0.018892 0.065402
v 0.004131 0.000000 0.116658
v 0.084165 0.000000 -0.035261
v 0.010738 0.000000 -0.116658
v 0.030077 0.044611 -0.036317
vt 0.597592 0.549864
vt 0.617395 0.510658
vt 0.662636 0.497064
vt 0.652079 0.531126
vt 0.610862 0.615682
vt 0.593778 0.635958
vt 0.582934 0.586428
vt 0.664848 0.590187
vt 0.697742 0.543330
vt 0.706681 0.587548
vt 0.702790 0.530802
vt 0.731973 0.587486
vt 0.734879 0.634195
vt 0.723586 0.668557
vt 0.711049 0.701518
vt 0.668599 0.707668
vt 0.630655 0.679801
vt 0.653370 0.668945
vt 0.686056 0.635148
vn -0.424436 0.867583 0.259143
vn -0.362710 0.817803 0.446812
vn -0.002220 0.840237 0.542215
vn -0.124063 0.926119 0.356247
vn -0.464702 0.884751 -0.035610
vn -0.698055 0.631799 -0.336971
vn -0.759648 0.649464 0.033652
vn 0.021909 0.987931 0.153334
vn 0.448178 0.833770 0.322435
vn 0.536313 0.834662 0.125328
vn 0.499728 0.727187 0.470607
vn 0.589444 0.804188 0.076401
vn 0.505634 0.861161 -0.052308
vn 0.488188 0.846140 -0.213821
vn 0.260750 0.840142 -0.475574
vn -0.189154 0.688420 -0.700213
vn -0.483681 0.642744 -0.594081
vn -0.128387 0.902763 -0.410531
vn 0.337774 0.938840 -0.066995
s 1
g polySurface11 pPlatonic34
usemtl initialShadingGroup
f 1/1/1 14/2/2 16/3/3 2/4/4
f 1/1/1 7/5/5 11/6/6 3/7/7
f 1/1/1 2/4/4 8/8/8 7/5/5
f 2/4/4 15/9/9 12/10/10 8/8/8
f 2/4/4 16/3/3 4/11/11 15/9/9
f 4/11/11 5/12/12 12/10/10 15/9/9
f 5/12/12 17/13/13 13/14/14 12/10/10
f 6/15/15 18/16/16 10/17/17 9/18/18
f 6/15/15 9/18/18 19/19/19 13/14/14
f 7/5/5 9/18/18 10/17/17 11/6/6
f 7/5/5 8/8/8 19/19/19 9/18/18
f 8/8/8 12/10/10 13/14/14 19/19/19
