# This file uses centimeters as units for non-parametric coordinates.

mtllib mushroomHat_LP_Object.mtl
g default
v -0.090806 -0.041129 0.051641
v -0.072599 -0.026014 0.088354
v -0.023881 -0.012584 0.106717
v 0.034145 -0.012265 0.104871
v 0.080710 -0.028786 0.078210
v 0.092472 -0.043001 0.040186
v -0.075197 -0.085582 -0.027283
v -0.090744 -0.062267 0.007926
v -0.032131 -0.093892 -0.051833
v 0.052433 -0.088362 -0.043667
v 0.021677 -0.097824 -0.057079
v 0.086624 -0.066246 -0.006970
v 0.005091 -0.009090 0.104978
v -0.005263 -0.095210 -0.055914
v -0.088735 0.006168 0.100719
v -0.107492 -0.026056 0.052587
v -0.093359 -0.075741 -0.051996
v -0.108241 -0.054146 -0.002976
v -0.029857 0.021160 0.116758
v -0.040388 -0.085428 -0.080788
v 0.005239 0.020471 0.115027
v -0.007340 -0.086949 -0.084405
v 0.040463 0.017217 0.114679
v 0.025803 -0.089955 -0.085016
v 0.096793 0.003077 0.089993
v 0.081474 -0.078520 -0.068415
v 0.114660 -0.017237 0.035666
v 0.108696 -0.047688 -0.022997
v -0.074798 0.053856 0.070058
v -0.097630 0.027995 0.027777
v -0.082819 -0.015062 -0.072810
v -0.100769 0.002132 -0.026142
v -0.026961 0.065503 0.084303
v -0.037585 -0.021193 -0.095839
v 0.001510 0.064160 0.083142
v -0.009324 -0.022627 -0.096924
v 0.030110 0.061034 0.082896
v 0.019036 -0.026019 -0.097094
v 0.075878 0.051799 0.061402
v 0.066632 -0.016960 -0.081772
v 0.099896 0.034227 0.013345
v 0.096596 0.008003 -0.040665
v -0.055401 0.065524 0.033868
v -0.074141 0.050516 0.006003
v -0.061491 0.020553 -0.060681
v -0.076410 0.033535 -0.029682
v -0.021760 0.077092 0.041116
v -0.029820 0.020599 -0.077828
v -0.001785 0.078532 0.038462
v -0.009986 0.022497 -0.079607
v 0.017583 0.074122 0.026642
v 0.010331 0.027767 -0.071273
v 0.049702 0.064035 0.014425
v 0.044273 0.028908 -0.059721
v 0.061979 0.055159 -0.005895
v 0.059395 0.038241 -0.041594
v -0.083279 0.027418 0.093092
v -0.111768 -0.012806 0.047644
v -0.113398 -0.042009 -0.009988
v -0.089834 -0.055075 -0.065938
v -0.039804 -0.063937 -0.094323
v -0.008512 -0.065350 -0.096591
v 0.022873 -0.068485 -0.096865
v 0.075629 -0.057509 -0.079447
v 0.112695 -0.025036 -0.033188
v 0.117344 0.004492 0.028036
v 0.089149 0.024681 0.083066
v 0.036815 0.037768 0.108154
v 0.004119 0.040683 0.108639
v -0.028436 0.041727 0.110130
v 0.045403 0.042120 -0.042500
v 0.013127 0.055513 -0.035239
v -0.006944 0.054755 -0.033100
v -0.027681 0.048481 -0.039349
v -0.060123 0.042417 -0.034445
v 0.048165 0.058766 -0.007276
v 0.014591 0.063459 -0.018309
v -0.005475 0.062728 -0.016111
v -0.024780 0.064921 -0.004404
v -0.057652 0.059099 0.000736
vt 0.385521 0.313674
vt 0.439035 0.278705
vt 0.417465 0.337789
vt 0.516606 0.414505
vt 0.479660 0.375018
vt 0.500868 0.277326
vt 0.533663 0.286276
vt 0.566583 0.408242
vt 0.566092 0.309369
vt 0.632479 0.366727
vt 0.626799 0.324219
vt 0.659151 0.355144
vt 0.222363 0.128015
vt 0.325433 0.050577
vt 0.363995 0.102957
vt 0.255253 0.155143
vt 0.068283 0.325045
vt 0.139258 0.225025
vt 0.166176 0.257420
vt 0.121029 0.361267
vt 0.475937 0.003906
vt 0.567275 0.012342
vt 0.560570 0.071355
vt 0.486718 0.076288
vt 0.996094 0.627872
vt 0.029155 0.444848
vt 0.083941 0.477993
vt 0.058298 0.537887
vt 0.658481 0.024338
vt 0.635913 0.085474
vt 0.990410 0.567798
vt 0.931785 0.579555
vt 0.807077 0.100434
vt 0.752552 0.140132
vt 0.992839 0.477202
vt 0.923203 0.468473
vt 0.889581 0.197971
vt 0.832728 0.229516
vt 0.954450 0.330879
vt 0.894113 0.352751
vt 0.389383 0.137295
vt 0.273258 0.178857
vt 0.189792 0.275797
vt 0.158709 0.393087
vt 0.555221 0.115823
vt 0.496057 0.117670
vt 0.133202 0.503808
vt 0.866634 0.655108
vt 0.615103 0.122240
vt 0.879151 0.592104
vt 0.716378 0.167738
vt 0.879072 0.486265
vt 0.795225 0.255327
vt 0.847623 0.367301
vt 0.337091 0.250617
vt 0.415747 0.199160
vt 0.232848 0.421855
vt 0.269442 0.332776
vt 0.340833 0.370017
vt 0.317612 0.437478
vt 0.499429 0.187522
vt 0.546454 0.188569
vt 0.755494 0.636348
vt 0.226207 0.518195
vt 0.331717 0.506693
vt 0.353176 0.541796
vt 0.593411 0.189039
vt 0.783476 0.588450
vt 0.653617 0.533259
vt 0.673402 0.223124
vt 0.799516 0.489625
vt 0.688932 0.472304
vt 0.733888 0.297514
vt 0.777862 0.391508
vt 0.687889 0.422248
vt 0.661128 0.436707
vt 0.585388 0.446178
vt 0.478115 0.452450
vt 0.426342 0.442698
vt 0.371383 0.395551
vt 0.116173 0.562858
vt 0.228186 0.577011
vt 0.931135 0.648090
vt 0.003906 0.498763
vt 0.544347 0.463766
vt 0.643328 0.579680
vn -0.692757 0.699727 -0.174558
vn -0.431441 0.902094 -0.009220
vn -0.315348 0.900528 -0.299340
vn -0.068513 0.944673 -0.320777
vn -0.177805 0.936225 -0.303098
vn -0.177223 0.983334 0.040564
vn 0.064139 0.996780 0.048125
vn 0.135929 0.933084 -0.332982
vn 0.200061 0.979783 -0.000424
vn 0.239397 0.912579 -0.331495
vn 0.359375 0.932869 -0.024616
vn 0.529019 0.807795 -0.260011
vn -0.595592 -0.649084 0.473245
vn -0.384573 -0.480014 0.788473
vn -0.324524 -0.448495 0.832788
vn -0.594552 -0.630095 0.499489
vn -0.432854 -0.901350 -0.014325
vn -0.595557 -0.752008 0.282481
vn -0.595499 -0.757427 0.267741
vn -0.413173 -0.909875 -0.037621
vn -0.110651 -0.351248 0.929721
vn 0.021072 -0.306386 0.951674
vn 0.022752 -0.306014 0.951755
vn -0.109358 -0.350883 0.930012
vn -0.088447 -0.958501 -0.271024
vn -0.212533 -0.953699 -0.212812
vn -0.211624 -0.953816 -0.213192
vn -0.088302 -0.958540 -0.270932
vn 0.205085 -0.388408 0.898376
vn 0.196267 -0.386012 0.901374
vn 0.140492 -0.970252 -0.197162
vn 0.142821 -0.970086 -0.196305
vn 0.555231 -0.502554 0.662690
vn 0.490731 -0.482948 0.725220
vn 0.421858 -0.906533 -0.015299
vn 0.476360 -0.878424 0.038119
vn 0.737769 -0.591972 0.324448
vn 0.736655 -0.584841 0.339559
vn 0.646229 -0.742834 0.174886
vn 0.655619 -0.733127 0.180800
vn -0.963479 -0.057885 0.261452
vn -0.736544 0.263599 0.622911
vn -0.694145 0.484691 0.532200
vn -0.968208 0.229395 0.099760
vn -0.765020 -0.350076 -0.540547
vn -0.965030 -0.252313 -0.071101
vn -0.978922 0.065640 -0.193398
vn -0.743941 -0.111536 -0.658872
vn -0.221295 0.343492 0.912711
vn 0.045883 0.304673 0.951351
vn 0.062907 0.585305 0.808369
vn -0.215675 0.585733 0.781281
vn -0.079295 -0.500627 -0.862024
vn -0.372291 -0.472441 -0.798874
vn -0.347738 -0.208812 -0.914044
vn -0.051926 -0.203886 -0.977617
vn 0.350534 0.366550 0.861839
vn 0.320468 0.591019 0.740268
vn 0.221935 -0.429136 -0.875550
vn 0.200513 -0.177062 -0.963558
vn 0.791446 0.294446 0.535645
vn 0.695788 0.520095 0.495359
vn 0.672069 -0.295777 -0.678851
vn 0.583908 -0.083123 -0.807553
vn 0.990256 0.011160 0.138813
vn 0.949435 0.311612 0.038355
vn 0.947578 -0.179362 -0.264434
vn 0.912299 0.100532 -0.396994
vn -0.878325 0.477687 -0.018991
vn -0.629302 0.718656 0.295825
vn -0.689590 0.221819 -0.689392
vn -0.895703 0.334132 -0.293379
vn -0.706582 0.607166 -0.363443
vn -0.477436 0.589294 -0.651757
vn -0.213377 0.859400 0.464653
vn 0.102911 0.883371 0.457236
vn 0.009735 0.197115 -0.980332
vn -0.315558 0.176812 -0.932288
vn -0.236938 0.591758 -0.770508
vn 0.006226 0.582956 -0.812480
vn 0.290761 0.871161 0.395646
vn 0.197017 0.224524 -0.954344
vn 0.145124 0.601257 -0.785766
vn 0.543905 0.801271 0.249263
vn 0.470203 0.284612 -0.835407
vn 0.310780 0.581163 -0.752108
vn 0.755563 0.643722 -0.121432
vn 0.730439 0.459113 -0.505643
vn 0.511958 0.679430 -0.525617
vn 0.225839 0.819937 -0.526023
vn 0.119207 0.840979 -0.527773
vn -0.086300 0.851560 -0.517105
vn -0.195276 0.837071 -0.511057
vn -0.330327 0.817706 -0.471425
s 1
g mushroomHat
usemtl initialShadingGroup
f 44/1/1 43/2/2 80/3/3
f 78/4/4 79/5/5 47/6/6 49/7/7
f 77/8/8 78/4/4 49/7/7 51/9/9
f 76/10/10 77/8/8 51/9/9 53/11/11
f 55/12/12 76/10/10 53/11/11
f 79/5/5 80/3/3 43/2/2 47/6/6
s 3
f 1/13/13 2/14/14 15/15/15 16/16/16
f 7/17/17 8/18/18 18/19/19 17/20/20
f 8/18/18 1/13/13 16/16/16 18/19/19
f 3/21/21 13/22/22 21/23/23 19/24/24
f 14/84/25 9/26/26 20/27/27 22/28/28
f 13/22/22 4/29/29 23/30/30 21/23/23
f 11/31/31 14/25/25 22/83/28 24/32/32
f 4/29/29 5/33/33 25/34/34 23/30/30
f 10/35/35 11/31/31 24/32/32 26/36/36
f 5/33/33 6/37/37 27/38/38 25/34/34
f 6/37/37 12/39/39 28/40/40 27/38/38
f 12/39/39 10/35/35 26/36/36 28/40/40
f 2/14/14 3/21/21 19/24/24 15/15/15
f 9/26/26 7/17/17 17/20/20 20/27/27
s 1
f 16/16/41 15/15/42 57/41/43 58/42/44
f 17/20/45 18/19/46 59/43/47 60/44/48
f 18/19/46 16/16/41 58/42/44 59/43/47
f 19/24/49 21/23/50 69/45/51 70/46/52
f 22/28/53 20/27/54 61/47/55 62/81/56
f 21/23/50 23/30/57 68/49/58 69/45/51
f 24/32/59 22/83/53 62/48/56 63/50/60
f 23/30/57 25/34/61 67/51/62 68/49/58
f 26/36/63 24/32/59 63/50/60 64/52/64
f 25/34/61 27/38/65 66/53/66 67/51/62
f 27/38/65 28/40/67 65/54/68 66/53/66
f 28/40/67 26/36/63 64/52/64 65/54/68
f 15/15/42 19/24/49 70/46/52 57/41/43
f 20/27/54 17/20/45 60/44/48 61/47/55
f 30/55/69 29/56/70 43/2/2 44/1/1
f 31/57/71 32/58/72 46/59/73 45/60/74
f 32/58/72 30/55/69 44/1/1 46/59/73
f 33/61/75 35/62/76 49/7/7 47/6/6
f 36/82/77 34/64/78 48/65/79 50/66/80
f 35/62/76 37/67/81 51/9/9 49/7/7
f 38/68/82 36/63/77 50/86/80 52/69/83
f 37/67/81 39/70/84 53/11/11 51/9/9
f 40/71/85 38/68/82 52/69/83 54/72/86
f 39/70/84 41/73/87 55/12/12 53/11/11
f 41/73/87 42/74/88 56/75/89 55/12/12
f 42/74/88 40/71/85 54/72/86 56/75/89
f 29/56/70 33/61/75 47/6/6 43/2/2
f 34/64/78 31/57/71 45/60/74 48/65/79
f 58/42/44 57/41/43 29/56/70 30/55/69
f 59/43/47 58/42/44 30/55/69 32/58/72
f 60/44/48 59/43/47 32/58/72 31/57/71
f 61/47/55 60/44/48 31/57/71 34/64/78
f 62/81/56 61/47/55 34/64/78 36/82/77
f 63/50/60 62/48/56 36/63/77 38/68/82
f 64/52/64 63/50/60 38/68/82 40/71/85
f 65/54/68 64/52/64 40/71/85 42/74/88
f 66/53/66 65/54/68 42/74/88 41/73/87
f 67/51/62 66/53/66 41/73/87 39/70/84
f 68/49/58 67/51/62 39/70/84 37/67/81
f 69/45/51 68/49/58 37/67/81 35/62/76
f 70/46/52 69/45/51 35/62/76 33/61/75
f 57/41/43 70/46/52 33/61/75 29/56/70
f 54/72/86 71/76/90 56/75/89
f 52/69/83 72/77/91 71/76/90 54/72/86
f 50/86/80 73/85/92 72/77/91 52/69/83
f 48/65/79 74/79/93 73/78/92 50/66/80
f 45/60/74 75/80/94 74/79/93 48/65/79
f 46/59/73 75/80/94 45/60/74
f 56/75/89 71/76/90 76/10/10 55/12/12
f 71/76/90 72/77/91 77/8/8 76/10/10
f 73/78/92 74/79/93 79/5/5 78/4/4
f 74/79/93 75/80/94 80/3/3 79/5/5
f 44/1/1 80/3/3 75/80/94 46/59/73
f 73/85/92 78/4/4 77/8/8 72/77/91
