# This file uses centimeters as units for non-parametric coordinates.

mtllib OceanPlotFramePortalSized_LP_OBJ.mtl
g default
v 0.308095 0.223844 -0.062728
v 0.117682 0.362187 -0.062728
v -0.117682 0.362187 -0.062728
v -0.308095 0.223844 -0.062728
v -0.380826 -0.000000 -0.062728
v -0.308095 -0.223844 -0.062728
v -0.117682 -0.362187 -0.062728
v 0.117682 -0.362187 -0.062728
v 0.308095 -0.223844 -0.062728
v 0.380826 0.000000 -0.062728
vt 0.674637 0.405216
vt 0.590982 0.287551
vt 0.673487 0.549637
vt 0.587549 0.665471
vt 0.449898 0.708561
vt 0.313235 0.662266
vt 0.229095 0.544800
vt 0.230353 0.400626
vt 0.316263 0.284704
vt 0.453961 0.241667
vn 0.000000 0.000000 1.000000
vn 0.000000 0.000000 1.000000
vn 0.000000 0.000000 1.000000
vn 0.000000 0.000000 1.000000
vn 0.000000 0.000000 1.000000
vn 0.000000 0.000000 1.000000
vn 0.000000 0.000000 1.000000
vn 0.000000 0.000000 1.000000
vn 0.000000 0.000000 1.000000
vn 0.000000 0.000000 1.000000
s off
g pCylinder21
usemtl initialShadingGroup
f 2/1/1 3/3/2 4/4/3 5/5/4 6/6/5 7/7/6 8/8/7 9/9/8 10/10/9 1/2/10
