# This file uses centimeters as units for non-parametric coordinates.

mtllib Bandages_LP.mtl
g default
v -0.721438 -0.414447 -0.102755
v -0.707298 -0.400307 -0.077887
v -0.724097 -0.383507 -0.102755
v -0.388061 -0.719544 -0.102755
v -0.404861 -0.702744 -0.077887
v -0.419000 -0.716884 -0.102755
v 0.378953 0.719543 -0.102755
v 0.395753 0.702744 -0.077887
v 0.409893 0.716884 -0.102755
v 0.712331 0.414447 -0.102755
v 0.698190 0.400307 -0.077887
v 0.714990 0.383507 -0.102755
v 0.395753 0.702744 -0.127622
v 0.698190 0.400307 -0.127622
v -0.707298 -0.400307 -0.127622
v -0.404861 -0.702744 -0.127622
v -0.582586 -0.578032 -0.070580
v -0.568136 -0.563582 -0.045712
v 0.559028 0.563581 -0.045712
v 0.573478 0.578032 -0.070580
v 0.559028 0.563581 -0.095448
v -0.568136 -0.563582 -0.095448
v -0.155773 0.151218 -0.063840
v -0.172573 0.168018 -0.088708
v -0.155773 0.151218 -0.113576
v -0.004555 -0.000001 -0.081401
v 0.146664 -0.151219 -0.113576
v 0.163464 -0.168019 -0.088708
v 0.146664 -0.151219 -0.063840
v 0.075613 0.416204 -0.095029
v 0.092413 0.399405 -0.070161
v 0.198197 0.202750 -0.030085
v 0.394850 0.096967 -0.070161
v 0.411650 0.080167 -0.095029
v 0.394850 0.096967 -0.119897
v 0.249057 0.253612 -0.087722
v 0.092413 0.399405 -0.119897
v -0.376384 -0.069392 -0.069459
v -0.393183 -0.052592 -0.094326
v -0.376383 -0.069391 -0.119195
v -0.229987 -0.225433 -0.087020
v -0.073945 -0.371829 -0.119195
v -0.057145 -0.388630 -0.094326
v -0.073946 -0.371829 -0.069459
v -0.179228 -0.174675 -0.028665
v -0.693667 -0.447164 -0.096320
v -0.679465 -0.432962 -0.071452
v -0.297163 -0.050658 -0.061300
v -0.125530 0.120975 -0.054532
v 0.073801 0.320305 -0.062146
v 0.428408 0.674911 -0.071452
v 0.442610 0.689114 -0.096319
v 0.428408 0.674911 -0.121188
v 0.123742 0.370247 -0.113462
v -0.125530 0.120975 -0.107141
v -0.347103 -0.100599 -0.112761
v -0.679466 -0.432961 -0.121188
v -0.437515 -0.674912 -0.071452
v -0.451718 -0.689114 -0.096319
v -0.437515 -0.674912 -0.121188
v -0.105153 -0.342549 -0.112761
v 0.116421 -0.120975 -0.107141
v 0.365692 0.128297 -0.113462
v 0.670357 0.432961 -0.121188
v 0.684560 0.447164 -0.096320
v 0.670357 0.432961 -0.071452
v 0.315751 0.078355 -0.062146
v 0.116421 -0.120975 -0.054532
v -0.055213 -0.292608 -0.061301
v -0.263105 -0.043489 -0.028870
v -0.110546 0.109069 -0.022854
v -0.158276 -0.153723 0.000139
v -0.003015 0.001538 0.010241
v 0.066632 0.286247 -0.029622
v 0.177203 0.181757 -0.001123
v 0.281693 0.071186 -0.029622
v 0.104515 -0.105991 -0.022854
v -0.048044 -0.258551 -0.028870
v 0.442351 -0.685985 0.014627
v 0.428321 -0.671955 0.039495
v 0.412745 -0.687531 0.014627
v 0.724304 -0.375973 0.014627
v 0.708728 -0.391549 0.039495
v 0.722757 -0.405578 0.014627
v -0.681706 0.406920 0.014627
v -0.666130 0.422497 0.039495
v -0.680161 0.436526 0.014627
v -0.399754 0.716933 0.014627
v -0.385724 0.702903 0.039495
v -0.370148 0.718479 0.014627
v -0.666130 0.422497 -0.010240
v -0.385724 0.702903 -0.010240
v 0.428321 -0.671955 -0.010240
v 0.708728 -0.391549 -0.010240
v 0.594824 -0.558052 0.046803
v 0.580487 -0.543715 0.071671
v -0.537889 0.574662 0.071671
v -0.552227 0.588999 0.046803
v -0.537889 0.574662 0.021934
v 0.580487 -0.543715 0.021934
v -0.118905 -0.124730 0.053542
v -0.134480 -0.140306 0.028674
v -0.118905 -0.124730 0.003806
v 0.021299 0.015473 0.035981
v 0.161502 0.155677 0.003806
v 0.177079 0.171253 0.028674
v 0.161502 0.155677 0.053542
v -0.380732 0.105946 0.022353
v -0.365156 0.121522 0.047221
v -0.179871 0.216644 0.087297
v -0.084750 0.401928 0.047221
v -0.069173 0.417504 0.022353
v -0.084750 0.401928 -0.002515
v -0.230336 0.267108 0.029660
v -0.365156 0.121522 -0.002515
v 0.099987 -0.343620 0.047923
v 0.084410 -0.359196 0.023056
v 0.099986 -0.343620 -0.001813
v 0.244975 -0.208201 0.030362
v 0.380393 -0.063213 -0.001813
v 0.395969 -0.047637 0.023056
v 0.380392 -0.063213 0.047923
v 0.194611 -0.157838 0.088717
v 0.472846 -0.660398 0.021062
v 0.458755 -0.646307 0.045930
v 0.079432 -0.266985 0.056082
v -0.090864 -0.096689 0.062850
v -0.288640 0.101088 0.055236
v -0.640482 0.452930 0.045930
v -0.654573 0.467021 0.021063
v -0.640482 0.452930 -0.003806
v -0.338192 0.150639 0.003920
v -0.090864 -0.096689 0.010241
v 0.128983 -0.316536 0.004622
v 0.458754 -0.646307 -0.003806
v 0.683080 -0.421982 0.045930
v 0.697171 -0.436073 0.021063
v 0.683080 -0.421982 -0.003806
v 0.353308 -0.092211 0.004622
v 0.133461 0.127636 0.010241
v -0.113867 0.374964 0.003920
v -0.416157 0.677255 -0.003806
v -0.430249 0.691346 0.021062
v -0.416157 0.677255 0.045930
v -0.064315 0.325413 0.055236
v 0.133461 0.127636 0.062850
v 0.303757 -0.042660 0.056081
v 0.071444 -0.234067 0.088512
v -0.079926 -0.082697 0.094528
v 0.173823 -0.137050 0.117521
v 0.019772 0.017001 0.127623
v -0.255723 0.093100 0.087760
v -0.159041 0.195814 0.116259
v -0.056328 0.292495 0.087760
v 0.119469 0.116698 0.094528
v 0.270839 -0.034672 0.088512
vt 0.237980 0.023728
vt 0.215685 0.011383
vt 0.186575 0.007133
vt 0.256826 0.022316
vt 0.222399 0.023546
vt 0.237885 0.241508
vt 0.222353 0.241317
vt 0.426260 0.023528
vt 0.002835 0.024176
vt 0.442495 0.241108
vt 0.426936 0.241341
vt 0.236153 0.764408
vt 0.238000 0.749451
vt 0.256843 0.750860
vt 0.186626 0.766042
vt 0.206822 0.241130
vt 0.206819 0.023370
vt 0.206845 0.749803
vt 0.188001 0.751272
vt 0.018776 0.241376
vt 0.018396 0.023897
vt 0.187970 0.021901
vt 0.676850 0.740324
vt 0.188033 0.240575
vt 0.428191 0.008641
vt 0.222422 0.749629
vt 0.009517 0.761416
vt 0.426250 0.749630
vt 0.441816 0.749846
vt 0.018472 0.749461
vt 0.407431 0.022146
vt 0.038477 0.007541
vt 0.838164 0.747454
vt 0.409331 0.765808
vt 0.407422 0.751015
vt 0.037296 0.751002
vt 0.037222 0.022311
vt 0.037590 0.240777
vt 0.222264 0.550036
vt 0.237806 0.549838
vt 0.206723 0.550228
vt 0.187921 0.550866
vt 0.018546 0.549990
vt 0.037370 0.550668
vt 0.002992 0.549713
vt 0.426824 0.549982
vt 0.828432 0.999636
vt 0.667098 0.992419
vt 0.222837 0.386627
vt 0.238437 0.386620
vt 0.668454 0.859870
vt 0.837076 0.861742
vt 0.426086 0.386650
vt 0.441656 0.386668
vt 0.018876 0.386539
vt 0.037710 0.386566
vt 0.188369 0.386627
vt 0.207232 0.386634
vt 0.332132 0.002096
vt 0.332129 0.016980
vt 0.754074 0.742871
vt 0.685384 0.861076
vt 0.686649 0.759881
vt 0.753864 0.761808
vt 0.752753 0.861902
vt 0.684214 0.978529
vt 0.751462 0.978264
vt 0.751251 0.997275
vt 0.332135 0.756168
vt 0.332142 0.771053
vt 0.112625 0.757749
vt 0.112661 0.553506
vt 0.113027 0.386611
vt 0.112829 0.238241
vt 0.112561 0.015504
vt 0.820123 0.862572
vt 0.818686 0.980021
vt 0.821105 0.761373
vt 0.332311 0.519812
vt 0.256663 0.517692
vt 0.257600 0.386624
vt 0.256742 0.273730
vt 0.831335 0.742039
vt 0.332398 0.271809
vt 0.406951 0.386640
vt 0.407975 0.517790
vt 0.408079 0.273620
vt 0.835490 0.994288
vt 0.674035 0.997922
vt 0.669903 0.745586
vt 0.112582 0.772782
vt 0.038578 0.765772
vt 0.002914 0.749230
vt 0.434875 0.761838
vt 0.442383 0.550217
vt 0.002978 0.549837
vt 0.003302 0.386500
vt 0.009381 0.011971
vt 0.003218 0.241587
vt 0.441824 0.023306
vt 0.409335 0.007353
vt 0.112495 0.000472
vt 0.254951 0.007526
vt 0.236129 0.008773
vt 0.205343 0.008579
vt 0.434878 0.011318
vt 0.019716 0.009136
vt 0.428188 0.764514
vt 0.019828 0.764223
vt 0.254974 0.765650
vt 0.229428 0.761636
vt 0.205384 0.764587
vt 0.215709 0.761791
vt 0.229407 0.011540
vt 0.678555 0.022727
vt 0.676772 0.008325
vt 0.694898 0.007124
vt 0.696704 0.021367
vt 0.663550 0.022551
vt 0.678463 0.232449
vt 0.663506 0.232265
vt 0.859869 0.022534
vt 0.874857 0.022320
vt 0.875503 0.232064
vt 0.860520 0.232288
vt 0.676795 0.736002
vt 0.678575 0.721598
vt 0.696720 0.722956
vt 0.694920 0.737198
vt 0.648550 0.232085
vt 0.648547 0.022382
vt 0.648572 0.721937
vt 0.647165 0.736174
vt 0.629101 0.737575
vt 0.630425 0.723353
vt 0.467461 0.232322
vt 0.452479 0.232525
vt 0.452110 0.023158
vt 0.467096 0.022889
vt 0.647125 0.008138
vt 0.630395 0.020967
vt 0.629052 0.006745
vt 0.696623 0.263478
vt 0.630456 0.231551
vt 0.670300 0.010990
vt 0.868168 0.010775
vt 0.663572 0.721770
vt 0.670320 0.733333
vt 0.868166 0.733527
vt 0.859860 0.721771
vt 0.874849 0.721979
vt 0.657108 0.733482
vt 0.467168 0.721608
vt 0.458545 0.733121
vt 0.452186 0.721386
vt 0.657085 0.010838
vt 0.458414 0.011404
vt 0.841737 0.021203
vt 0.843570 0.006957
vt 0.861728 0.008198
vt 0.842360 0.263373
vt 0.843566 0.737350
vt 0.841728 0.723104
vt 0.861726 0.736105
vt 0.485296 0.723092
vt 0.486531 0.737316
vt 0.468475 0.735824
vt 0.485225 0.021362
vt 0.485579 0.231745
vt 0.486433 0.007138
vt 0.468366 0.008675
vt 0.663421 0.529562
vt 0.678388 0.529371
vt 0.648454 0.529747
vt 0.630348 0.530361
vt 0.467240 0.529517
vt 0.485368 0.530171
vt 0.452248 0.529370
vt 0.860412 0.529510
vt 0.875395 0.529736
vt 0.842260 0.498509
vt 0.696547 0.498415
vt 0.663972 0.372199
vt 0.678995 0.372192
vt 0.697449 0.372196
vt 0.841274 0.372211
vt 0.859701 0.372221
vt 0.874695 0.372238
vt 0.452262 0.529251
vt 0.452560 0.372076
vt 0.467558 0.372114
vt 0.485695 0.372140
vt 0.630779 0.372199
vt 0.648945 0.372206
vt 0.769223 0.001895
vt 0.769221 0.016228
vt 0.769480 0.261629
vt 0.476697 0.862160
vt 0.477918 0.764463
vt 0.542809 0.766323
vt 0.541736 0.862957
vt 0.475568 0.975551
vt 0.540490 0.975295
vt 0.769395 0.500456
vt 0.769226 0.728067
vt 0.769233 0.742401
vt 0.557796 0.744066
vt 0.557838 0.729590
vt 0.557873 0.532904
vt 0.558225 0.372183
vt 0.558034 0.229302
vt 0.557776 0.014807
vt 0.557713 0.000331
vt 0.606777 0.863603
vt 0.605390 0.976992
vt 0.607725 0.765903
vt 0.460352 0.860995
vt 0.461751 0.750662
vt 0.468458 0.745582
vt 0.543012 0.748041
vt 0.459043 0.988961
vt 0.540286 0.993649
vt 0.465740 0.994274
vt 0.623144 0.862802
vt 0.621613 0.990765
vt 0.614799 0.995928
vt 0.624194 0.752465
vt 0.617601 0.747238
vn -0.324489 0.253901 0.911176
vn -0.830712 -0.554704 -0.047127
vn -0.757808 -0.651519 -0.035354
vn -0.166527 0.072852 0.983342
vn -0.718322 0.695667 -0.007809
vn -0.297619 0.273596 0.914641
vn -0.707127 0.707085 0.001584
vn 0.253898 -0.324486 0.911178
vn 0.695666 -0.718323 -0.007807
vn 0.707085 -0.707127 0.001587
vn 0.273591 -0.297614 0.914644
vn 0.554701 0.830714 -0.047135
vn -0.250610 0.325084 0.911874
vn -0.069796 0.167722 0.983361
vn 0.651520 0.757808 -0.035343
vn -0.176789 0.201291 -0.963446
vn -0.187542 0.164368 -0.968406
vn -0.162019 0.189409 -0.968439
vn 0.126116 -0.079993 -0.988785
vn 0.201289 -0.176787 -0.963446
vn 0.164367 -0.187543 -0.968407
vn 0.083055 -0.123483 -0.988865
vn -0.137449 0.103888 0.985046
vn 0.118121 -0.093215 -0.988614
vn -0.554713 -0.830705 -0.047135
vn -0.694626 0.719329 -0.007800
vn 0.830710 0.554708 -0.047130
vn 0.325085 -0.250610 0.911874
vn 0.719329 -0.694626 -0.007800
vn 0.189409 -0.162019 -0.968439
vn 0.072854 -0.166526 0.983342
vn -0.651519 -0.757808 -0.035342
vn 0.103888 -0.137449 0.985046
vn 0.757806 0.651521 -0.035346
vn 0.167723 -0.069795 0.983360
vn -0.079994 0.126116 -0.988785
vn -0.123484 0.083055 -0.988865
vn -0.093215 0.118122 -0.988614
vn -0.707096 0.707117 0.000792
vn -0.279294 0.303164 0.911091
vn -0.200868 0.176362 -0.963612
vn 0.093214 -0.118120 -0.988615
vn 0.176360 -0.200866 -0.963613
vn -0.118120 0.093214 -0.988615
vn 0.707117 -0.707096 0.000792
vn 0.303164 -0.279294 0.911091
vn 0.136449 -0.103371 0.985239
vn -0.103371 0.136449 0.985239
vn -0.707079 0.707090 0.007919
vn -0.321939 0.323463 0.889790
vn -0.127977 0.129792 0.983248
vn 0.129788 -0.127974 0.983248
vn 0.323459 -0.321935 0.889794
vn 0.707091 -0.707078 0.007920
vn 0.188718 -0.190159 -0.963445
vn -0.106142 0.104677 -0.988826
vn 0.104677 -0.106141 -0.988826
vn -0.190161 0.188720 -0.963444
vn -0.705767 -0.705766 0.061537
vn -0.048162 -0.048163 0.997678
vn -0.017627 -0.017628 0.999689
vn -0.244849 0.247763 0.937370
vn -0.368866 0.154419 0.916566
vn -0.103994 -0.103995 0.989126
vn 0.001517 0.001516 0.999998
vn -0.167262 0.360450 0.917660
vn 0.094444 0.094444 0.991040
vn 0.017419 0.017419 0.999696
vn 0.050243 0.050243 0.997472
vn 0.705767 0.705766 0.061540
vn 0.032619 0.032620 -0.998935
vn -0.012567 -0.012568 -0.999842
vn -0.000739 -0.000739 -1.000000
vn 0.012568 0.012568 -0.999842
vn -0.029040 -0.029040 -0.999156
vn 0.247764 -0.244851 0.937369
vn 0.360450 -0.167263 0.917659
vn 0.154421 -0.368869 0.916564
vn -0.606072 0.606508 0.514611
vn -0.698121 0.142853 0.701584
vn -0.492878 -0.492880 0.717036
vn -0.183509 0.698839 0.691338
vn 0.493759 0.493758 0.715825
vn 0.606505 -0.606074 0.514612
vn 0.698838 -0.183510 0.691339
vn 0.142859 -0.698122 0.701581
vn -0.272360 -0.342439 0.899197
vn 0.545297 -0.836726 -0.050406
vn 0.647806 -0.760866 -0.037823
vn -0.081692 -0.175905 0.981012
vn -0.695987 -0.718015 -0.007548
vn -0.291515 -0.315402 0.903073
vn -0.707086 -0.707126 0.001534
vn 0.342435 0.272357 0.899199
vn 0.718015 0.695987 -0.007548
vn 0.707126 0.707086 0.001536
vn 0.315396 0.291510 0.903076
vn -0.836727 0.545295 -0.050412
vn -0.342970 -0.269028 0.899998
vn -0.177047 -0.078555 0.981062
vn -0.760866 0.647806 -0.037811
vn -0.215046 -0.190495 -0.957845
vn -0.176886 -0.199492 -0.963802
vn -0.201323 -0.174543 -0.963849
vn 0.088016 0.133944 -0.987073
vn 0.190493 0.215044 -0.957846
vn 0.199491 0.176884 -0.963803
vn 0.131325 0.091091 -0.987146
vn -0.113016 -0.146782 0.982691
vn 0.101234 0.126291 -0.986814
vn 0.836723 -0.545302 -0.050410
vn -0.718993 -0.694976 -0.007541
vn -0.545300 0.836724 -0.050405
vn 0.269028 0.342970 0.899998
vn 0.694977 0.718992 -0.007541
vn 0.174542 0.201322 -0.963849
vn 0.175904 0.081693 0.981012
vn 0.760867 -0.647806 -0.037809
vn 0.146782 0.113017 0.982691
vn -0.647807 0.760865 -0.037814
vn 0.078555 0.177048 0.981062
vn -0.133943 -0.088017 -0.987073
vn -0.091091 -0.131326 -0.987145
vn -0.126291 -0.101234 -0.986814
vn -0.707117 -0.707096 0.000766
vn -0.321282 -0.297565 0.899018
vn -0.190016 -0.214572 -0.958046
vn 0.126290 0.101233 -0.986814
vn 0.214570 0.190014 -0.958047
vn -0.101233 -0.126290 -0.986814
vn 0.707096 0.707117 0.000766
vn 0.297564 0.321281 0.899019
vn 0.112451 0.145728 0.982913
vn -0.145728 -0.112450 0.982913
vn -0.707092 -0.707080 0.007662
vn -0.342979 -0.341469 0.875080
vn -0.139547 -0.137723 0.980591
vn 0.137721 0.139544 0.980592
vn 0.341464 0.342974 0.875083
vn 0.707080 0.707093 0.007662
vn 0.203895 0.202452 -0.957831
vn -0.112748 -0.114222 -0.987037
vn 0.114222 0.112748 -0.987037
vn -0.202455 -0.203898 -0.957830
vn 0.705561 -0.705563 0.066072
vn 0.048519 -0.048518 0.997643
vn 0.017767 -0.017766 0.999684
vn -0.264458 -0.261547 0.928254
vn -0.173165 -0.385612 0.906265
vn 0.104399 -0.104397 0.989041
vn -0.001528 0.001529 0.999998
vn -0.377338 -0.186015 0.907202
vn -0.094838 0.094837 0.990965
vn -0.017556 0.017556 0.999692
vn -0.050615 0.050615 0.997435
vn -0.705562 0.705561 0.066075
vn -0.033333 0.033332 -0.998888
vn 0.012666 -0.012666 -0.999840
vn 0.000745 -0.000745 -0.999999
vn -0.012666 0.012666 -0.999840
vn 0.029691 -0.029691 -0.999118
vn 0.261549 0.264459 0.928253
vn 0.186016 0.377338 0.907201
vn 0.385615 0.173168 0.906264
vn -0.618087 -0.617681 0.486250
vn -0.162594 -0.712212 0.682874
vn 0.494861 -0.494859 0.714301
vn -0.712681 -0.203375 0.671360
vn -0.495731 0.495733 0.713092
vn 0.617681 0.618085 0.486252
vn 0.203382 0.712680 0.671359
vn 0.712213 0.162599 0.682872
s 1
g Bandage
usemtl initialShadingGroup
f 2/1/1 1/104/2 46/103/3 47/4/4
f 3/5/5 2/1/1 38/6/6 39/7/7
f 5/8/8 4/100/9 43/10/10 44/11/11
f 9/12/12 8/13/13 51/14/14 52/110/15
f 39/7/7 40/16/16 15/17/17 3/5/5
f 13/18/18 9/112/12 52/15/15 53/19/19
f 42/20/20 43/99/10 4/9/9 16/21/21
f 1/105/2 15/17/17 57/22/22 46/3/3
f 2/1/1 47/4/4 48/82/23 38/6/6
f 40/16/16 56/24/24 57/22/22 15/17/17
f 1/114/2 2/1/1 3/5/5
f 4/100/9 5/8/8 6/106/25
f 7/26/26 8/13/13 9/111/12
f 10/94/27 11/28/28 12/29/29
f 7/26/26 9/113/12 13/18/18
f 14/30/30 10/27/27 12/93/29
f 3/5/5 15/17/17 1/2/2
f 6/98/25 16/21/21 4/9/9
f 58/31/31 59/101/32 6/25/25 5/8/8
f 44/11/11 69/87/33 58/31/31 5/8/8
f 65/34/34 66/35/35 11/28/28 10/108/27
f 64/36/36 65/92/34 10/109/27 14/30/30
f 60/37/37 61/38/38 42/20/20 16/21/21
f 59/32/32 60/37/37 16/21/21 6/107/25
f 30/39/39 31/40/40 8/13/13 7/26/26
f 7/26/26 13/18/18 37/41/41 30/39/39
f 13/18/18 53/19/19 54/42/42 37/41/41
f 35/43/43 63/44/44 64/36/36 14/30/30
f 14/30/30 12/93/29 34/96/45 35/43/43
f 33/46/46 34/95/45 12/29/29 11/28/28
f 66/35/35 67/86/47 33/46/46 11/28/28
f 31/40/40 50/80/48 51/14/14 8/13/13
f 24/49/49 23/50/50 31/40/40 30/39/39
f 23/50/50 49/81/51 50/80/48 31/40/40
f 33/46/46 67/86/47 68/85/52 29/53/53
f 29/53/53 28/54/54 34/95/45 33/46/46
f 35/43/43 34/45/45 28/97/54 27/55/55
f 27/55/55 62/56/56 63/44/44 35/43/43
f 37/41/41 54/42/42 55/57/57 25/58/58
f 30/39/39 37/41/41 25/58/58 24/49/49
f 39/7/7 38/6/6 23/50/50 24/49/49
f 24/49/49 25/58/58 40/16/16 39/7/7
f 25/58/58 55/57/57 56/24/24 40/16/16
f 42/20/20 61/38/38 62/56/56 27/55/55
f 27/55/55 28/97/54 43/99/10 42/20/20
f 44/11/11 43/10/10 28/54/54 29/53/53
f 29/53/53 68/85/52 69/87/33 44/11/11
f 38/6/6 48/82/23 49/81/51 23/50/50
f 47/4/4 46/103/3 17/59/59 18/60/60
f 48/82/23 47/4/4 18/60/60 45/84/61
s 5
f 71/62/62 70/63/63 72/64/64 73/65/65
f 74/66/66 71/62/62 73/65/65 75/67/67
s 1
f 51/14/14 50/80/48 32/79/68 19/69/69
f 52/110/15 51/14/14 19/69/69 20/70/70
f 53/19/19 52/15/15 20/91/70 21/71/71
f 54/42/42 53/19/19 21/71/71 36/72/72
f 55/57/57 54/42/42 36/72/72 26/73/73
f 56/24/24 55/57/57 26/73/73 41/74/74
f 57/22/22 56/24/24 41/74/74 22/75/75
f 46/3/3 57/22/22 22/75/75 17/102/59
f 18/60/60 17/59/59 59/101/32 58/31/31
f 17/102/59 22/75/75 60/37/37 59/32/32
f 22/75/75 41/74/74 61/38/38 60/37/37
f 62/56/56 61/38/38 41/74/74 26/73/73
f 63/44/44 62/56/56 26/73/73 36/72/72
f 64/36/36 63/44/44 36/72/72 21/71/71
f 21/71/71 20/91/70 65/92/34 64/36/36
f 20/70/70 19/69/69 66/35/35 65/34/34
f 19/69/69 32/79/68 67/86/47 66/35/35
s 5
f 77/76/76 76/77/77 75/67/67 73/65/65
f 78/78/78 77/76/76 73/65/65 72/64/64
s 1
f 58/31/31 69/87/33 45/84/61 18/60/60
s 5
f 49/51/79 48/90/80 70/63/63 71/62/62
f 48/23/80 45/61/81 72/64/64 70/63/63
f 50/48/82 49/51/79 71/62/62 74/66/66
f 32/68/83 50/89/82 74/66/66 75/67/67
f 68/52/84 67/88/85 76/77/77 77/76/76
f 67/47/85 32/68/83 75/67/67 76/77/77
f 69/33/86 68/52/84 77/76/76 78/78/78
f 45/61/81 69/83/86 78/78/78 72/64/64
s 6
f 80/115/87 79/116/88 124/117/89 125/118/90
f 81/119/91 80/115/87 116/120/92 117/121/93
f 83/122/94 82/123/95 121/124/96 122/125/97
f 87/126/98 86/127/99 129/128/100 130/129/101
f 117/121/93 118/130/102 93/131/103 81/119/91
f 91/132/104 87/133/98 130/134/101 131/135/105
f 120/136/106 121/137/96 82/138/95 94/139/107
f 79/140/88 93/131/103 135/141/108 124/142/89
f 80/115/87 125/118/90 126/143/109 116/120/92
f 118/130/102 134/144/110 135/141/108 93/131/103
f 79/145/88 80/115/87 81/119/91
f 82/123/95 83/122/94 84/146/111
f 85/147/112 86/127/99 87/148/98
f 88/149/113 89/150/114 90/151/115
f 85/147/112 87/152/98 91/132/104
f 92/153/116 88/154/113 90/155/115
f 81/119/91 93/131/103 79/156/88
f 84/157/111 94/139/107 82/138/95
f 136/158/117 137/159/118 84/160/111 83/122/94
f 122/125/97 147/161/119 136/158/117 83/122/94
f 143/162/120 144/163/121 89/150/114 88/164/113
f 142/165/122 143/166/120 88/167/113 92/153/116
f 138/168/123 139/169/124 120/136/106 94/139/107
f 137/170/118 138/168/123 94/139/107 84/171/111
f 108/172/125 109/173/126 86/127/99 85/147/112
f 85/147/112 91/132/104 115/174/127 108/172/125
f 91/132/104 131/135/105 132/175/128 115/174/127
f 113/176/129 141/177/130 142/165/122 92/153/116
f 92/153/116 90/155/115 112/178/131 113/176/129
f 111/179/132 112/180/131 90/151/115 89/150/114
f 144/163/121 145/181/133 111/179/132 89/150/114
f 109/173/126 128/182/134 129/128/100 86/127/99
f 102/183/135 101/184/136 109/173/126 108/172/125
f 101/184/136 127/185/137 128/182/134 109/173/126
f 111/179/132 145/181/133 146/186/138 107/187/139
f 107/187/139 106/188/140 112/180/131 111/179/132
f 113/176/129 112/189/131 106/190/140 105/191/141
f 105/191/141 140/192/142 141/177/130 113/176/129
f 115/174/127 132/175/128 133/193/143 103/194/144
f 108/172/125 115/174/127 103/194/144 102/183/135
f 117/121/93 116/120/92 101/184/136 102/183/135
f 102/183/135 103/194/144 118/130/102 117/121/93
f 103/194/144 133/193/143 134/144/110 118/130/102
f 120/136/106 139/169/124 140/192/142 105/191/141
f 105/191/141 106/190/140 121/137/96 120/136/106
f 122/125/97 121/124/96 106/188/140 107/187/139
f 107/187/139 146/186/138 147/161/119 122/125/97
f 116/120/92 126/143/109 127/185/137 101/184/136
f 125/118/90 124/117/89 95/195/145 96/196/146
f 126/143/109 125/118/90 96/196/146 123/197/147
s 10
f 149/198/148 148/199/149 150/200/150 151/201/151
f 152/202/152 149/198/148 151/201/151 153/203/153
s 6
f 129/128/100 128/182/134 110/204/154 97/205/155
f 130/129/101 129/128/100 97/205/155 98/206/156
f 131/135/105 130/134/101 98/207/156 99/208/157
f 132/175/128 131/135/105 99/208/157 114/209/158
f 133/193/143 132/175/128 114/209/158 104/210/159
f 134/144/110 133/193/143 104/210/159 119/211/160
f 135/141/108 134/144/110 119/211/160 100/212/161
f 124/142/89 135/141/108 100/212/161 95/213/145
f 96/196/146 95/195/145 137/159/118 136/158/117
f 95/213/145 100/212/161 138/168/123 137/170/118
f 100/212/161 119/211/160 139/169/124 138/168/123
f 140/192/142 139/169/124 119/211/160 104/210/159
f 141/177/130 140/192/142 104/210/159 114/209/158
f 142/165/122 141/177/130 114/209/158 99/208/157
f 99/208/157 98/207/156 143/166/120 142/165/122
f 98/206/156 97/205/155 144/163/121 143/162/120
f 97/205/155 110/204/154 145/181/133 144/163/121
s 10
f 155/214/162 154/215/163 153/203/153 151/201/151
f 156/216/164 155/214/162 151/201/151 150/200/150
s 6
f 136/158/117 147/161/119 123/197/147 96/196/146
s 10
f 127/217/165 126/218/166 148/199/149 149/198/148
f 126/219/166 123/220/167 150/200/150 148/199/149
f 128/221/168 127/217/165 149/198/148 152/202/152
f 110/222/169 128/223/168 152/202/152 153/203/153
f 146/224/170 145/225/171 154/215/163 155/214/162
f 145/226/171 110/222/169 153/203/153 154/215/163
f 147/227/172 146/224/170 155/214/162 156/216/164
f 123/220/167 147/228/172 156/216/164 150/200/150
