# This file uses centimeters as units for non-parametric coordinates.

mtllib Fishing_Rod.mtl
g default
v -5.135050 0.398515 -0.800887
v -5.118188 0.387934 -0.806334
v -5.124301 0.370436 -0.815406
v -5.144941 0.370203 -0.815566
v -5.151584 0.387556 -0.806593
v -5.134586 0.430608 -0.861463
v -5.119502 0.421146 -0.866343
v -5.124970 0.405498 -0.874468
v -5.143433 0.405290 -0.874610
v -5.149376 0.420808 -0.866574
v -5.134438 0.456381 -0.913220
v -5.120932 0.447699 -0.917790
v -5.126091 0.433650 -0.925184
v -5.142785 0.433650 -0.925184
v -5.147943 0.447699 -0.917790
v -5.134438 0.479699 -0.963346
v -5.122363 0.471861 -0.967255
v -5.126976 0.459178 -0.973582
v -5.141899 0.459178 -0.973582
v -5.146512 0.471861 -0.967255
v -5.134438 0.503746 -1.014230
v -5.123795 0.496848 -1.017705
v -5.127861 0.485688 -1.023325
v -5.141014 0.485688 -1.023325
v -5.145080 0.496848 -1.017705
v -5.134438 0.525092 -1.067921
v -5.125227 0.519058 -1.070724
v -5.128746 0.509296 -1.075262
v -5.140130 0.509296 -1.075262
v -5.143647 0.519058 -1.070724
v -5.135969 0.336314 -0.681975
v -5.135935 0.330623 -0.680556
v -5.135804 0.320665 -0.684147
v -5.115691 0.323760 -0.688842
v -5.119717 0.320636 -0.686031
v -5.129529 0.316919 -0.686206
v -5.123036 0.302994 -0.700265
v -5.125564 0.304000 -0.695201
v -5.131745 0.310431 -0.689791
v -5.147855 0.302713 -0.700458
v -5.145456 0.303795 -0.695344
v -5.139486 0.310410 -0.689814
v -5.155847 0.323306 -0.689153
v -5.151794 0.320262 -0.686285
v -5.141811 0.316739 -0.686324
v -5.134438 0.539581 -1.120685
v -5.134438 0.538467 -1.122884
v -5.134438 0.534993 -1.125161
v -5.131951 0.533505 -1.125832
v -5.128194 0.534423 -1.124723
v -5.126605 0.534444 -1.123035
v -5.132846 0.530794 -1.127054
v -5.130552 0.527760 -1.127750
v -5.129597 0.526133 -1.126837
v -5.139278 0.526133 -1.126837
v -5.138323 0.527760 -1.127750
v -5.136029 0.530794 -1.127054
v -5.136772 0.533460 -1.125853
v -5.140636 0.534410 -1.124729
v -5.142271 0.534444 -1.123035
v -5.135143 0.067972 -1.113472
v -5.138607 0.067959 -1.115471
v -5.138607 0.067933 -1.119471
v -5.135143 0.067919 -1.121471
v -5.131679 0.067933 -1.119471
v -5.131679 0.067959 -1.115471
v -5.135143 0.044874 -1.113823
v -5.138193 0.044849 -1.115584
v -5.138193 0.044799 -1.119106
v -5.135143 0.044774 -1.120866
v -5.132092 0.044799 -1.119106
v -5.132092 0.044849 -1.115584
v -5.135143 0.035254 -1.123802
v -5.137971 0.036532 -1.124819
v -5.137971 0.039089 -1.126851
v -5.135143 0.040368 -1.127868
v -5.132314 0.039089 -1.126851
v -5.132314 0.036532 -1.124819
v -5.135143 0.026217 -1.128616
v -5.137750 0.026547 -1.130085
v -5.137750 0.027207 -1.133023
v -5.135143 0.027537 -1.134491
v -5.132535 0.027207 -1.133023
v -5.132535 0.026547 -1.130085
v -5.135143 0.014482 -1.127362
v -5.137494 0.013810 -1.128541
v -5.137494 0.012467 -1.130901
v -5.135143 0.011795 -1.132081
v -5.132791 0.012467 -1.130901
v -5.132791 0.013810 -1.128541
v -5.135143 0.007654 -1.117995
v -5.137238 0.006457 -1.118169
v -5.137238 0.004063 -1.118518
v -5.135143 0.002866 -1.118693
v -5.133047 0.004063 -1.118518
v -5.133047 0.006457 -1.118169
v -5.135143 0.009102 -1.109693
v -5.137055 0.008162 -1.109114
v -5.137055 0.006283 -1.107955
v -5.135143 0.005343 -1.107375
v -5.133230 0.006283 -1.107955
v -5.133230 0.008162 -1.109114
v -5.135143 0.015393 -1.103459
v -5.136872 0.014985 -1.102548
v -5.136872 0.014168 -1.100725
v -5.135143 0.013760 -1.099814
v -5.133413 0.014168 -1.100725
v -5.133413 0.014985 -1.102548
v -5.135143 0.019944 -1.102500
v -5.135143 0.020538 -1.102082
v -5.135143 0.020728 -1.101308
v -5.136778 0.019852 -1.101566
v -5.136513 0.020469 -1.101294
v -5.135883 0.020696 -1.100883
v -5.135791 0.020634 -1.100083
v -5.136479 0.020329 -1.099741
v -5.136777 0.019661 -1.099699
v -5.135143 0.019564 -1.098766
v -5.135143 0.020260 -1.098980
v -5.135143 0.020606 -1.099711
v -5.133508 0.019661 -1.099699
v -5.133806 0.020329 -1.099741
v -5.134494 0.020634 -1.100083
v -5.134402 0.020696 -1.100883
v -5.133772 0.020469 -1.101294
v -5.133507 0.019852 -1.101566
v -5.129969 0.062865 -1.126233
v -5.140316 0.062865 -1.126233
v -5.145491 0.062865 -1.117271
v -5.140316 0.062865 -1.108310
v -5.129969 0.062865 -1.108310
v -5.124794 0.062865 -1.117271
v -5.126181 0.070440 -1.132794
v -5.144104 0.070440 -1.132794
v -5.153066 0.070440 -1.117271
v -5.144104 0.070440 -1.101749
v -5.126181 0.070440 -1.101749
v -5.117219 0.070440 -1.117271
v -5.124794 0.080788 -1.135195
v -5.145491 0.080788 -1.135195
v -5.155839 0.080788 -1.117271
v -5.145491 0.080788 -1.099348
v -5.124794 0.080788 -1.099348
v -5.114446 0.080788 -1.117271
v -5.126181 0.091137 -1.132794
v -5.144104 0.091137 -1.132794
v -5.153066 0.091137 -1.117271
v -5.144104 0.091137 -1.101749
v -5.126181 0.091137 -1.101749
v -5.117219 0.091137 -1.117271
v -5.129969 0.098712 -1.126233
v -5.140316 0.098712 -1.126233
v -5.145491 0.098712 -1.117271
v -5.140316 0.098712 -1.108310
v -5.129969 0.098712 -1.108310
v -5.124794 0.098712 -1.117271
v -5.135143 0.060092 -1.117271
v -5.135143 0.101485 -1.117271
v -5.130890 0.533333 -1.122471
v -5.141127 0.533333 -1.112234
v -5.130890 0.098362 -1.122471
v -5.141127 0.098362 -1.112234
v -5.132390 0.533333 -1.111085
v -5.139628 0.533333 -1.123621
v -5.132390 0.098362 -1.111085
v -5.139628 0.098362 -1.123621
vt 0.993863 0.554963
vt 0.975016 0.585329
vt 0.978762 0.585006
vt 0.982513 0.584700
vt 0.986276 0.584568
vt 0.990039 0.584605
vt 0.993799 0.584642
vt 0.976863 0.610255
vt 0.980254 0.610012
vt 0.983649 0.609810
vt 0.987047 0.609687
vt 0.990447 0.609641
vt 0.993847 0.609634
vt 0.978650 0.634080
vt 0.981674 0.633788
vt 0.984696 0.633488
vt 0.987730 0.633377
vt 0.990765 0.633457
vt 0.993803 0.633527
vt 0.980422 0.658324
vt 0.983092 0.658103
vt 0.985764 0.657895
vt 0.988444 0.657796
vt 0.991125 0.657809
vt 0.993804 0.657835
vt 0.982126 0.683108
vt 0.974093 0.499439
vt 0.972774 0.555718
vt 0.978913 0.499226
vt 0.976961 0.555370
vt 0.983450 0.497136
vt 0.981231 0.555017
vt 0.988366 0.497815
vt 0.985425 0.554860
vt 0.993312 0.496810
vt 0.989663 0.554913
vt 0.974533 0.495229
vt 0.986827 0.493720
vt 0.969391 0.497708
vt 0.975470 0.496304
vt 0.977244 0.496166
vt 0.978132 0.495067
vt 0.988319 0.494411
vt 0.989692 0.493700
vt 0.991957 0.494964
vt 0.971534 0.495978
vt 0.974549 0.497897
vt 0.978280 0.497754
vt 0.984633 0.495209
vt 0.988386 0.496219
vt 0.988089 0.707232
vt 0.984466 0.682838
vt 0.984546 0.706436
vt 0.986821 0.682578
vt 0.986133 0.705417
vt 0.989190 0.682488
vt 0.987879 0.704936
vt 0.991556 0.682579
vt 0.989671 0.704914
vt 0.993909 0.682679
vt 0.991455 0.705271
vt 0.987303 0.706478
vt 0.988187 0.706243
vt 0.988527 0.706734
vt 0.987449 0.707086
vt 0.993122 0.706158
vt 0.992159 0.706694
vt 0.986606 0.705976
vt 0.987995 0.705571
vt 0.989553 0.705567
vt 0.991037 0.705864
vt 0.925808 0.552038
vt 0.929003 0.552013
vt 0.929486 0.569985
vt 0.926682 0.569825
vt 0.932155 0.552083
vt 0.932060 0.570987
vt 0.935185 0.552164
vt 0.935187 0.571324
vt 0.938214 0.552083
vt 0.938315 0.570986
vt 0.941366 0.552012
vt 0.940888 0.569982
vt 0.944561 0.552037
vt 0.943692 0.569821
vt 0.930464 0.579049
vt 0.927932 0.579820
vt 0.932812 0.578166
vt 0.935189 0.577888
vt 0.937567 0.578164
vt 0.939916 0.579044
vt 0.942448 0.579814
vt 0.930663 0.588367
vt 0.928319 0.588707
vt 0.932879 0.588108
vt 0.935194 0.588011
vt 0.937510 0.588105
vt 0.939727 0.588363
vt 0.942071 0.588698
vt 0.931200 0.598868
vt 0.929100 0.599081
vt 0.933115 0.598743
vt 0.935202 0.598686
vt 0.937289 0.598740
vt 0.939204 0.598863
vt 0.941305 0.599073
vt 0.931618 0.609142
vt 0.929737 0.609189
vt 0.933340 0.609290
vt 0.935210 0.609328
vt 0.937079 0.609288
vt 0.938801 0.609138
vt 0.940681 0.609181
vt 0.931857 0.616789
vt 0.930145 0.616826
vt 0.933473 0.616851
vt 0.935214 0.616871
vt 0.936955 0.616849
vt 0.938571 0.616786
vt 0.940283 0.616821
vt 0.932051 0.624583
vt 0.930444 0.624747
vt 0.933613 0.624577
vt 0.935216 0.624589
vt 0.936820 0.624575
vt 0.938383 0.624579
vt 0.939990 0.624741
vt 0.934205 0.630120
vt 0.933050 0.629151
vt 0.934139 0.628955
vt 0.934394 0.629504
vt 0.932707 0.628672
vt 0.933929 0.628450
vt 0.935556 0.629757
vt 0.936306 0.628944
vt 0.937397 0.629140
vt 0.935450 0.630394
vt 0.936506 0.628443
vt 0.937735 0.628664
vt 0.931528 0.629247
vt 0.935207 0.628363
vt 0.938916 0.629236
vt 0.934755 0.630591
vt 0.935151 0.629358
vt 0.938355 0.629764
vt 0.935191 0.628874
vt 0.857511 0.609530
vt 0.863556 0.611454
vt 0.861344 0.616956
vt 0.852469 0.614782
vt 0.870917 0.611700
vt 0.869929 0.617239
vt 0.878682 0.611598
vt 0.878267 0.617152
vt 0.886556 0.611504
vt 0.886692 0.617120
vt 0.894201 0.611311
vt 0.895565 0.617240
vt 0.900816 0.610080
vt 0.905479 0.616534
vt 0.860489 0.622929
vt 0.849914 0.621967
vt 0.869673 0.623130
vt 0.878267 0.623054
vt 0.886864 0.622994
vt 0.896052 0.623237
vt 0.906622 0.624264
vt 0.860997 0.628928
vt 0.851093 0.629692
vt 0.869859 0.629007
vt 0.878271 0.628957
vt 0.886598 0.628881
vt 0.895176 0.629204
vt 0.904035 0.631434
vt 0.862385 0.634856
vt 0.855783 0.636123
vt 0.870013 0.634629
vt 0.877865 0.634517
vt 0.885607 0.634419
vt 0.892946 0.634697
vt 0.898972 0.636656
vt 0.862636 0.605409
vt 0.867674 0.606094
vt 0.874686 0.606150
vt 0.882263 0.606062
vt 0.889703 0.605948
vt 0.895921 0.605429
vt 0.860705 0.640747
vt 0.866908 0.640197
vt 0.874323 0.640060
vt 0.881858 0.639967
vt 0.888821 0.640039
vt 0.893824 0.640746
vt 0.950393 0.432442
vt 0.951984 0.432442
vt 0.951984 0.632248
vt 0.950393 0.632248
vt 0.958387 0.432442
vt 0.959978 0.432442
vt 0.959978 0.632237
vt 0.958387 0.632237
vt 0.936997 0.629625
vt 0.936081 0.629484
vt 0.933457 0.629637
vt 0.932860 0.630062
vt 0.937590 0.630049
vt 0.932092 0.629776
vt 0.990418 0.706442
vt 0.989374 0.706293
vt 0.986794 0.706944
vt 0.990963 0.706843
vt 0.985571 0.706893
vt 0.981180 0.495604
vn -0.012848 0.885318 0.464808
vn 0.945302 0.294155 0.140985
vn 0.945735 0.295250 0.135693
vn -0.009746 0.888658 0.458467
vn 0.600773 -0.686166 -0.410181
vn 0.600040 -0.688717 -0.406966
vn -0.577543 -0.697030 -0.424964
vn -0.579426 -0.699925 -0.417576
vn -0.953428 0.277700 0.117722
vn -0.952425 0.280005 0.120348
vn 0.948172 0.293809 0.121019
vn -0.003285 0.900477 0.434891
vn 0.592187 -0.703208 -0.393463
vn -0.587311 -0.706694 -0.394525
vn -0.950197 0.287955 0.119200
vn 0.950599 0.288515 0.114542
vn -0.000002 0.905481 0.424388
vn 0.587193 -0.710774 -0.387304
vn -0.587197 -0.710769 -0.387308
vn -0.950619 0.288457 0.114522
vn 0.946737 0.301928 0.111933
vn -0.000004 0.916153 0.400828
vn 0.592496 -0.717615 -0.366029
vn -0.592501 -0.717610 -0.366030
vn -0.946756 0.301873 0.111915
vn 0.943521 0.319177 0.088850
vn 0.000001 0.945631 0.325242
vn 0.594252 -0.744476 -0.304335
vn -0.594276 -0.744456 -0.304337
vn -0.943526 0.319165 0.088837
vn -0.015529 0.875332 0.483272
vn 0.946861 0.279932 0.158404
vn 0.596787 -0.700773 -0.390848
vn -0.577096 -0.709574 -0.404308
vn -0.955631 0.262038 0.134554
vn 0.115889 -0.443190 0.888905
vn -0.003631 -0.365292 0.930886
vn -0.076733 -0.570667 0.817589
vn 0.073117 -0.566101 0.821087
vn -0.137306 -0.439938 0.887469
vn -0.008947 0.045017 0.998946
vn 0.492961 -0.263410 0.829219
vn 0.312662 -0.778885 0.543673
vn -0.304487 -0.785336 0.539014
vn -0.500169 -0.274851 0.821150
vn -0.001332 0.523665 -0.851923
vn -0.000602 0.805334 -0.592821
vn 0.486062 0.493755 -0.721076
vn 0.114772 0.445802 -0.887743
vn -0.000006 0.968397 0.249414
vn 0.960319 0.276237 0.038468
vn -0.077117 0.314670 -0.946063
vn -0.312637 -0.056250 -0.948206
vn -0.482660 0.493789 -0.723334
vn -0.132974 0.450722 -0.882705
vn -0.559960 -0.778864 -0.282518
vn -0.960315 0.276272 0.038337
vn 0.559936 -0.778923 -0.282402
vn 0.072928 0.317954 -0.945297
vn 0.313538 -0.059141 -0.947732
vn 0.000000 -0.015217 0.999884
vn -0.865794 -0.017937 0.500080
vn -0.826875 -0.187121 0.530343
vn 0.000003 -0.231070 0.972937
vn -0.865909 -0.023384 -0.499654
vn -0.905555 0.052821 -0.420927
vn 0.000000 -0.026116 -0.999659
vn -0.000000 0.260620 -0.965441
vn 0.865877 -0.023402 -0.499709
vn 0.905526 0.052894 -0.420980
vn 0.865762 -0.017949 0.500134
vn 0.826833 -0.187133 0.530404
vn -0.857873 -0.338229 0.386854
vn -0.000004 -0.620268 0.784390
vn -0.804798 0.357196 -0.474037
vn -0.000002 0.633540 -0.773710
vn 0.804728 0.357302 -0.474077
vn 0.857828 -0.338268 0.386918
vn -0.914608 -0.089193 0.394381
vn -0.000007 -0.181995 0.983299
vn -0.794263 0.087495 -0.601242
vn -0.000003 0.164819 -0.986324
vn 0.794214 0.087455 -0.601312
vn 0.914573 -0.089266 0.394447
vn -0.927235 0.165371 0.335987
vn -0.000009 0.478496 0.878090
vn -0.781706 -0.330066 -0.529143
vn -0.000004 -0.512229 -0.858849
vn 0.781658 -0.330080 -0.529205
vn 0.927222 0.165319 0.336051
vn -0.926038 0.355435 0.126965
vn -0.000013 0.947802 0.318860
vn -0.777497 -0.605525 -0.169818
vn 0.000003 -0.963673 -0.267086
vn 0.777465 -0.605564 -0.169826
vn 0.926040 0.355421 0.126989
vn -0.915510 0.362804 -0.173824
vn -0.000006 0.892652 -0.450746
vn -0.799742 -0.522087 0.296375
vn 0.000006 -0.871815 0.489835
vn 0.799698 -0.522130 0.296417
vn 0.915484 0.362849 -0.173864
vn -0.913470 0.237199 -0.330620
vn -0.000010 0.564841 -0.825200
vn -0.805433 -0.307311 0.506792
vn -0.000011 -0.523557 0.851991
vn 0.805382 -0.307318 0.506869
vn 0.913434 0.237231 -0.330697
vn -0.192543 0.981122 -0.018102
vn -0.661461 0.688906 -0.296442
vn -0.665155 0.580945 0.469118
vn -0.248444 0.938036 0.241588
vn -0.881338 0.147787 -0.448778
vn -0.838701 -0.045256 0.542709
vn 0.181590 0.963269 0.197835
vn 0.665148 0.580795 0.469314
vn 0.661694 0.688623 -0.296579
vn 0.246405 0.968116 -0.045135
vn 0.838639 -0.045346 0.542797
vn 0.881281 0.147798 -0.448887
vn -0.000017 0.245784 -0.969325
vn -0.000002 -0.134507 0.990913
vn -0.000018 0.991239 -0.132082
vn 0.000005 0.953718 0.300702
vn 0.000007 0.737944 -0.674862
vn -0.000006 0.526398 0.850238
vn 0.321954 -0.765103 -0.557641
vn -0.321957 -0.765092 -0.557654
vn -0.452520 -0.425324 -0.783789
vn 0.452521 -0.425324 -0.783789
vn -0.643931 -0.765084 0.000003
vn -0.905035 -0.425338 0.000000
vn -0.321965 -0.765086 0.557657
vn -0.452521 -0.425327 0.783787
vn 0.321957 -0.765102 0.557641
vn 0.452522 -0.425324 0.783788
vn 0.643900 -0.765109 0.000000
vn 0.905037 -0.425334 0.000000
vn -0.500000 -0.000001 -0.866025
vn 0.500000 -0.000000 -0.866025
vn -1.000000 -0.000011 0.000000
vn -0.500000 -0.000011 0.866025
vn 0.500000 -0.000000 0.866025
vn 1.000000 -0.000000 -0.000000
vn -0.452520 0.425326 -0.783788
vn 0.452521 0.425324 -0.783789
vn -0.905038 0.425332 0.000001
vn -0.452523 0.425319 0.783790
vn 0.452522 0.425323 0.783788
vn 0.905037 0.425334 -0.000000
vn -0.321959 0.765091 -0.557653
vn 0.321954 0.765102 -0.557642
vn -0.643925 0.765089 0.000000
vn -0.321961 0.765091 0.557653
vn 0.321956 0.765101 0.557642
vn 0.643900 0.765110 -0.000000
vn -0.000003 -1.000000 -0.000000
vn -0.000003 1.000000 0.000000
vn 0.707123 0.000000 0.707091
vn 0.707123 0.000000 0.707091
vn 0.707123 0.000000 0.707091
vn 0.707123 0.000000 0.707091
vn -0.866026 0.000000 0.499999
vn -0.866026 0.000000 0.499999
vn -0.866026 0.000000 0.499999
vn -0.866026 0.000000 0.499999
s 1
g FishingRod
usemtl lambert4SG
f 1/28/1 2/30/2 7/3/3 6/2/4
f 2/30/2 3/32/5 8/4/6 7/3/3
f 3/32/5 4/34/7 9/5/8 8/4/6
f 4/34/7 5/36/9 10/6/10 9/5/8
f 5/36/9 1/1/1 6/7/4 10/6/10
f 6/2/4 7/3/3 12/9/11 11/8/12
f 7/3/3 8/4/6 13/10/13 12/9/11
f 8/4/6 9/5/8 14/11/14 13/10/13
f 9/5/8 10/6/10 15/12/15 14/11/14
f 10/6/10 6/7/4 11/13/12 15/12/15
f 11/8/12 12/9/11 17/15/16 16/14/17
f 12/9/11 13/10/13 18/16/18 17/15/16
f 13/10/13 14/11/14 19/17/19 18/16/18
f 14/11/14 15/12/15 20/18/20 19/17/19
f 15/12/15 11/13/12 16/19/17 20/18/20
f 16/14/17 17/15/16 22/21/21 21/20/22
f 17/15/16 18/16/18 23/22/23 22/21/21
f 18/16/18 19/17/19 24/23/24 23/22/23
f 19/17/19 20/18/20 25/24/25 24/23/24
f 20/18/20 16/19/17 21/25/22 25/24/25
f 21/20/22 22/21/21 27/52/26 26/26/27
f 22/21/21 23/22/23 28/54/28 27/52/26
f 23/22/23 24/23/24 29/56/29 28/54/28
f 24/23/24 25/24/25 30/58/30 29/56/29
f 25/24/25 21/25/22 26/60/27 30/58/30
f 31/39/31 34/27/32 2/30/2 1/28/1
f 34/27/32 37/29/33 3/32/5 2/30/2
f 37/29/33 40/31/34 4/34/7 3/32/5
f 40/31/34 43/33/35 5/36/9 4/34/7
f 43/33/35 31/35/31 1/1/1 5/36/9
f 36/40/36 33/37/37 42/42/38 39/41/39
f 45/43/40 42/38/38 33/44/37
f 31/39/31 32/46/41 35/47/42 34/27/32
f 32/46/41 33/37/37 36/40/36 35/47/42
f 34/27/32 35/47/42 38/48/43 37/29/33
f 35/47/42 36/40/36 39/41/39 38/48/43
f 37/29/33 38/48/43 41/213/44 40/31/34
f 38/48/43 39/41/39 42/42/38 41/213/44
f 40/31/34 41/49/44 44/50/45 43/33/35
f 41/49/44 42/38/38 45/43/40 44/50/45
f 33/44/37 32/45/41 44/50/45 45/43/40
f 32/45/41 31/35/31 43/33/35 44/50/45
f 48/210/46 47/212/47 50/68/48 49/62/49
f 47/212/47 46/53/50 51/55/51 50/68/48
f 57/209/52 56/70/53 59/71/54 58/208/55
f 56/70/53 55/59/56 60/61/57 59/71/54
f 26/26/27 27/52/26 51/55/51 46/53/50
f 27/52/26 28/54/28 54/57/58 51/55/51
f 28/54/28 29/56/29 55/59/56 54/57/58
f 29/56/29 30/58/30 60/61/57 55/59/56
f 30/58/30 26/60/27 46/66/50 60/61/57
f 48/65/46 49/62/49 52/63/59 57/64/52
f 57/64/52 58/51/55 48/65/46
f 49/62/49 50/68/48 53/69/60 52/63/59
f 50/68/48 51/55/51 54/57/58 53/69/60
f 52/63/59 53/69/60 56/70/53 57/209/52
f 53/69/60 54/57/58 55/59/56 56/70/53
f 46/66/50 47/67/47 59/71/54 60/61/57
f 47/67/47 48/211/46 58/208/55 59/71/54
s 5
f 61/72/61 62/73/62 68/74/63 67/75/64
f 62/73/62 63/76/65 69/77/66 68/74/63
f 63/76/65 64/78/67 70/79/68 69/77/66
f 64/78/67 65/80/69 71/81/70 70/79/68
f 65/80/69 66/82/71 72/83/72 71/81/70
f 66/82/71 61/84/61 67/85/64 72/83/72
f 67/75/64 68/74/63 74/86/73 73/87/74
f 68/74/63 69/77/66 75/88/75 74/86/73
f 69/77/66 70/79/68 76/89/76 75/88/75
f 70/79/68 71/81/70 77/90/77 76/89/76
f 71/81/70 72/83/72 78/91/78 77/90/77
f 72/83/72 67/85/64 73/92/74 78/91/78
f 73/87/74 74/86/73 80/93/79 79/94/80
f 74/86/73 75/88/75 81/95/81 80/93/79
f 75/88/75 76/89/76 82/96/82 81/95/81
f 76/89/76 77/90/77 83/97/83 82/96/82
f 77/90/77 78/91/78 84/98/84 83/97/83
f 78/91/78 73/92/74 79/99/80 84/98/84
f 79/94/80 80/93/79 86/100/85 85/101/86
f 80/93/79 81/95/81 87/102/87 86/100/85
f 81/95/81 82/96/82 88/103/88 87/102/87
f 82/96/82 83/97/83 89/104/89 88/103/88
f 83/97/83 84/98/84 90/105/90 89/104/89
f 84/98/84 79/99/80 85/106/86 90/105/90
f 85/101/86 86/100/85 92/107/91 91/108/92
f 86/100/85 87/102/87 93/109/93 92/107/91
f 87/102/87 88/103/88 94/110/94 93/109/93
f 88/103/88 89/104/89 95/111/95 94/110/94
f 89/104/89 90/105/90 96/112/96 95/111/95
f 90/105/90 85/106/86 91/113/92 96/112/96
f 91/108/92 92/107/91 98/114/97 97/115/98
f 92/107/91 93/109/93 99/116/99 98/114/97
f 93/109/93 94/110/94 100/117/100 99/116/99
f 94/110/94 95/111/95 101/118/101 100/117/100
f 95/111/95 96/112/96 102/119/102 101/118/101
f 96/112/96 91/113/92 97/120/98 102/119/102
f 97/115/98 98/114/97 104/121/103 103/122/104
f 98/114/97 99/116/99 105/123/105 104/121/103
f 99/116/99 100/117/100 106/124/106 105/123/105
f 100/117/100 101/118/101 107/125/107 106/124/106
f 101/118/101 102/119/102 108/126/108 107/125/107
f 102/119/102 97/120/98 103/127/104 108/126/108
f 114/204/109 113/129/110 116/130/111 115/131/112
f 113/129/110 112/132/113 117/133/114 116/130/111
f 123/203/115 122/135/116 125/136/117 124/202/118
f 122/135/116 121/138/119 126/139/120 125/136/117
f 103/122/104 104/121/103 112/132/113 109/140/121
f 104/121/103 105/123/105 117/133/114 112/132/113
f 105/123/105 106/124/106 118/141/122 117/133/114
f 106/124/106 107/125/107 121/138/119 118/141/122
f 107/125/107 108/126/108 126/139/120 121/138/119
f 108/126/108 103/127/104 109/142/121 126/139/120
f 111/143/123 114/128/109 120/144/124 123/134/115
f 123/134/115 124/137/118 111/143/123
f 114/128/109 115/131/112 120/144/124
f 111/205/123 110/207/125 113/129/110 114/204/109
f 110/207/125 109/140/121 112/132/113 113/129/110
f 115/131/112 116/130/111 119/146/126 120/144/124
f 116/130/111 117/133/114 118/141/122 119/146/126
f 120/144/124 119/146/126 122/135/116 123/203/115
f 119/146/126 118/141/122 121/138/119 122/135/116
f 109/142/121 110/145/125 125/136/117 126/139/120
f 110/145/125 111/206/123 124/202/118 125/136/117
s 8
f 127/147/127 128/148/128 134/149/129 133/150/130
f 128/148/128 129/151/131 135/152/132 134/149/129
f 129/151/131 130/153/133 136/154/134 135/152/132
f 130/153/133 131/155/135 137/156/136 136/154/134
f 131/155/135 132/157/137 138/158/138 137/156/136
f 132/157/137 127/159/127 133/160/130 138/158/138
f 133/150/130 134/149/129 140/161/139 139/162/140
f 134/149/129 135/152/132 141/163/141 140/161/139
f 135/152/132 136/154/134 142/164/142 141/163/141
f 136/154/134 137/156/136 143/165/143 142/164/142
f 137/156/136 138/158/138 144/166/144 143/165/143
f 138/158/138 133/160/130 139/167/140 144/166/144
f 139/162/140 140/161/139 146/168/145 145/169/146
f 140/161/139 141/163/141 147/170/147 146/168/145
f 141/163/141 142/164/142 148/171/148 147/170/147
f 142/164/142 143/165/143 149/172/149 148/171/148
f 143/165/143 144/166/144 150/173/150 149/172/149
f 144/166/144 139/167/140 145/174/146 150/173/150
f 145/169/146 146/168/145 152/175/151 151/176/152
f 146/168/145 147/170/147 153/177/153 152/175/151
f 147/170/147 148/171/148 154/178/154 153/177/153
f 148/171/148 149/172/149 155/179/155 154/178/154
f 149/172/149 150/173/150 156/180/156 155/179/155
f 150/173/150 145/174/146 151/181/152 156/180/156
f 128/148/128 127/147/127 157/182/157
f 129/151/131 128/148/128 157/183/157
f 130/153/133 129/151/131 157/184/157
f 131/155/135 130/153/133 157/185/157
f 132/157/137 131/155/135 157/186/157
f 127/159/127 132/157/137 157/187/157
f 151/176/152 152/175/151 158/188/158
f 152/175/151 153/177/153 158/189/158
f 153/177/153 154/178/154 158/190/158
f 154/178/154 155/179/155 158/191/158
f 155/179/155 156/180/156 158/192/158
f 156/180/156 151/181/152 158/193/158
s off
f 159/194/159 160/195/160 162/196/161 161/197/162
f 163/198/163 164/199/164 166/200/165 165/201/166
