# This file uses centimeters as units for non-parametric coordinates.

mtllib RiverUpdate.mtl
g default
v 0.000000 -0.055130 2.295000
v -0.239259 -0.055130 1.151096
v 0.000000 -0.055130 0.667623
v 0.317659 -0.055130 0.045000
v 0.608052 -0.055130 -1.031959
v 0.466482 -0.055130 -2.124964
v -0.000000 -0.055130 -2.572336
v 0.154948 -0.055130 -3.301412
v 0.902528 -0.055130 -3.461064
v 1.750294 -0.055130 -3.794322
v 2.010828 -0.055130 -3.958116
v 0.630909 -0.055130 -4.392861
v -0.000000 -0.055130 -4.240799
v -0.897040 -0.055130 -3.663334
v -1.103279 -0.055130 -3.126447
v -1.101388 -0.055130 -2.016032
v -0.985003 -0.055130 -1.726922
v -0.702239 -0.055130 -1.024517
v -1.100450 -0.055130 -0.265725
v -1.263517 -0.055130 0.045000
v -1.380898 -0.055130 1.060897
v -1.622740 -0.055130 2.016582
v -0.918742 -0.055130 3.068831
v 0.000000 -0.055130 3.420000
v 0.906014 -0.055130 3.422579
v 1.811871 -0.055130 3.190111
v 2.702952 -0.055130 2.963195
v 3.647278 -0.055130 2.660014
v 3.998152 -0.055130 2.065116
v 2.917049 -0.055130 2.250261
v 1.871009 -0.055130 2.523400
v 0.940181 -0.055130 2.584036
v -0.006679 -0.055130 2.263067
vt 0.419527 0.947999
vt 0.671580 0.128173
vt 0.210870 0.148400
vt 0.172780 0.290409
vt 0.199438 0.352820
vt 0.234966 0.433261
vt 0.263877 0.570581
vt 0.238415 0.706882
vt 0.176676 0.759800
vt 0.191018 0.852470
vt 0.283802 0.877777
vt 0.387951 0.925594
vt 0.243137 0.992914
vt 0.164955 0.969381
vt 0.056332 0.890542
vt 0.034198 0.821653
vt 0.042236 0.682184
vt 0.058886 0.646686
vt 0.099340 0.560441
vt 0.054650 0.462330
vt 0.036350 0.422153
vt 0.028742 0.293718
vt 0.005077 0.171973
vt 0.100901 0.044743
vt 0.218774 0.007086
vt 0.332599 0.013127
vt 0.444753 0.048692
vt 0.555090 0.083455
vt 0.711475 0.205365
vt 0.576975 0.174513
vt 0.447498 0.132855
vt 0.331000 0.118699
vt 0.209807 0.152365
vn 0.000000 1.000000 0.000000
vn 0.000000 1.000000 0.000000
vn 0.000000 1.000000 0.000000
vn 0.000000 1.000000 0.000000
vn 0.000000 1.000000 0.000000
vn 0.000000 1.000000 0.000000
vn 0.000000 1.000000 0.000000
vn 0.000000 1.000000 0.000000
vn 0.000000 1.000000 0.000000
vn 0.000000 1.000000 0.000000
vn 0.000000 1.000000 0.000000
vn 0.000000 1.000000 0.000000
vn 0.000000 1.000000 -0.000000
vn 0.000000 1.000000 0.000000
vn 0.000000 1.000000 -0.000000
vn 0.000000 1.000000 0.000000
vn 0.000000 1.000000 -0.000000
vn 0.000000 1.000000 -0.000000
vn 0.000000 1.000000 -0.000000
vn 0.000000 1.000000 -0.000000
vn 0.000000 1.000000 -0.000000
vn 0.000000 1.000000 0.000000
vn 0.000000 1.000000 0.000000
vn 0.000000 1.000000 0.000000
vn 0.000000 1.000000 0.000000
vn 0.000000 1.000000 -0.000000
vn 0.000000 1.000000 -0.000000
vn 0.000000 1.000000 0.000000
vn 0.000000 1.000000 0.000000
vn 0.000000 1.000000 -0.000000
vn 0.000000 1.000000 -0.000000
vn 0.000000 1.000000 -0.000000
vn 0.000000 1.000000 -0.000000
s 1
g River
usemtl initialShadingGroup
f 31/31/1 26/27/2 27/28/3 30/30/4
f 30/30/4 27/28/3 28/2/5 29/29/6
f 1/3/7 24/25/8 25/26/9 32/32/10
f 32/32/10 25/26/9 26/27/2 31/31/1
f 1/3/7 33/33/11 23/24/12 24/25/8
f 23/24/12 33/33/11 2/4/13 22/23/14
f 22/23/14 2/4/13 21/22/15
f 19/20/16 4/6/17 5/7/18 18/19/19
f 21/22/15 2/4/13 3/5/20 20/21/21
f 15/16/22 8/10/23 9/11/24 14/15/25
f 20/21/21 4/6/17 19/20/16
f 18/19/19 5/7/18 6/8/26 17/18/27
f 17/18/27 6/8/26 7/9/28 16/17/29
f 16/17/29 7/9/28 8/10/23 15/16/22
f 13/14/30 10/12/31 11/1/32 12/13/33
f 14/15/25 9/11/24 10/12/31 13/14/30
f 20/21/21 3/5/20 4/6/17
