# This file uses centimeters as units for non-parametric coordinates.

mtllib smollMushroom2.mtl
g default
v -0.001307 0.039546 -0.008236
v -0.002210 0.026383 -0.009654
v -0.000762 0.012015 -0.009957
v -0.001260 0.051160 -0.007223
v -0.012542 0.011689 -0.000939
v 0.003650 0.052009 0.000498
v 0.005947 0.039897 0.000588
v 0.006044 0.026580 -0.000509
v 0.008006 0.013128 0.000164
v -0.011110 0.026237 -0.000585
v -0.009501 0.039358 -0.001417
v 0.000751 0.012216 0.008971
v -0.002203 0.026182 0.008499
v -0.002847 0.039479 0.006446
v -0.003833 0.052194 0.006801
v -0.009432 0.051612 -0.001027
v 0.003395 0.061633 -0.000923
v 0.012457 0.000678 -0.000889
v -0.012752 0.000678 -0.000380
v 0.000022 0.059831 -0.006404
v -0.006876 0.060845 -0.003204
v -0.002760 0.062627 0.004616
v 0.000025 0.000678 -0.011764
v 0.000786 0.000678 0.012216
v 0.018436 0.035399 0.002435
v 0.011810 0.029238 -0.001550
v 0.012464 0.029066 0.001432
v 0.017061 0.036693 0.003299
v 0.010944 0.032692 0.001740
v 0.017568 0.035890 0.001459
v 0.016542 0.036594 0.001337
v 0.010669 0.033146 -0.001020
v 0.001390 0.030284 -0.000953
v 0.001606 0.029604 0.001325
v 0.002906 0.025385 -0.001052
v 0.002834 0.026183 0.000351
v 0.025415 0.037478 -0.002879
v 0.026452 0.043823 -0.000481
v 0.024419 0.036765 0.008626
v 0.018982 0.047215 -0.000909
v 0.026686 0.035809 0.002994
v 0.018094 0.035413 -0.006913
v 0.019851 0.040036 -0.005507
v 0.014809 0.043052 -0.003111
v 0.012723 0.043411 0.002408
v 0.023432 0.047487 0.003808
v 0.018151 0.046726 0.006790
v 0.018776 0.039342 0.010361
v 0.014147 0.042707 0.007952
v 0.009770 0.038082 0.002608
v 0.025283 0.042974 0.007807
v 0.024412 0.029635 0.001548
v 0.015527 0.033606 0.009954
v 0.010457 0.039652 -0.003238
v 0.027793 0.041094 0.003601
v 0.016184 0.046776 0.002740
v 0.020824 0.043549 0.009592
v 0.022256 0.044808 -0.003693
v 0.022311 0.031637 -0.003506
v 0.010504 0.037069 0.008050
v 0.020544 0.028985 0.007095
v -0.001111 0.076660 -0.010960
v 0.009288 0.067696 -0.017075
v -0.011345 0.068236 -0.017523
v -0.021168 0.069380 -0.004818
v -0.017698 0.067717 0.009763
v -0.005668 0.075990 0.008726
v 0.016892 0.067343 -0.005513
v 0.020628 0.053266 0.004603
v 0.020155 0.053266 -0.007710
v 0.000580 0.068547 0.019404
v 0.012686 0.067939 0.012543
v 0.011545 0.053266 -0.018879
v -0.001193 0.053266 -0.023289
v -0.014273 0.053266 -0.020291
v -0.024262 0.053266 -0.005465
v 0.008650 0.076591 0.001990
v -0.021766 0.053266 0.010558
v -0.011511 0.053266 0.020668
v 0.002235 0.053266 0.022235
v 0.014454 0.053266 0.015430
v 0.020184 0.064042 0.004563
v -0.010878 0.064555 0.019561
v -0.000873 0.063697 -0.020782
v -0.011045 0.076285 -0.002381
v -0.002075 0.053266 -0.000593
v 0.017577 0.036054 0.002350
vt 0.452995 0.256283
vt 0.645448 0.255247
vt 0.665340 0.175882
vt 0.738190 0.197289
vt 0.462373 0.325848
vt 0.632746 0.328411
vt 0.517808 0.245800
vt 0.522052 0.318176
vt 0.515569 0.166350
vt 0.680366 0.092345
vt 0.759618 0.116359
vt 0.507143 0.079962
vt 0.707330 0.014771
vt 0.792932 0.057544
vt 0.500427 0.014945
vt 0.470013 0.380048
vt 0.624581 0.387681
vt 0.517110 0.377045
vt 0.609676 0.076958
vt 0.592415 0.163331
vt 0.607652 0.003948
vt 0.573620 0.384919
vt 0.576241 0.322208
vt 0.582472 0.245136
vt 0.950227 0.065425
vt 0.966556 0.059938
vt 0.961960 0.112420
vt 0.953140 0.114791
vt 0.928085 0.069878
vt 0.940155 0.115778
vt 0.927741 0.112841
vt 0.910987 0.069759
vt 0.959055 0.004166
vt 0.992250 0.005581
vt 0.948762 0.006552
vt 0.925529 0.008223
vt 0.896302 0.472207
vt 0.897852 0.034030
vt 0.870128 0.004020
vt 0.933706 0.482513
vt 0.860052 0.474191
vt 0.905117 0.069911
vt 0.892064 0.512359
vt 0.868720 0.503418
vt 0.920237 0.514062
vt 0.929329 0.540110
vt 0.879687 0.552583
vt 0.852103 0.522246
vt 0.829974 0.492945
vt 0.878481 0.102666
vt 0.808960 0.522654
vt 0.833316 0.102974
vt 0.832861 0.535733
vt 0.838022 0.584724
vt 0.838957 0.560310
vt 0.964141 0.509094
vt 0.808308 0.592022
vt 0.812635 0.011106
vt 0.802227 0.046729
vt 0.800949 0.080916
vt 0.804071 0.558652
vt 0.211219 0.286523
vt 0.272814 0.204483
vt 0.346161 0.235194
vt 0.319837 0.313417
vt 0.167403 0.217370
vt 0.202248 0.158729
vt 0.109914 0.290453
vt 0.100618 0.200170
vt 0.122223 0.355753
vt 0.969115 0.382319
vt 0.996237 0.300899
vt 0.975114 0.221571
vt 0.915427 0.165869
vt 0.806660 0.165864
vt 0.130177 0.122106
vt 0.734233 0.232980
vt 0.177163 0.067003
vt 0.241164 0.091226
vt 0.718247 0.319214
vt 0.309838 0.129122
vt 0.362515 0.167827
vt 0.908641 0.426612
vt 0.833085 0.432358
vt 0.757178 0.393935
vt 0.857592 0.294464
vt 0.850175 0.056184
vt 0.160842 0.008260
vt 0.272830 0.003924
vt 0.363165 0.060898
vt 0.416294 0.142312
vt 0.434314 0.232513
vt 0.063269 0.067531
vt 0.003921 0.176353
vt 0.064748 0.387575
vt 0.019189 0.305906
vt 0.418878 0.325910
vt 0.764311 0.550887
vt 0.774996 0.503323
vt 0.769174 0.591544
vt 0.992109 0.489088
vt 0.941783 0.450376
vt 0.801532 0.453944
vt 0.849512 0.436425
vt 0.894494 0.432920
vt 0.910937 0.008504
vt 0.987783 0.068340
vt 0.969766 0.111635
vt 0.397828 0.029326
vt 0.687505 0.338646
vt 0.664957 0.387411
vt 0.418637 0.095523
vt 0.439764 0.179144
vt 0.711200 0.270835
vt 0.121508 0.454440
vt 0.186796 0.385834
vt 0.787585 0.629415
vt 0.824867 0.624899
vt 0.861448 0.598486
vn 0.106665 0.093105 -0.989926
vn 0.989720 0.085648 0.114534
vn 0.993084 0.113527 -0.029942
vn -0.002663 0.075017 -0.997179
vn 0.119166 0.069264 -0.990455
vn 0.968634 0.088516 0.232192
vn -0.992336 0.073477 -0.099346
vn -0.992381 0.092824 -0.081018
vn -0.998685 0.047262 0.019875
vn 0.973094 0.229501 -0.020414
vn 0.034914 0.125982 -0.991418
vn -0.997920 0.057908 0.028330
vn 0.953477 0.291315 -0.077575
vn 0.068413 0.180716 -0.981153
vn -0.988086 0.129538 0.083107
vn 0.275363 -0.015567 -0.961214
vn 0.954280 0.047725 0.295080
vn -0.953028 0.221446 -0.206638
vn 0.032967 0.162459 0.986165
vn -0.093580 0.078819 0.992487
vn 0.008155 0.224955 0.974335
vn -0.101319 0.280716 0.954428
vn -0.172796 0.125750 0.976897
vn -0.089563 0.065659 0.993815
vn 0.326811 -0.612612 0.719654
vn 0.266407 -0.344498 -0.900194
vn 0.618612 -0.251965 -0.744199
vn 0.450568 -0.563306 0.692585
vn -0.233039 0.300779 0.924784
vn -0.246185 0.137517 0.959418
vn -0.184524 0.737457 -0.649699
vn -0.154963 0.577239 -0.801737
vn 0.107285 -0.381622 -0.918071
vn -0.208984 0.547193 -0.810497
vn 0.147080 -0.590300 0.793671
vn -0.179359 0.357440 0.916552
vn 0.764197 -0.098563 -0.637408
vn 0.740416 -0.216555 -0.636309
vn 0.185649 0.135504 -0.973228
vn 0.157591 0.250551 -0.955191
vn 0.943381 -0.316074 0.100650
vn 0.898753 -0.427210 0.098666
vn 0.806265 0.431191 -0.404983
vn 0.986903 0.109802 0.118179
vn 0.304366 0.547404 -0.779558
vn -0.108305 0.884961 -0.452896
vn 0.437021 0.889039 0.136464
vn 0.685460 0.345435 0.640951
vn 0.593914 -0.257696 0.762142
vn 0.556143 -0.378866 0.739706
vn 0.018392 0.030362 0.999370
vn 0.016703 -0.094919 0.995345
vn 0.138965 0.429272 0.892420
vn -0.485753 0.874092 -0.002821
vn -0.193757 0.825510 0.530086
vn -0.450872 0.578903 -0.679402
vn -0.756879 0.652999 0.026944
vn -0.599742 0.582663 -0.548464
vn -0.817007 0.567890 0.099998
vn -0.607704 0.353631 0.711085
vn -0.573088 0.461390 0.677266
vn 0.062797 0.909826 -0.410210
vn 0.390106 0.917323 0.079603
vn 0.784871 0.542891 -0.298741
vn 0.511052 0.530752 -0.676112
vn -0.360793 0.930798 -0.058680
vn -0.138087 0.918204 0.371260
vn -0.490687 0.491837 -0.719252
vn -0.843872 0.498493 -0.198457
vn 0.040046 0.366107 -0.929711
vn 0.889079 0.208719 -0.407399
vn 0.618916 0.223878 -0.752875
vn 0.033553 0.212987 -0.976479
vn -0.616073 0.232041 -0.752736
vn -0.944275 0.239595 -0.225697
vn -0.759424 0.494444 0.422847
vn -0.895668 0.214791 0.389416
vn -0.419504 0.390277 0.819573
vn 0.148787 0.555765 0.817917
vn -0.439300 0.175145 0.881102
vn 0.576280 0.546070 0.608037
vn 0.905727 0.366312 0.213247
vn 0.959560 0.157310 0.233450
vn 0.629220 0.189346 0.753811
vn 0.256381 0.194082 0.946890
vn 0.000000 -1.000000 0.000000
vn 0.000000 -1.000000 0.000000
vn 0.000000 -1.000000 -0.000000
vn 0.000000 -1.000000 0.000000
vn 0.000000 -1.000000 -0.000000
vn 0.000000 -1.000000 0.000000
vn 0.000000 -1.000000 -0.000000
vn 0.000000 -1.000000 -0.000000
vn 0.000000 -1.000000 0.000000
vn 0.000000 -1.000000 0.000000
vn 0.000000 -1.000000 -0.000000
vn -0.560751 -0.827576 0.025997
vn -0.678913 -0.734201 0.005032
vn -0.552830 -0.809612 -0.197250
vn -0.673976 -0.682173 -0.283542
vn -0.675146 -0.585007 -0.449383
vn -0.593877 -0.705275 -0.387166
vn -0.395622 -0.914490 -0.084795
vn -0.252133 -0.943186 -0.216400
vn -0.348843 -0.896472 -0.273214
s 1
g mushroom_Smoll:mushroom_Smoll
usemtl lambert3SG
f 1/114/1 7/2/2 8/3/3 2/4/4
f 1/114/1 4/110/5 6/6/6 7/2/2
f 1/1/1 11/7/7 16/8/8 4/5/5
f 1/1/1 2/113/4 10/9/9 11/7/7
f 2/4/4 8/3/3 9/10/10 3/11/11
f 2/113/4 3/112/11 5/12/12 10/9/9
f 3/11/11 9/10/10 18/13/13 23/14/14
f 3/112/11 23/109/14 19/15/15 5/12/12
f 4/110/5 20/111/16 17/17/17 6/6/6
f 4/5/5 16/8/8 21/18/18 20/16/16
f 5/12/12 12/19/19 13/20/20 10/9/9
f 5/12/12 19/15/15 24/21/21 12/19/19
f 6/6/6 17/17/17 22/22/22 15/23/23
f 6/6/6 15/23/23 14/24/24 7/2/2
f 7/2/2 14/24/24 13/20/20 8/3/3
f 8/3/3 13/20/20 12/19/19 9/10/10
f 9/10/10 12/19/19 24/21/21 18/13/13
f 10/9/9 13/20/20 14/24/24 11/7/7
f 11/7/7 14/24/24 15/23/23 16/8/8
f 15/23/23 22/22/22 21/18/18 16/8/8
s 2
f 27/25/25 26/26/26 30/27/27 25/28/28
f 29/29/29 27/25/25 25/28/28 28/30/30
f 31/108/31 30/27/27 26/26/26 32/107/32
f 26/26/26 35/33/33 33/34/34 32/107/32
f 26/26/26 27/25/25 36/35/35 35/33/33
f 27/25/25 29/29/29 34/36/36 36/35/35
f 29/29/29 28/30/30 31/31/31 32/32/32
f 29/29/29 32/32/32 33/106/34 34/36/36
s 3
f 37/37/37 59/105/38 42/102/39 43/40/40
f 37/37/37 41/41/41 52/104/42 59/105/38
f 37/37/37 38/43/43 55/44/44 41/41/41
f 37/37/37 43/40/40 58/45/45 38/43/43
f 38/43/43 58/45/45 40/46/46 46/47/47
f 38/43/43 46/47/47 51/48/48 55/44/44
f 39/49/49 41/41/41 55/44/44 51/48/48
f 39/49/49 61/103/50 52/104/42 41/41/41
f 39/49/49 48/51/51 53/99/52 61/103/50
f 39/49/49 51/48/48 57/53/53 48/51/51
f 40/119/46 56/54/54 47/55/55 46/47/47
f 40/119/46 44/118/56 45/57/57 56/54/54
f 40/46/46 58/45/45 43/40/40 44/56/56
f 42/102/39 54/101/58 44/56/56 43/40/40
f 44/118/56 54/117/58 50/100/59 45/57/57
f 45/57/57 50/100/59 60/98/60 49/61/61
f 45/57/57 49/61/61 47/55/55 56/54/54
f 46/47/47 47/55/55 57/53/53 51/48/48
f 47/55/55 49/61/61 48/51/51 57/53/53
f 48/51/51 49/61/61 60/98/60 53/99/52
s 4
f 62/62/62 77/63/63 68/64/64 63/65/65
f 62/62/62 85/66/66 67/67/67 77/63/63
f 62/62/62 64/68/68 65/69/69 85/66/66
f 62/62/62 63/116/65 84/70/70 64/68/68
f 63/65/65 68/64/64 70/92/71 73/97/72
f 63/116/65 73/115/72 74/95/73 84/70/70
f 64/68/68 75/96/74 76/94/75 65/69/69
f 64/68/68 84/70/70 74/95/73 75/96/74
f 65/69/69 66/76/76 67/67/67 85/66/66
f 65/69/69 76/94/75 78/93/77 66/76/76
f 66/76/76 83/78/78 71/79/79 67/67/67
f 66/76/76 78/93/77 79/88/80 83/78/78
f 67/67/67 71/79/79 72/81/81 77/63/63
f 68/64/64 77/63/63 72/81/81 82/82/82
f 68/64/64 82/82/82 69/91/83 70/92/71
f 69/91/83 82/82/82 72/81/81 81/90/84
f 71/79/79 80/89/85 81/90/84 72/81/81
f 71/79/79 83/78/78 79/88/80 80/89/85
s 5
f 73/72/86 70/71/87 86/86/88
f 74/73/89 73/72/86 86/86/88
f 76/75/90 75/74/91 86/86/88
f 75/74/91 74/73/89 86/86/88
f 78/77/92 76/75/90 86/86/88
f 79/80/93 78/77/92 86/86/88
f 70/71/87 69/83/94 86/86/88
f 69/83/94 81/84/95 86/86/88
f 81/84/95 80/85/96 86/86/88
f 80/85/96 79/80/93 86/86/88
s 6
f 42/39/97 59/38/98 87/87/99
f 59/38/98 52/42/100 87/87/99
f 52/42/100 61/50/101 87/87/99
f 61/50/101 53/52/102 87/87/99
f 54/58/103 42/39/97 87/87/99
f 50/59/104 54/58/103 87/87/99
f 60/60/105 50/59/104 87/87/99
f 53/52/102 60/60/105 87/87/99
