# This file uses centimeters as units for non-parametric coordinates.

mtllib acron_LP_model.mtl
g default
v -0.045613 0.029067 0.016412
v -0.015652 0.007031 0.016412
v -0.015652 0.015766 0.031029
v -0.015304 0.043736 0.054694
v -0.040545 0.043736 0.043482
v -0.051000 0.043736 0.016412
v 0.045613 0.029067 0.016412
v 0.051000 0.043736 0.016412
v 0.040545 0.043736 0.043482
v 0.015304 0.043736 0.054694
v 0.015651 0.015766 0.031029
v 0.015651 0.007031 0.016412
v -0.052739 0.082972 0.016412
v -0.041927 0.081350 0.043482
v -0.015825 0.082364 0.054694
v 0.015825 0.079324 0.054694
v 0.041927 0.078918 0.043482
v 0.052739 0.080337 0.016412
v -0.041927 0.081350 -0.043482
v -0.052739 0.082972 -0.016412
v -0.015825 0.082364 -0.054694
v 0.041927 0.078918 -0.043482
v 0.015825 0.079324 -0.054694
v 0.052739 0.080337 -0.016412
v -0.045613 0.029067 -0.016412
v -0.051000 0.043736 -0.016412
v -0.040545 0.043736 -0.043482
v -0.015304 0.043736 -0.054694
v -0.015652 0.015766 -0.031029
v -0.015652 0.007031 -0.016412
v 0.045613 0.029067 -0.016412
v 0.015651 0.007031 -0.016412
v 0.015651 0.015766 -0.031029
v 0.015304 0.043736 -0.054694
v 0.040545 0.043736 -0.043482
v 0.051000 0.043736 -0.016412
v -0.036722 0.030217 0.034694
v 0.036722 0.030217 0.034694
v -0.036722 0.030217 -0.034694
v 0.036722 0.030217 -0.034694
v 0.000000 0.015766 0.034419
v 0.000000 0.043736 0.054694
v 0.000000 0.081350 0.054694
v 0.000000 0.081350 -0.054694
v 0.000000 0.043736 -0.054694
v 0.000000 0.015766 -0.034419
v 0.000000 0.000000 -0.016412
v 0.000000 0.000000 0.016412
v -0.051753 0.092993 0.053082
v -0.062676 0.090300 0.020036
v -0.051753 0.092993 -0.053082
v -0.062676 0.090300 -0.020036
v -0.019534 0.094231 0.066770
v -0.019534 0.094231 -0.066770
v 0.000000 0.092993 0.066770
v 0.000000 0.092993 -0.066770
v 0.019534 0.090519 0.066770
v 0.019534 0.090519 -0.066770
v 0.051753 0.090024 0.053082
v 0.051753 0.090024 -0.053082
v 0.066137 0.091756 0.020036
v 0.066137 0.091756 -0.020036
v -0.042696 0.125246 0.044500
v -0.054733 0.123072 0.016796
v -0.042696 0.125246 -0.044500
v -0.054733 0.123072 -0.016796
v -0.016089 0.126483 0.055975
v -0.016089 0.126483 -0.055975
v 0.000042 0.125246 0.055975
v 0.000042 0.125246 -0.055975
v 0.016174 0.122772 0.055975
v 0.016174 0.122772 -0.055975
v 0.042780 0.122277 0.044500
v 0.042780 0.122277 -0.044500
v 0.058540 0.124009 0.016796
v 0.058540 0.124009 -0.016796
v -0.030069 0.138721 0.029078
v -0.039655 0.138271 0.010975
v -0.030069 0.138721 -0.029078
v -0.039655 0.138271 -0.010975
v -0.011369 0.142091 0.036576
v -0.011369 0.142091 -0.036576
v -0.000032 0.143214 0.036304
v -0.000032 0.143214 -0.036304
v 0.011306 0.143833 0.030101
v 0.011306 0.143833 -0.030101
v 0.030005 0.141524 0.022795
v 0.030005 0.141524 -0.022795
v 0.037751 0.141770 0.010975
v 0.037751 0.141770 -0.010975
v -0.048533 0.105895 0.053082
v -0.065029 0.098182 0.020036
v -0.065029 0.098182 -0.020036
v -0.048533 0.105895 -0.053082
v -0.018319 0.107132 -0.066770
v 0.000000 0.105895 -0.066770
v 0.018319 0.103420 -0.066770
v 0.048533 0.102925 -0.053082
v 0.068490 0.104657 -0.020036
v 0.068490 0.104657 0.020036
v 0.048533 0.102925 0.053082
v 0.018319 0.103420 0.066770
v 0.000000 0.105895 0.066770
v -0.018319 0.107132 0.066770
v 0.030005 0.144631 -0.010847
v 0.011306 0.149740 -0.005242
v -0.000032 0.148341 -0.005257
v -0.011369 0.146298 -0.010767
v -0.030069 0.142868 -0.010836
v 0.030005 0.144642 0.010810
v 0.011306 0.149740 0.005160
v -0.000032 0.148341 0.005180
v -0.011369 0.146298 0.010708
v -0.030069 0.142868 0.010797
v 0.012160 0.149703 -0.000000
v 0.009467 0.149271 -0.004725
v 0.001083 0.148407 -0.004725
v -0.001610 0.147974 0.000000
v 0.001083 0.148407 0.004725
v 0.009467 0.149271 0.004725
v 0.011275 0.164948 -0.000000
v 0.007923 0.164737 -0.005816
v 0.003689 0.164313 -0.005816
v 0.000337 0.164101 0.000000
v 0.003689 0.164313 0.005816
v 0.007923 0.164737 0.005816
v 0.010531 0.177345 -0.000000
v 0.007843 0.178713 -0.006140
v 0.004580 0.181448 -0.006908
v 0.002244 0.185283 0.000000
v 0.004580 0.181448 0.006908
v 0.007843 0.178713 0.006140
v 0.021142 0.183513 -0.000000
v 0.017928 0.188891 -0.007932
v 0.011500 0.195944 -0.007932
v 0.006876 0.197267 0.000000
v 0.011500 0.195944 0.007932
v 0.017928 0.188891 0.007932
v 0.032934 0.188050 -0.000000
v 0.029760 0.192132 -0.008956
v 0.026763 0.205761 -0.008956
v 0.023590 0.209844 0.000000
v 0.026763 0.205761 0.008956
v 0.029760 0.192132 0.008956
vt 0.524745 0.822911
vt 0.620875 0.749412
vt 0.685365 0.819508
vt 0.598061 0.907575
vt 0.656963 0.711725
vt 0.723391 0.786428
vt 0.504988 0.648967
vt 0.512432 0.767858
vt 0.462794 0.767481
vt 0.460728 0.649140
vt 0.473646 0.850963
vt 0.584227 0.664457
vt 0.237588 0.058404
vt 0.135858 0.150460
vt 0.362726 0.014219
vt 0.267704 0.716260
vt 0.302756 0.753983
vt 0.236861 0.823250
vt 0.197956 0.787919
vt 0.404021 0.835795
vt 0.316029 0.913210
vt 0.416701 0.651606
vt 0.338725 0.668056
vt 0.645379 0.050662
vt 0.519220 0.006915
vt 0.749574 0.140557
vt 0.065104 0.268813
vt 0.022269 0.389309
vt 0.765972 0.862954
vt 0.015730 0.503871
vt 0.778861 0.947738
vt 0.873875 0.503625
vt 0.868426 0.386225
vt 0.152709 0.863489
vt 0.136070 0.947239
vt 0.830712 0.261191
vt 0.653109 0.929768
vt 0.262838 0.987063
vt 0.349760 0.958046
vt 0.132887 0.996140
vt 0.441272 0.003916
vt 0.003918 0.558714
vt 0.574030 0.714894
vt 0.413198 0.774015
vt 0.349836 0.720146
vt 0.715097 0.871690
vt 0.203392 0.873480
vt 0.260271 0.933448
vt 0.304678 0.309700
vt 0.349508 0.271363
vt 0.336419 0.327642
vt 0.437538 0.387505
vt 0.399043 0.356530
vt 0.407225 0.263582
vt 0.439215 0.268263
vt 0.482760 0.375700
vt 0.472424 0.286573
vt 0.538736 0.330948
vt 0.530956 0.291577
vt 0.562915 0.317172
vt 0.264303 0.106937
vt 0.169564 0.172343
vt 0.096917 0.291812
vt 0.076883 0.403007
vt 0.439593 0.055202
vt 0.373426 0.066072
vt 0.071497 0.514271
vt 0.062033 0.575690
vt 0.509300 0.057650
vt 0.819285 0.511617
vt 0.617979 0.098982
vt 0.813394 0.400531
vt 0.710075 0.173821
vt 0.781895 0.289345
vt 0.289690 0.138153
vt 0.188222 0.192517
vt 0.121868 0.302196
vt 0.115168 0.419813
vt 0.439876 0.099782
vt 0.385417 0.106959
vt 0.115832 0.523596
vt 0.763586 0.581693
vt 0.495852 0.097377
vt 0.775073 0.522133
vt 0.592532 0.130377
vt 0.774609 0.417627
vt 0.681317 0.204468
vt 0.742921 0.307326
vt 0.252769 0.256139
vt 0.318490 0.200250
vt 0.183294 0.429003
vt 0.202950 0.340910
vt 0.272419 0.367169
vt 0.261107 0.431073
vt 0.395917 0.179951
vt 0.440472 0.176183
vt 0.672595 0.566240
vt 0.193999 0.518198
vt 0.284030 0.492646
vt 0.308381 0.521895
vt 0.484999 0.170610
vt 0.695793 0.519167
vt 0.576866 0.478243
vt 0.564384 0.192867
vt 0.705429 0.428195
vt 0.600819 0.419163
vt 0.630407 0.254702
vt 0.678585 0.338194
vt 0.595555 0.374356
vt 0.572304 0.388927
vt 0.503971 0.407691
vt 0.405814 0.426511
vt 0.358573 0.422384
vt 0.303007 0.386552
vt 0.462175 0.524188
vt 0.399371 0.533167
vt 0.525199 0.524549
vt 0.290933 0.566366
vt 0.108930 0.715536
vt 0.911853 0.964798
vt 0.053203 0.810733
vt 0.020192 0.911409
vt 0.193203 0.624432
vt 0.821026 0.706285
vt 0.633033 0.558007
vt 0.731233 0.616827
vt 0.873751 0.806689
vt 0.906116 0.909118
vt 0.572852 0.522619
vt 0.114042 0.581995
vt 0.206048 0.571205
vt 0.816823 0.577200
vt 0.876132 0.561371
vt 0.472123 0.429859
vt 0.003818 0.962603
vt 0.779166 0.996137
vt 0.646282 0.982945
vt 0.556822 0.947211
vt 0.439159 0.881078
vt 0.844924 0.013321
vt 0.864096 0.010412
vt 0.870751 0.063875
vt 0.846947 0.066359
vt 0.894745 0.005453
vt 0.886317 0.061305
vt 0.915005 0.004074
vt 0.911744 0.059557
vt 0.934768 0.008108
vt 0.936917 0.064107
vt 0.964540 0.016047
vt 0.952142 0.068308
vt 0.983273 0.020841
vt 0.975579 0.073205
vt 0.868367 0.112533
vt 0.844039 0.110886
vt 0.881488 0.117350
vt 0.908283 0.125911
vt 0.935825 0.120218
vt 0.949396 0.116785
vt 0.973785 0.117610
vt 0.852452 0.164807
vt 0.818209 0.158709
vt 0.881921 0.166543
vt 0.906368 0.163963
vt 0.930437 0.169022
vt 0.959948 0.170288
vt 0.994644 0.167668
vt 0.840125 0.202573
vt 0.812156 0.217474
vt 0.877350 0.212394
vt 0.902530 0.240751
vt 0.930415 0.215080
vt 0.968438 0.209070
vt 0.994791 0.226694
vn -0.507914 -0.847745 0.152811
vn -0.724760 -0.677081 0.127610
vn -0.724760 -0.677081 -0.127610
vn -0.507914 -0.847745 -0.152811
vn -0.977035 -0.129305 0.169357
vn -0.977035 -0.129305 -0.169357
vn -0.247104 -0.260669 0.933269
vn -0.326265 -0.720748 0.611616
vn -0.000000 -0.681818 0.731522
vn -0.000000 -0.317563 0.948237
vn -0.000000 -0.976939 0.213520
vn -0.679267 -0.194737 0.707583
vn -0.732584 -0.026513 0.680160
vn -0.984911 -0.042062 0.167870
vn -0.265591 -0.006632 0.964063
vn 0.976151 -0.135970 0.169236
vn 0.724758 -0.677083 0.127610
vn 0.724758 -0.677083 -0.127610
vn 0.976151 -0.135970 -0.169236
vn 0.507914 -0.847745 0.152810
vn 0.507914 -0.847745 -0.152810
vn 0.244157 -0.270684 0.931191
vn 0.676727 -0.204734 0.707195
vn 0.735086 -0.028559 0.677372
vn 0.252597 -0.006796 0.967548
vn 0.984697 -0.045044 0.168353
vn -0.984911 -0.042062 -0.167870
vn -0.732584 -0.026513 -0.680160
vn -0.679267 -0.194737 -0.707583
vn -0.265591 -0.006632 -0.964063
vn -0.247104 -0.260669 -0.933269
vn 0.252597 -0.006796 -0.967548
vn 0.735086 -0.028559 -0.677372
vn 0.676727 -0.204734 -0.707195
vn 0.244157 -0.270684 -0.931191
vn 0.984697 -0.045044 -0.168353
vn -0.326264 -0.720748 -0.611616
vn -0.000000 -0.681818 -0.731522
vn -0.000000 -0.976939 -0.213520
vn -0.000000 -0.317563 -0.948237
vn -0.000000 0.000000 1.000000
vn -0.000000 0.000000 -1.000000
vn -0.523114 -0.634659 0.568823
vn 0.326265 -0.720748 0.611615
vn 0.523112 -0.634660 0.568824
vn -0.523114 -0.634659 -0.568823
vn 0.523112 -0.634660 -0.568824
vn 0.326265 -0.720748 -0.611615
vn -0.625853 0.773310 0.101491
vn -0.394427 0.854786 0.337297
vn -0.263435 0.960940 0.084833
vn -0.098852 0.988943 0.110548
vn -0.164086 0.980852 0.104906
vn -0.171406 0.886468 0.429877
vn 0.047823 0.879316 0.473832
vn 0.119325 0.985682 0.119134
vn 0.186028 0.872197 0.452401
vn 0.254854 0.958993 0.124023
vn 0.369322 0.826718 0.424427
vn 0.582716 0.797714 0.155222
vn -0.596188 -0.795243 0.110218
vn -0.420465 -0.778907 0.465310
vn -0.412262 -0.777610 0.474725
vn -0.595855 -0.792246 0.131543
vn -0.420465 -0.778907 -0.465310
vn -0.596188 -0.795243 -0.110218
vn -0.595855 -0.792246 -0.131543
vn -0.412262 -0.777610 -0.474725
vn -0.171489 -0.729422 0.662219
vn -0.069505 -0.718050 0.692513
vn -0.067597 -0.718167 0.692580
vn -0.180718 -0.729682 0.659473
vn -0.069505 -0.718050 -0.692513
vn -0.171489 -0.729422 -0.662219
vn -0.180718 -0.729682 -0.659473
vn -0.067597 -0.718167 -0.692580
vn 0.128019 -0.747756 0.651515
vn 0.132689 -0.748013 0.650285
vn 0.128019 -0.747756 -0.651515
vn 0.132689 -0.748013 -0.650285
vn 0.453102 -0.783045 0.426073
vn 0.457488 -0.783125 0.421212
vn 0.453102 -0.783045 -0.426073
vn 0.457489 -0.783125 -0.421212
vn 0.636203 -0.765000 0.100100
vn 0.635420 -0.764992 0.105016
vn 0.636203 -0.765000 -0.100100
vn 0.635420 -0.764992 -0.105016
vn -0.971208 -0.116994 0.207526
vn -0.730836 0.057257 0.680147
vn -0.680131 0.325180 0.657023
vn -0.953715 0.247461 0.170852
vn -0.730836 0.057257 -0.680147
vn -0.971208 -0.116994 -0.207526
vn -0.953715 0.247461 -0.170852
vn -0.680131 0.325180 -0.657023
vn -0.272473 0.046840 0.961023
vn -0.000000 0.000000 1.000000
vn 0.034157 0.311463 0.949644
vn -0.245447 0.324408 0.913518
vn 0.000000 0.000000 -1.000000
vn -0.272473 0.046840 -0.961023
vn -0.245447 0.324408 -0.913518
vn 0.034157 0.311463 -0.949644
vn 0.282982 0.048646 0.957891
vn 0.264566 0.310157 0.913130
vn 0.282982 0.048646 -0.957891
vn 0.264566 0.310157 -0.913130
vn 0.718160 0.049353 0.694125
vn 0.632987 0.307360 0.710533
vn 0.718160 0.049353 -0.694125
vn 0.632987 0.307360 -0.710533
vn 0.968272 -0.078294 0.237318
vn 0.935202 0.257714 0.242860
vn 0.968272 -0.078294 -0.237318
vn 0.935202 0.257714 -0.242860
vn -0.837019 0.526964 0.147340
vn -0.608133 0.599866 0.519938
vn -0.608133 0.599866 -0.519937
vn -0.837019 0.526964 -0.147340
vn -0.625859 0.773310 -0.101449
vn -0.394570 0.854644 -0.337489
vn -0.217649 0.638658 0.738068
vn 0.085138 0.637742 0.765531
vn 0.085138 0.637742 -0.765530
vn -0.217650 0.638658 -0.738068
vn -0.171448 0.886288 -0.430231
vn 0.047948 0.879080 -0.474256
vn 0.258137 0.636698 0.726623
vn 0.258137 0.636698 -0.726623
vn 0.186252 0.871941 -0.452802
vn 0.517944 0.622488 0.586722
vn 0.517944 0.622488 -0.586722
vn 0.369513 0.826540 -0.424608
vn 0.762715 0.611974 0.209174
vn 0.762715 0.611974 -0.209174
vn 0.582683 0.797740 -0.155211
vn 0.255156 0.958879 -0.124287
vn 0.119531 0.985604 -0.119572
vn -0.098875 0.988918 -0.110746
vn -0.164180 0.980819 -0.105065
vn -0.263510 0.960910 -0.084934
vn 0.998289 0.058466 0.000000
vn 0.494609 -0.012203 -0.869030
vn 0.550787 -0.011559 -0.834566
vn 0.999117 0.042003 -0.000000
vn -0.572781 0.036390 -0.818900
vn -0.595094 0.019291 -0.803425
vn -0.992538 0.121938 0.000000
vn -0.996230 0.086747 -0.000000
vn -0.572781 0.036390 0.818900
vn -0.595094 0.019291 0.803425
vn 0.494609 -0.012203 0.869030
vn 0.550787 -0.011559 0.834566
vn 0.393484 -0.271523 -0.878320
vn 0.874470 -0.485080 0.000000
vn -0.651101 0.083338 -0.754402
vn -0.966723 0.255827 -0.000000
vn -0.651101 0.083337 0.754402
vn 0.393484 -0.271522 0.878320
vn 0.121992 -0.366521 -0.922378
vn 0.427539 -0.903997 0.000000
vn -0.452106 0.391603 -0.801403
vn -0.769935 0.638122 -0.000000
vn -0.452106 0.391603 0.801403
vn 0.121992 -0.366521 0.922378
vn 0.079105 -0.413935 -0.906863
vn 0.287385 -0.957815 0.000000
vn -0.371434 0.458010 -0.807628
vn -0.584958 0.811064 -0.000000
vn -0.371435 0.458011 0.807628
vn 0.079106 -0.413936 0.906863
vn 0.944332 0.328994 -0.000000
vn 0.944332 0.328995 0.000001
vn 0.944332 0.328995 0.000001
vn 0.944332 0.328994 -0.000000
vn 0.944332 0.328994 -0.000002
vn 0.944332 0.328994 -0.000002
s 1
g acorn
usemtl initialShadingGroup
f 2/1/1 1/2/2 25/3/3 30/4/4
f 1/2/2 6/5/5 26/6/6 25/3/3
f 4/7/7 3/8/8 41/9/9 42/10/10
f 3/8/8 2/1/1 48/11/11 41/9/9
f 6/5/5 5/12/12 14/125/13 13/126/14
f 5/12/12 4/7/7 15/117/15 14/125/13
f 8/16/16 7/17/17 31/18/18 36/19/19
f 7/17/17 12/20/20 32/21/21 31/18/18
f 10/22/22 9/23/23 17/118/24 16/116/25
f 9/23/23 8/16/16 18/123/26 17/118/24
f 20/124/27 19/127/28 27/29/29 26/6/6
f 19/127/28 21/128/30 28/31/31 27/29/29
f 23/122/32 22/121/33 35/34/34 34/35/35
f 22/121/33 24/119/36 36/19/19 35/34/34
f 30/4/4 29/37/37 46/137/38 47/138/39
f 29/37/37 28/31/31 45/136/40 46/137/38
f 4/7/7 42/10/10 43/115/41 15/117/15
f 21/128/30 44/120/42 45/136/40 28/31/31
f 30/4/4 47/138/39 48/11/11 2/1/1
f 8/16/16 36/19/19 24/119/36 18/123/26
f 26/6/6 6/5/5 13/126/14 20/124/27
f 5/12/12 6/5/5 1/2/2 37/43/43
f 1/2/2 2/1/1 3/8/8 37/43/43
f 3/8/8 4/7/7 5/12/12 37/43/43
f 11/44/44 12/20/20 7/17/17 38/45/45
f 7/17/17 8/16/16 9/23/23 38/45/45
f 9/23/23 10/22/22 11/44/44 38/45/45
f 29/37/37 30/4/4 25/3/3 39/46/46
f 25/3/3 26/6/6 27/29/29 39/46/46
f 27/29/29 28/31/31 29/37/37 39/46/46
f 35/34/34 36/19/19 31/18/18 40/47/47
f 31/18/18 32/21/21 33/48/48 40/47/47
f 33/48/48 34/35/35 35/34/34 40/47/47
f 42/10/10 41/9/9 11/44/44 10/22/22
f 43/115/41 42/10/10 10/22/22 16/116/25
f 45/40/40 44/135/42 23/122/32 34/35/35
f 46/38/38 45/40/40 34/35/35 33/48/48
f 47/39/39 46/38/38 33/48/48 32/21/21
f 48/139/11 47/39/39 32/21/21 12/20/20
f 41/9/9 48/11/11 12/20/20 11/44/44
s 7
f 78/49/49 77/50/50 114/51/51
f 112/52/52 113/53/53 81/54/54 83/55/55
f 111/56/56 112/52/52 83/55/55 85/57/57
f 110/58/58 111/56/56 85/57/57 87/59/59
f 89/60/60 110/58/58 87/59/59
f 113/53/53 114/51/51 77/50/50 81/54/54
s 9
f 13/14/61 14/13/62 49/61/63 50/62/64
f 19/28/65 20/27/66 52/63/67 51/64/68
f 20/27/66 13/14/61 50/62/64 52/63/67
f 15/15/69 43/41/70 55/65/71 53/66/72
f 44/42/73 21/30/74 54/67/75 56/68/76
f 43/41/70 16/25/77 57/69/78 55/65/71
f 23/32/79 44/133/73 56/132/76 58/70/80
f 16/25/77 17/24/81 59/71/82 57/69/78
f 22/33/83 23/32/79 58/70/80 60/72/84
f 17/24/81 18/26/85 61/73/86 59/71/82
f 18/26/85 24/36/87 62/74/88 61/73/86
f 24/36/87 22/33/83 60/72/84 62/74/88
f 14/13/62 15/15/69 53/66/72 49/61/63
f 21/30/74 19/28/65 51/64/68 54/67/75
s 7
f 50/62/89 49/61/90 91/75/91 92/76/92
f 51/64/93 52/63/94 93/77/95 94/78/96
f 52/63/94 50/62/89 92/76/92 93/77/95
f 53/66/97 55/65/98 103/79/99 104/80/100
f 56/68/101 54/67/102 95/81/103 96/130/104
f 55/65/98 57/69/105 102/83/106 103/79/99
f 58/70/107 56/132/101 96/82/104 97/84/108
f 57/69/105 59/71/109 101/85/110 102/83/106
f 60/72/111 58/70/107 97/84/108 98/86/112
f 59/71/109 61/73/113 100/87/114 101/85/110
f 61/73/113 62/74/115 99/88/116 100/87/114
f 62/74/115 60/72/111 98/86/112 99/88/116
f 49/61/90 53/66/97 104/80/100 91/75/91
f 54/67/102 51/64/93 94/78/96 95/81/103
f 64/89/117 63/90/118 77/50/50 78/49/49
f 65/91/119 66/92/120 80/93/121 79/94/122
f 66/92/120 64/89/117 78/49/49 80/93/121
f 67/95/123 69/96/124 83/55/55 81/54/54
f 70/131/125 68/98/126 82/99/127 84/100/128
f 69/96/124 71/101/129 85/57/57 83/55/55
f 72/102/130 70/97/125 84/129/128 86/103/131
f 71/101/129 73/104/132 87/59/59 85/57/57
f 74/105/133 72/102/130 86/103/131 88/106/134
f 73/104/132 75/107/135 89/60/60 87/59/59
f 75/107/135 76/108/136 90/109/137 89/60/60
f 76/108/136 74/105/133 88/106/134 90/109/137
f 63/90/118 67/95/123 81/54/54 77/50/50
f 68/98/126 65/91/119 79/94/122 82/99/127
f 92/76/92 91/75/91 63/90/118 64/89/117
f 93/77/95 92/76/92 64/89/117 66/92/120
f 94/78/96 93/77/95 66/92/120 65/91/119
f 95/81/103 94/78/96 65/91/119 68/98/126
f 96/130/104 95/81/103 68/98/126 70/131/125
f 97/84/108 96/82/104 70/97/125 72/102/130
f 98/86/112 97/84/108 72/102/130 74/105/133
f 99/88/116 98/86/112 74/105/133 76/108/136
f 100/87/114 99/88/116 76/108/136 75/107/135
f 101/85/110 100/87/114 75/107/135 73/104/132
f 102/83/106 101/85/110 73/104/132 71/101/129
f 103/79/99 102/83/106 71/101/129 69/96/124
f 104/80/100 103/79/99 69/96/124 67/95/123
f 91/75/91 104/80/100 67/95/123 63/90/118
f 88/106/134 105/110/138 90/109/137
f 86/103/131 106/111/139 105/110/138 88/106/134
f 84/129/128 107/134/140 106/111/139 86/103/131
f 82/99/127 108/113/141 107/112/140 84/100/128
f 79/94/122 109/114/142 108/113/141 82/99/127
f 80/93/121 109/114/142 79/94/122
f 90/109/137 105/110/138 110/58/58 89/60/60
f 105/110/138 106/111/139 111/56/56 110/58/58
f 107/112/140 108/113/141 113/53/53 112/52/52
f 108/113/141 109/114/142 114/51/51 113/53/53
f 78/49/49 114/51/51 109/114/142 80/93/121
f 107/134/140 112/52/52 111/56/56 106/111/139
s 13
f 115/140/143 116/141/144 122/142/145 121/143/146
f 116/141/144 117/144/147 123/145/148 122/142/145
f 117/144/147 118/146/149 124/147/150 123/145/148
f 118/146/149 119/148/151 125/149/152 124/147/150
f 119/148/151 120/150/153 126/151/154 125/149/152
f 120/150/153 115/152/143 121/153/146 126/151/154
f 121/143/146 122/142/145 128/154/155 127/155/156
f 122/142/145 123/145/148 129/156/157 128/154/155
f 123/145/148 124/147/150 130/157/158 129/156/157
f 124/147/150 125/149/152 131/158/159 130/157/158
f 125/149/152 126/151/154 132/159/160 131/158/159
f 126/151/154 121/153/146 127/160/156 132/159/160
f 127/155/156 128/154/155 134/161/161 133/162/162
f 128/154/155 129/156/157 135/163/163 134/161/161
f 129/156/157 130/157/158 136/164/164 135/163/163
f 130/157/158 131/158/159 137/165/165 136/164/164
f 131/158/159 132/159/160 138/166/166 137/165/165
f 132/159/160 127/160/156 133/167/162 138/166/166
f 133/162/162 134/161/161 140/168/167 139/169/168
f 134/161/161 135/163/163 141/170/169 140/168/167
f 135/163/163 136/164/164 142/171/170 141/170/169
f 136/164/164 137/165/165 143/172/171 142/171/170
f 137/165/165 138/166/166 144/173/172 143/172/171
f 138/166/166 133/167/162 139/174/168 144/173/172
s 14
f 139/169/173 140/168/174 141/170/175 142/171/176
f 139/174/173 142/171/176 143/172/177 144/173/178
