# This file uses centimeters as units for non-parametric coordinates.

mtllib Flower_1.mtl
g default
v -10.121521 0.246445 -0.758459
v -10.067139 0.247475 -0.751497
v -10.045959 0.203671 -0.776783
v -10.087280 0.175570 -0.799373
v -10.133972 0.202007 -0.788049
v -10.093506 0.202328 -0.754771
v -10.111328 0.198689 -0.763395
v -10.106079 0.217590 -0.750810
v -10.082947 0.218029 -0.747849
v -10.073914 0.199398 -0.758604
v -10.091492 0.187445 -0.768211
v -10.155701 0.266487 -0.763689
v -10.063721 0.285835 -0.740756
v -10.008179 0.216122 -0.778461
v -10.065857 0.153687 -0.824698
v -10.157043 0.184814 -0.815568
v -10.094604 0.196209 -0.745106
v -10.085327 0.175486 -0.764902
v -10.117920 0.186607 -0.761640
v -10.117432 0.215794 -0.743101
v -10.084534 0.222706 -0.734906
v -10.064697 0.197796 -0.748380
v -10.092529 0.208179 -0.762801
v -10.091919 0.192430 -0.765003
v -10.083679 0.194941 -0.762457
v -10.079041 0.201191 -0.757962
v -10.079834 0.208790 -0.753235
v -10.085632 0.214840 -0.750082
v -10.094360 0.217030 -0.749706
v -10.102600 0.214520 -0.752252
v -10.107239 0.208271 -0.756747
v -10.106506 0.200672 -0.761474
v -10.100647 0.194620 -0.764627
v -10.068604 0.258774 -0.745730
v -10.034363 0.208229 -0.773845
v -10.078430 0.167961 -0.804718
v -10.139893 0.193619 -0.795684
v -10.133789 0.249741 -0.759228
v -10.094177 0.198631 -0.748932
v -10.115051 0.191387 -0.762074
v -10.112122 0.215496 -0.746030
v -10.084412 0.219669 -0.740176
v -10.069580 0.198292 -0.751989
v -10.088074 0.180910 -0.765144
v -10.107666 -0.004250 -0.715225
v -10.005310 0.202923 -0.610506
v -10.065491 0.002214 -0.769186
v -9.963196 0.209385 -0.664468
v -10.044434 0.179850 -0.643818
v -10.075378 0.148592 -0.671743
v -10.091675 0.102547 -0.689956
v -10.049561 0.109013 -0.743918
v -10.033264 0.155056 -0.725705
v -10.002319 0.186314 -0.697780
v -10.104187 -0.003529 -0.777260
v -10.227600 0.167458 -0.778920
v -10.098267 0.001324 -0.720620
v -10.221680 0.172310 -0.722281
v -10.184814 0.148743 -0.781824
v -10.149902 0.123129 -0.783303
v -10.129272 0.085051 -0.782212
v -10.123291 0.089903 -0.725572
v -10.143921 0.127981 -0.726663
v -10.178833 0.153597 -0.725183
v -10.101196 -0.001102 -0.748940
v -10.104919 -0.003222 -0.740891
v -10.090271 -0.003138 -0.734157
v -10.086609 -0.001018 -0.742206
v -10.109680 0.051958 -0.728053
v -10.112793 0.050550 -0.721202
v -10.100586 0.050620 -0.715579
v -10.097473 0.052029 -0.722429
v -10.112488 0.078957 -0.720623
v -10.115417 0.078180 -0.714326
v -10.104370 0.078244 -0.709256
v -10.101501 0.079020 -0.715553
v -10.113281 0.106329 -0.717675
v -10.115906 0.106419 -0.712008
v -10.106079 0.106474 -0.707494
v -10.103455 0.106386 -0.713160
v -10.111511 0.129848 -0.720511
v -10.113770 0.130644 -0.715545
v -10.105042 0.130693 -0.711508
v -10.102722 0.129900 -0.716474
v -10.107605 0.152840 -0.727922
v -10.109558 0.154011 -0.723704
v -10.101807 0.154055 -0.720145
v -10.099854 0.152884 -0.724363
v -10.102295 0.175163 -0.738425
v -10.103882 0.176413 -0.734888
v -10.097229 0.176451 -0.731807
v -10.095581 0.175201 -0.735343
v -10.096252 0.197090 -0.750449
v -10.097595 0.198212 -0.747497
v -10.091919 0.198242 -0.744893
v -10.090576 0.197124 -0.747845
vt 0.186812 0.890195
vt 0.125039 0.977425
vt 0.024063 0.944476
vt 0.023336 0.838615
vt 0.123742 0.805849
vt 0.071044 0.872937
vt 0.096705 0.891203
vt 0.069413 0.911224
vt 0.106256 0.921470
vt 0.129460 0.891686
vt 0.107186 0.859669
vt 0.151122 0.970743
vt 0.046611 0.963377
vt 0.020429 0.860396
vt 0.111847 0.803618
vt 0.192309 0.874283
vt 0.104346 0.894591
vt 0.079525 0.883028
vt 0.086222 0.914037
vt 0.118582 0.917674
vt 0.130621 0.887599
vt 0.106499 0.868358
vt 0.125970 0.612999
vt 0.125970 0.604204
vt 0.131139 0.605884
vt 0.134334 0.610282
vt 0.134334 0.615717
vt 0.131139 0.620115
vt 0.125970 0.621794
vt 0.120800 0.620115
vt 0.117605 0.615717
vt 0.117605 0.610282
vt 0.120800 0.605884
vt 0.097691 0.977243
vt 0.020088 0.912455
vt 0.057713 0.818634
vt 0.158619 0.825508
vt 0.183250 0.923516
vt 0.085703 0.867145
vt 0.103458 0.891604
vt 0.074719 0.900930
vt 0.103479 0.921823
vt 0.132252 0.900866
vt 0.121847 0.866247
vt 0.100377 0.708938
vt 0.100377 0.738948
vt 0.100377 0.768959
vt 0.060781 0.708938
vt 0.060781 0.645076
vt 0.060781 0.768959
vt 0.060781 0.801396
vt 0.100377 0.645076
vt 0.100377 0.801396
vt 0.060781 0.738948
vt 0.056372 0.697992
vt 0.056372 0.722938
vt 0.056372 0.747885
vt 0.023458 0.697992
vt 0.023458 0.644908
vt 0.023458 0.747885
vt 0.023458 0.774848
vt 0.056372 0.644908
vt 0.056372 0.774848
vt 0.023458 0.722938
vt 0.130722 0.651666
vt 0.131690 0.684961
vt 0.135889 0.652360
vt 0.136047 0.685533
vt 0.145170 0.652497
vt 0.119659 0.686387
vt 0.121500 0.652119
vt 0.123935 0.685368
vt 0.132152 0.701481
vt 0.136144 0.701683
vt 0.121209 0.702438
vt 0.125160 0.701842
vt 0.132620 0.717685
vt 0.136236 0.717585
vt 0.122765 0.718309
vt 0.126368 0.718030
vt 0.133060 0.731704
vt 0.136194 0.731322
vt 0.124333 0.731961
vt 0.127488 0.732008
vt 0.133494 0.746033
vt 0.136184 0.745504
vt 0.125866 0.746042
vt 0.128597 0.746288
vt 0.133926 0.760687
vt 0.136212 0.760143
vt 0.127357 0.760596
vt 0.129687 0.760903
vt 0.134351 0.775533
vt 0.136266 0.775053
vt 0.128823 0.775428
vt 0.130778 0.775710
vt 0.140459 0.760237
vt 0.139855 0.775126
vt 0.141092 0.745632
vt 0.141766 0.731476
vt 0.142464 0.717701
vt 0.143137 0.701769
vt 0.143800 0.685621
vt 0.116425 0.653337
vn -0.120605 0.203301 -0.971660
vn 0.353836 0.212284 -0.910898
vn 0.550967 -0.149712 -0.820988
vn -0.320411 -0.166183 -0.932588
vn -0.305162 0.585547 -0.751007
vn -0.120605 0.203301 -0.971660
vn -0.320411 -0.166183 -0.932588
vn -0.659390 0.535870 -0.527302
vn 0.055215 0.830764 -0.553879
vn -0.305162 0.585547 -0.751007
vn -0.659390 0.535870 -0.527302
vn 0.002500 0.986246 -0.165264
vn 0.458955 0.603285 -0.652233
vn 0.055215 0.830764 -0.553879
vn 0.002500 0.986246 -0.165264
vn 0.750774 0.561490 -0.347947
vn 0.353836 0.212284 -0.910898
vn 0.458955 0.603285 -0.652233
vn 0.750774 0.561490 -0.347947
vn 0.550967 -0.149712 -0.820988
vn 0.055215 0.830764 -0.553879
vn 0.098623 0.533173 -0.840238
vn -0.305162 0.585547 -0.751007
vn -0.305162 0.585547 -0.751007
vn 0.098623 0.533173 -0.840238
vn -0.120605 0.203301 -0.971660
vn -0.120605 0.203301 -0.971660
vn 0.098623 0.533173 -0.840238
vn 0.353836 0.212284 -0.910898
vn 0.353836 0.212284 -0.910898
vn 0.098623 0.533173 -0.840238
vn 0.458955 0.603285 -0.652233
vn 0.458955 0.603285 -0.652233
vn 0.098623 0.533173 -0.840238
vn 0.055215 0.830764 -0.553879
vn -0.074463 0.073598 -0.994504
vn 0.480317 0.190294 -0.856203
vn 0.723526 -0.173756 -0.668071
vn -0.217273 -0.371608 -0.902607
vn -0.409245 0.494005 -0.767123
vn -0.074463 0.073598 -0.994504
vn -0.217273 -0.371608 -0.902607
vn -0.784993 0.341305 -0.517007
vn -0.061369 0.870519 -0.488294
vn -0.409245 0.494005 -0.767123
vn -0.784993 0.341305 -0.517007
vn -0.195062 0.979795 -0.044182
vn 0.488409 0.682808 -0.543351
vn -0.061369 0.870519 -0.488294
vn -0.195062 0.979795 -0.044182
vn 0.737256 0.661466 -0.137538
vn 0.480317 0.190294 -0.856203
vn 0.488409 0.682808 -0.543351
vn 0.737256 0.661466 -0.137538
vn 0.723526 -0.173756 -0.668071
vn -0.061369 0.870519 -0.488294
vn 0.098146 0.533804 -0.839893
vn -0.409245 0.494005 -0.767123
vn -0.409245 0.494005 -0.767123
vn 0.098146 0.533804 -0.839893
vn -0.074463 0.073598 -0.994504
vn -0.074463 0.073598 -0.994504
vn 0.098146 0.533804 -0.839893
vn 0.480317 0.190294 -0.856203
vn 0.480317 0.190294 -0.856203
vn 0.098146 0.533804 -0.839893
vn 0.488409 0.682808 -0.543351
vn 0.488409 0.682808 -0.543351
vn 0.098146 0.533804 -0.839893
vn -0.061369 0.870519 -0.488294
vn 0.095775 0.531250 -0.841784
vn 0.399653 0.140820 -0.905786
vn 0.125752 0.057431 -0.990398
vn 0.095775 0.531250 -0.841784
vn 0.553537 0.348506 -0.756400
vn 0.399653 0.140820 -0.905786
vn 0.095775 0.531250 -0.841784
vn 0.528666 0.601133 -0.599293
vn 0.553537 0.348506 -0.756400
vn 0.095775 0.531250 -0.841784
vn 0.334455 0.802279 -0.494459
vn 0.528666 0.601133 -0.599293
vn 0.095775 0.531250 -0.841784
vn 0.045172 0.875020 -0.481975
vn 0.334455 0.802279 -0.494459
vn 0.095775 0.531250 -0.841784
vn -0.228745 0.791581 -0.566635
vn 0.045172 0.875020 -0.481975
vn 0.095775 0.531250 -0.841784
vn -0.382619 0.583938 -0.715975
vn -0.228745 0.791581 -0.566635
vn 0.095775 0.531250 -0.841784
vn -0.356610 0.328247 -0.874690
vn -0.382619 0.583938 -0.715975
vn 0.095775 0.531250 -0.841784
vn -0.166781 0.131597 -0.977173
vn -0.356610 0.328247 -0.874690
vn 0.125752 0.057431 -0.990398
vn -0.166781 0.131597 -0.977173
vn 0.095775 0.531250 -0.841784
vn -0.079351 0.145536 -0.986166
vn 0.419137 0.220719 -0.880686
vn 0.648679 -0.121267 -0.751339
vn -0.234502 -0.254486 -0.938214
vn -0.346927 0.530713 -0.773295
vn -0.079351 0.145536 -0.986166
vn -0.234502 -0.254486 -0.938214
vn -0.708598 0.427903 -0.561060
vn -0.013810 0.843947 -0.536249
vn -0.346927 0.530713 -0.773295
vn -0.708598 0.427903 -0.561060
vn -0.118386 0.982893 -0.141089
vn -0.118386 0.982893 -0.141089
vn 0.719925 0.643637 -0.259691
vn 0.472722 0.654489 -0.590066
vn -0.013810 0.843947 -0.536249
vn 0.419137 0.220719 -0.880686
vn 0.472722 0.654489 -0.590066
vn 0.719925 0.643637 -0.259691
vn 0.648679 -0.121267 -0.751339
vn -0.013810 0.843947 -0.536249
vn 0.098861 0.533067 -0.840278
vn -0.346927 0.530713 -0.773295
vn -0.346927 0.530713 -0.773295
vn 0.098861 0.533067 -0.840278
vn -0.079351 0.145536 -0.986166
vn -0.079351 0.145536 -0.986166
vn 0.098861 0.533067 -0.840278
vn 0.419137 0.220719 -0.880686
vn 0.419137 0.220719 -0.880686
vn 0.098861 0.533067 -0.840278
vn 0.472722 0.654489 -0.590066
vn 0.472722 0.654489 -0.590066
vn 0.098861 0.533067 -0.840278
vn -0.013810 0.843947 -0.536249
vn -0.764927 0.320343 -0.558808
vn -0.639359 0.642649 -0.422164
vn -0.639354 0.642655 -0.422163
vn -0.764929 0.320337 -0.558810
vn -0.639359 0.642649 -0.422164
vn -0.448998 0.858516 -0.247691
vn -0.449003 0.858513 -0.247693
vn -0.639354 0.642655 -0.422163
vn -0.764927 0.320343 -0.558808
vn -0.764929 0.320337 -0.558810
vn -0.777110 0.252652 -0.576427
vn -0.777106 0.252668 -0.576425
vn -0.377010 0.907416 -0.185633
vn -0.377021 0.907411 -0.185637
vn -0.449003 0.858513 -0.247693
vn -0.448998 0.858516 -0.247691
vn 0.935000 0.331209 -0.126787
vn 0.746466 0.651709 -0.134399
vn 0.746462 0.651713 -0.134405
vn 0.934998 0.331215 -0.126786
vn 0.746466 0.651709 -0.134399
vn 0.486154 0.864849 -0.125262
vn 0.486152 0.864850 -0.125266
vn 0.746462 0.651713 -0.134405
vn 0.935000 0.331209 -0.126787
vn 0.934998 0.331215 -0.126786
vn 0.956691 0.263710 -0.123283
vn 0.956692 0.263704 -0.123289
vn 0.390772 0.912721 -0.119324
vn 0.390773 0.912720 -0.119328
vn 0.486152 0.864850 -0.125266
vn 0.486154 0.864849 -0.125262
vn 0.965448 0.237605 -0.107025
vn -0.549291 0.228874 -0.803676
vn -0.609522 0.187349 -0.770314
vn 0.979707 0.196521 -0.039405
vn -0.549291 0.228874 -0.803676
vn -0.910422 0.017612 -0.413305
vn -0.910222 0.017763 -0.413739
vn -0.609522 0.187349 -0.770314
vn -0.789083 -0.285001 0.544171
vn -0.783530 -0.311923 0.537388
vn 0.104886 -0.306835 0.945966
vn 0.103095 -0.279886 0.954482
vn 0.906095 0.028080 0.422142
vn 0.965448 0.237605 -0.107025
vn 0.979707 0.196521 -0.039405
vn 0.906290 0.028243 0.421712
vn 0.979707 0.196521 -0.039405
vn -0.609522 0.187349 -0.770314
vn -0.097131 0.183623 -0.978186
vn 0.804118 0.188832 -0.563682
vn -0.609522 0.187349 -0.770314
vn -0.910222 0.017763 -0.413739
vn -0.909364 0.018285 -0.415599
vn -0.909408 0.018263 -0.415504
vn -0.808972 -0.145193 0.569635
vn -0.789083 -0.285001 0.544171
vn 0.103095 -0.279886 0.954482
vn 0.095362 -0.139987 0.985551
vn 0.906290 0.028243 0.421712
vn 0.979707 0.196521 -0.039405
vn 0.907091 0.028753 0.419951
vn 0.907134 0.028773 0.419856
vn 0.804118 0.188832 -0.563682
vn -0.097131 0.183623 -0.978186
vn -0.092596 0.011851 -0.995633
vn 0.816045 0.017086 -0.577735
vn -0.909408 0.018263 -0.415504
vn -0.909364 0.018285 -0.415599
vn -0.908341 0.018490 -0.417820
vn -0.908329 0.018489 -0.417848
vn -0.815919 0.031859 0.577288
vn -0.808972 -0.145193 0.569635
vn 0.095362 -0.139987 0.985551
vn 0.092375 0.037101 0.995033
vn 0.907134 0.028773 0.419856
vn 0.907091 0.028753 0.419951
vn 0.908167 0.028954 0.417606
vn 0.908154 0.028955 0.417634
vn 0.816045 0.017086 -0.577735
vn -0.092596 0.011851 -0.995633
vn -0.095202 -0.193622 -0.976446
vn 0.805114 -0.188460 -0.562383
vn -0.908329 0.018489 -0.417848
vn -0.908341 0.018490 -0.417820
vn -0.907135 0.018132 -0.420448
vn -0.907054 0.018078 -0.420626
vn -0.798117 0.239156 0.553004
vn -0.815919 0.031859 0.577288
vn 0.092375 0.037101 0.995033
vn 0.097251 0.244341 0.964800
vn 0.908154 0.028955 0.417634
vn 0.908167 0.028954 0.417606
vn 0.909440 0.028556 0.414854
vn 0.909359 0.028606 0.415028
vn 0.805114 -0.188460 -0.562383
vn -0.095202 -0.193622 -0.976446
vn -0.103265 -0.339770 -0.934822
vn 0.780169 -0.334677 -0.528515
vn -0.907054 0.018078 -0.420626
vn -0.907135 0.018132 -0.420448
vn -0.906192 0.017375 -0.422510
vn -0.906104 0.017279 -0.422703
vn -0.768824 0.381499 0.513195
vn -0.798117 0.239156 0.553004
vn 0.097251 0.244341 0.964800
vn 0.107034 0.386573 0.916027
vn 0.909359 0.028606 0.415028
vn 0.909440 0.028556 0.414854
vn 0.910391 0.027786 0.412816
vn 0.910302 0.027882 0.413005
vn 0.780169 -0.334677 -0.528515
vn -0.103265 -0.339770 -0.934822
vn -0.110738 -0.424068 -0.898834
vn 0.971215 -0.231245 -0.057165
vn -0.906104 0.017279 -0.422703
vn -0.906192 0.017375 -0.422510
vn -0.956602 0.286570 0.052821
vn -0.905544 0.016622 -0.423926
vn -0.956602 0.286570 0.052821
vn -0.768824 0.381499 0.513195
vn 0.107034 0.386573 0.916027
vn 0.579657 0.295450 0.759412
vn 0.971215 -0.231245 -0.057165
vn -0.110738 -0.424068 -0.898834
vn -0.113903 -0.453400 -0.883999
vn 0.952361 -0.282471 -0.114975
vn -0.905544 0.016622 -0.423926
vn -0.956602 0.286570 0.052821
vn -0.962294 0.271783 -0.011171
vn -0.905368 0.016390 -0.424311
vn 0.632089 0.281015 0.722145
vn -0.962294 0.271783 -0.011171
vn -0.956602 0.286570 0.052821
vn 0.579657 0.295450 0.759412
vn 0.579657 0.295450 0.759412
vn 0.971215 -0.231245 -0.057165
vn 0.952361 -0.282471 -0.114975
vn 0.632089 0.281015 0.722145
vn 0.579657 0.295450 0.759412
vn 0.910302 0.027882 0.413005
s off
g Flower
usemtl lambert5SG
f 9/9/1 8/10/2 1/1/3 2/2/4
f 10/8/5 9/9/6 2/2/7 3/3/8
f 11/6/9 10/8/10 3/3/11 4/4/12
f 7/11/13 11/6/14 4/4/15 5/5/16
f 8/10/17 7/11/18 5/5/19 1/1/20
f 11/6/21 6/7/22 10/8/23
f 10/8/24 6/7/25 9/9/26
f 9/9/27 6/7/28 8/10/29
f 8/10/30 6/7/31 7/11/32
f 7/11/33 6/7/34 11/6/35
f 21/19/36 20/20/37 12/12/38 13/13/39
f 22/18/40 21/19/41 13/13/42 14/14/43
f 18/22/44 22/18/45 14/14/46 15/15/47
f 19/21/48 18/22/49 15/15/50 16/16/51
f 20/20/52 19/21/53 16/16/54 12/12/55
f 18/22/56 17/17/57 22/18/58
f 22/18/59 17/17/60 21/19/61
f 21/19/62 17/17/63 20/20/64
f 20/20/65 17/17/66 19/21/67
f 19/21/68 17/17/69 18/22/70
f 23/23/71 25/32/72 24/33/73
f 23/23/74 26/31/75 25/32/76
f 23/23/77 27/30/78 26/31/79
f 23/23/80 28/29/81 27/30/82
f 23/23/83 29/28/84 28/29/85
f 23/23/86 30/27/87 29/28/88
f 23/23/89 31/26/90 30/27/91
f 23/23/92 32/25/93 31/26/94
f 23/23/95 33/24/96 32/25/97
f 24/33/98 33/24/99 23/23/100
f 42/42/101 41/43/102 38/38/103 34/34/104
f 43/41/105 42/42/106 34/34/107 35/35/108
f 44/39/109 43/41/110 35/35/111 36/36/112
f 36/36/113 37/37/114 40/44/115 44/39/116
f 41/43/117 40/44/118 37/37/119 38/38/120
f 44/39/121 39/40/122 43/41/123
f 43/41/124 39/40/125 42/42/126
f 42/42/127 39/40/128 41/43/129
f 41/43/130 39/40/131 40/44/132
f 40/44/133 39/40/134 44/39/135
f 51/45/136 50/46/137 53/54/138 52/48/139
f 50/46/140 49/47/141 54/50/142 53/54/143
f 51/45/144 52/48/145 47/49/146 45/52/147
f 46/53/148 48/51/149 54/50/150 49/47/151
f 61/55/152 60/56/153 63/64/154 62/58/155
f 60/56/156 59/57/157 64/60/158 63/64/159
f 61/55/160 62/58/161 57/59/162 55/62/163
f 56/63/164 58/61/165 64/60/166 59/57/167
f 68/71/168 65/65/169 69/66/170 72/72/171
f 65/65/172 66/67/173 70/68/174 69/66/175
f 70/68/176 66/67/177 67/69/178 71/103/179
f 67/104/180 68/71/181 72/72/182 71/70/183
f 72/72/184 69/66/185 73/73/186 76/76/187
f 69/66/188 70/68/189 74/74/190 73/73/191
f 74/74/192 70/68/193 71/103/194 75/102/195
f 71/70/196 72/72/197 76/76/198 75/75/199
f 76/76/200 73/73/201 77/77/202 80/80/203
f 73/73/204 74/74/205 78/78/206 77/77/207
f 78/78/208 74/74/209 75/102/210 79/101/211
f 75/75/212 76/76/213 80/80/214 79/79/215
f 80/80/216 77/77/217 81/81/218 84/84/219
f 77/77/220 78/78/221 82/82/222 81/81/223
f 82/82/224 78/78/225 79/101/226 83/100/227
f 79/79/228 80/80/229 84/84/230 83/83/231
f 84/84/232 81/81/233 85/85/234 88/88/235
f 81/81/236 82/82/237 86/86/238 85/85/239
f 86/86/240 82/82/241 83/100/242 87/99/243
f 83/83/244 84/84/245 88/88/246 87/87/247
s 1
f 88/88/248 85/85/249 89/89/250 92/92/251
s off
f 85/85/252 86/86/253 90/90/254 89/89/255
f 90/90/256 86/86/257 87/99/258 91/97/259
f 92/92/260 89/89/261 93/93/262 96/96/263
f 89/89/264 90/90/265 94/94/266 93/93/267
f 95/98/268 94/94/269 90/90/270 91/97/271
f 91/91/272 92/92/273 96/96/274 95/95/275
s 1
f 92/92/251 91/91/276 87/87/277 88/88/248
