# This file uses centimeters as units for non-parametric coordinates.

mtllib TopHat_LP_OBJ.mtl
g default
v 0.485994 -0.041197 -0.057983
v 0.413412 -0.069455 -0.197609
v 0.300361 -0.105794 -0.305726
v 0.157909 -0.128094 -0.375341
v 0.000000 -0.133392 -0.399790
v -0.157909 -0.128094 -0.375341
v -0.300361 -0.105794 -0.305726
v -0.413411 -0.069455 -0.197609
v -0.485994 -0.041197 -0.057983
v -0.511005 -0.011206 0.097052
v -0.485994 0.018784 0.252087
v -0.413411 0.044637 0.392179
v -0.300361 0.051240 0.506048
v -0.157909 0.056510 0.578956
v -0.000000 0.060712 0.603618
v 0.157909 0.056510 0.578956
v 0.300361 0.051240 0.506048
v 0.413411 0.044637 0.392179
v 0.485994 0.018784 0.252087
v 0.511004 -0.011206 0.097052
v 0.485994 0.061793 -0.077906
v 0.413412 0.033408 -0.217508
v 0.300361 -0.003390 -0.325536
v 0.157909 -0.025876 -0.395114
v 0.000000 -0.031186 -0.419561
v -0.157909 -0.025876 -0.395114
v -0.300361 -0.003390 -0.325535
v -0.413411 0.033408 -0.217507
v -0.485994 0.061793 -0.077906
v -0.511005 0.091784 0.077129
v -0.485994 0.121774 0.232164
v -0.413411 0.147499 0.372280
v -0.300361 0.153643 0.486238
v -0.157909 0.158728 0.559183
v -0.000000 0.162918 0.583846
v 0.157909 0.158728 0.559183
v 0.300361 0.153643 0.486238
v 0.413411 0.147499 0.372280
v 0.485994 0.121774 0.232164
v 0.511004 0.091784 0.077129
v 0.444309 0.545945 -0.157767
v 0.377952 0.521211 -0.285630
v 0.274598 0.501581 -0.387103
v 0.144365 0.488979 -0.452252
v -0.000000 0.484636 -0.474701
v -0.144365 0.488979 -0.452252
v -0.274598 0.501581 -0.387102
v -0.377951 0.521211 -0.285630
v -0.444308 0.545945 -0.157767
v -0.467174 0.573364 -0.016030
v -0.444308 0.600782 0.125707
v -0.377951 0.625516 0.253570
v -0.274598 0.645146 0.355042
v -0.144365 0.657749 0.420191
v -0.000000 0.662091 0.442640
v 0.144365 0.657749 0.420191
v 0.274598 0.645146 0.355042
v 0.377951 0.625516 0.253570
v 0.444308 0.600782 0.125707
v 0.467174 0.573364 -0.016030
v 0.485994 1.134966 -0.285506
v 0.413411 1.107911 -0.425365
v 0.300361 1.086440 -0.536358
v 0.157909 1.072655 -0.607620
v 0.000000 1.067904 -0.632175
v -0.157909 1.072655 -0.607620
v -0.300361 1.086440 -0.536358
v -0.413411 1.107911 -0.425365
v -0.485994 1.134966 -0.285506
v -0.511005 1.164957 -0.130471
v -0.485994 1.194947 0.024564
v -0.413411 1.222003 0.164423
v -0.300361 1.243474 0.275416
v -0.157909 1.257259 0.346677
v -0.000000 1.262009 0.371233
v 0.157909 1.257259 0.346677
v 0.300361 1.243474 0.275416
v 0.413411 1.222003 0.164423
v 0.485994 1.194947 0.024564
v 0.511005 1.164957 -0.130471
v 0.000000 -0.011206 0.097052
v 0.000000 1.164957 -0.130471
v 0.599408 0.000000 -0.079596
v 0.509887 -0.029350 -0.231319
v 0.509887 0.047718 -0.246227
v 0.599408 0.077068 -0.094504
v 0.370454 -0.065158 -0.349306
v 0.370454 0.011910 -0.364214
v 0.194759 -0.094586 -0.423812
v 0.194759 -0.017518 -0.438721
v 0.000000 -0.099739 -0.450450
v 0.000000 -0.022671 -0.465359
v -0.194759 -0.094586 -0.423812
v -0.194759 -0.017518 -0.438721
v -0.370454 -0.065158 -0.349305
v -0.370454 0.011910 -0.364214
v -0.509887 -0.029350 -0.231318
v -0.509887 0.047718 -0.246227
v -0.599408 0.000000 -0.079596
v -0.599408 0.077068 -0.094504
v -0.630255 0.032535 0.088591
v -0.630255 0.109603 0.073682
v -0.599408 0.065070 0.256777
v -0.599408 0.142138 0.241868
v -0.509887 0.094420 0.408500
v -0.509887 0.171488 0.393591
v -0.370454 0.105197 0.531329
v -0.370454 0.182265 0.516420
v -0.194759 0.105678 0.611435
v -0.194759 0.182746 0.596527
v -0.000000 0.110831 0.638073
v -0.000000 0.187899 0.623165
v 0.194759 0.105678 0.611435
v 0.194759 0.182746 0.596527
v 0.370454 0.105197 0.531329
v 0.370454 0.182265 0.516420
v 0.509887 0.094420 0.408500
v 0.509887 0.171488 0.393591
v 0.599408 0.065070 0.256777
v 0.599408 0.142138 0.241868
v 0.630254 0.032535 0.088591
v 0.630254 0.109603 0.073682
vt 0.935766 0.215057
vt 0.943222 0.180738
vt 0.959043 0.181674
vt 0.951284 0.220350
vt 0.940496 0.145676
vt 0.956466 0.142392
vt 0.917164 0.246995
vt 0.930952 0.256139
vt 0.926549 0.111310
vt 0.941077 0.104333
vt 0.886865 0.273205
vt 0.897515 0.285988
vt 0.900002 0.081233
vt 0.912295 0.070024
vt 0.687166 0.128094
vt 0.679705 0.162403
vt 0.663885 0.161461
vt 0.671649 0.122795
vt 0.682424 0.197460
vt 0.666452 0.200737
vt 0.705768 0.096166
vt 0.691981 0.087020
vt 0.696361 0.231826
vt 0.681827 0.238795
vt 0.736061 0.069967
vt 0.725410 0.057183
vt 0.722899 0.261908
vt 0.710598 0.273110
vt 0.830372 0.546611
vt 0.863986 0.546236
vt 0.861826 0.653936
vt 0.829123 0.653814
vt 0.897911 0.543081
vt 0.894329 0.653966
vt 0.864868 0.786236
vt 0.830988 0.786522
vt 0.796901 0.546318
vt 0.796279 0.653818
vt 0.898949 0.785706
vt 0.797272 0.786705
vt 0.763432 0.546058
vt 0.763372 0.653702
vt 0.763679 0.786863
vt 0.729897 0.545524
vt 0.730431 0.653459
vt 0.730206 0.787049
vt 0.696197 0.542001
vt 0.697479 0.653057
vt 0.696871 0.787319
vt 0.393160 0.554229
vt 0.426845 0.553264
vt 0.432224 0.660654
vt 0.399508 0.661872
vt 0.460377 0.552153
vt 0.465067 0.659395
vt 0.434443 0.792704
vt 0.400712 0.793536
vt 0.359060 0.552426
vt 0.366973 0.663084
vt 0.493839 0.551135
vt 0.497998 0.658043
vt 0.468036 0.791760
vt 0.366804 0.794151
vt 0.527262 0.549349
vt 0.530985 0.656825
vt 0.501509 0.790776
vt 0.560691 0.544597
vt 0.563985 0.655472
vt 0.534887 0.789809
vt 0.568151 0.788875
vt 0.719659 0.228610
vt 0.707908 0.197346
vt 0.811467 0.171587
vt 0.705694 0.164243
vt 0.741382 0.254656
vt 0.712424 0.131788
vt 0.770358 0.272860
vt 0.759841 0.283618
vt 0.728372 0.102481
vt 0.803909 0.281084
vt 0.802943 0.294424
vt 0.753419 0.079610
vt 0.838305 0.277684
vt 0.847254 0.289872
vt 0.784611 0.065488
vt 0.869505 0.263562
vt 0.775659 0.053303
vt 0.818999 0.062081
vt 0.894558 0.240685
vt 0.819958 0.048741
vt 0.852547 0.070296
vt 0.910507 0.211370
vt 0.863056 0.059533
vt 0.881525 0.088494
vt 0.917235 0.178908
vt 0.903255 0.114536
vt 0.915014 0.145800
vt 0.739964 0.912959
vt 0.724665 0.944676
vt 0.633542 0.882346
vt 0.700321 0.970015
vt 0.744720 0.877990
vt 0.669341 0.986472
vt 0.738497 0.843200
vt 0.634802 0.992418
vt 0.721972 0.811978
vt 0.600137 0.987264
vt 0.568792 0.971522
vt 0.664952 0.780019
vt 0.543881 0.946750
vt 0.632727 0.777742
vt 0.527870 0.915397
vt 0.600386 0.780639
vt 0.522328 0.880555
vt 0.527768 0.845647
vt 0.543594 0.814075
vt 0.672426 0.258114
vt 0.646273 0.212531
vt 0.637792 0.159736
vt 0.710833 0.291221
vt 0.653198 0.108414
vt 0.754885 0.311681
vt 0.752266 0.299172
vt 0.685419 0.066604
vt 0.801217 0.320711
vt 0.801835 0.311276
vt 0.728259 0.039307
vt 0.848240 0.317802
vt 0.852538 0.305741
vt 0.774659 0.025374
vt 0.770368 0.037436
vt 0.894662 0.303866
vt 0.821666 0.022452
vt 0.821056 0.031887
vt 0.937516 0.276554
vt 0.867994 0.031466
vt 0.870621 0.043975
vt 0.969739 0.234725
vt 0.912050 0.051909
vt 0.985135 0.183387
vt 0.950468 0.085005
vt 0.976638 0.130585
vt 0.932177 0.541879
vt 0.926544 0.653940
vt 0.966799 0.543337
vt 0.302762 0.665509
vt 0.933285 0.784724
vt 0.324717 0.552601
vt 0.334700 0.664297
vt 0.298212 0.793976
vt 0.332661 0.794385
vt 0.594376 0.541424
vt 0.596973 0.653972
vt 0.628292 0.540279
vt 0.630459 0.652935
vt 0.662287 0.540099
vt 0.664070 0.652627
vt 0.958385 0.653881
vt 0.967941 0.782969
vt 0.290156 0.555459
vn 0.731310 -0.669015 -0.132679
vn 0.660335 -0.643712 -0.386772
vn 0.451145 0.698217 -0.555843
vn 0.516904 0.779734 -0.353305
vn 0.520078 -0.597067 -0.610762
vn 0.338600 0.551966 -0.762026
vn 0.284693 -0.535399 -0.795172
vn 0.194798 0.395116 -0.897740
vn 0.000000 -0.490996 -0.871162
vn 0.000000 0.327813 -0.944743
vn -0.284693 -0.535399 -0.795171
vn -0.194799 0.395116 -0.897740
vn -0.520078 -0.597067 -0.610761
vn -0.338601 0.551966 -0.762026
vn -0.660335 -0.643712 -0.386772
vn -0.451144 0.698217 -0.555843
vn -0.731310 -0.669015 -0.132680
vn -0.516904 0.779734 -0.353305
vn -0.756660 -0.641909 0.124174
vn -0.532271 0.831165 -0.160785
vn -0.731310 -0.571270 0.372607
vn -0.516904 0.855242 0.037027
vn -0.660335 -0.453033 0.598932
vn -0.451145 0.855139 0.255354
vn -0.520078 -0.326219 0.789367
vn -0.338601 0.796332 0.501204
vn -0.284693 -0.200227 0.937475
vn -0.194798 0.701410 0.685623
vn 0.000000 -0.130688 0.991423
vn 0.000000 0.656492 0.754333
vn 0.284693 -0.200227 0.937475
vn 0.194798 0.701409 0.685623
vn 0.520078 -0.326219 0.789367
vn 0.338601 0.796331 0.501205
vn 0.660335 -0.453033 0.598932
vn 0.451145 0.855139 0.255354
vn 0.731310 -0.571270 0.372607
vn 0.516904 0.855242 0.037027
vn 0.756659 -0.641909 0.124175
vn 0.532271 0.831165 -0.160784
vn 0.890182 0.291324 -0.350295
vn 0.760793 0.190627 -0.620367
vn 0.808013 -0.111834 -0.578453
vn 0.951015 -0.058650 -0.303532
vn 0.550165 0.099973 -0.829050
vn 0.585811 -0.153872 -0.795707
vn 0.295373 0.034757 -0.954750
vn 0.308130 -0.180638 -0.934038
vn 0.000000 0.011725 -0.999931
vn 0.000000 -0.189879 -0.981808
vn -0.295373 0.034757 -0.954750
vn -0.308131 -0.180638 -0.934037
vn -0.550166 0.099973 -0.829049
vn -0.585812 -0.153872 -0.795706
vn -0.760793 0.190627 -0.620367
vn -0.808013 -0.111834 -0.578454
vn -0.890181 0.291324 -0.350296
vn -0.951014 -0.058651 -0.303533
vn -0.929679 0.361666 -0.069963
vn -1.000000 0.000064 -0.000012
vn -0.890181 0.400945 0.216380
vn -0.951014 0.058779 0.303508
vn -0.760793 0.408231 0.504521
vn -0.808013 0.111960 0.578429
vn -0.550166 0.401942 0.731956
vn -0.585811 0.153976 0.795686
vn -0.295373 0.388309 0.872909
vn -0.308130 0.180729 0.934020
vn 0.000000 0.383788 0.923421
vn 0.000000 0.189970 0.981790
vn 0.295373 0.388309 0.872909
vn 0.308130 0.180729 0.934020
vn 0.550166 0.401943 0.731956
vn 0.585811 0.153975 0.795686
vn 0.760793 0.408231 0.504520
vn 0.808013 0.111960 0.578429
vn 0.890181 0.400945 0.216380
vn 0.951014 0.058779 0.303508
vn 0.929679 0.361666 -0.069961
vn 1.000000 0.000064 -0.000011
vn 0.768520 0.200690 -0.607536
vn 0.903450 0.250985 -0.347542
vn 0.558362 0.160776 -0.813869
vn 0.293548 0.135149 -0.946343
vn -0.000000 0.126319 -0.991990
vn -0.293549 0.135149 -0.946342
vn -0.558363 0.160776 -0.813868
vn -0.768520 0.200690 -0.607537
vn -0.903450 0.250984 -0.347543
vn -0.949943 0.306736 -0.059336
vn -0.903450 0.362488 0.228870
vn -0.768520 0.412783 0.488863
vn -0.558362 0.452697 0.695196
vn -0.293549 0.478323 0.827669
vn 0.000000 0.487153 0.873317
vn 0.293549 0.478323 0.827669
vn 0.558363 0.452697 0.695195
vn 0.768520 0.412783 0.488863
vn 0.903450 0.362488 0.228870
vn 0.949943 0.306737 -0.059335
vn 0.148108 -0.980464 0.129440
vn 0.135601 -0.980524 0.142076
vn 0.000000 -0.981799 0.189924
vn 0.132583 -0.984835 0.111902
vn 0.061055 -0.995694 0.069751
vn -0.000000 -0.998529 0.054226
vn -0.061055 -0.995694 0.069751
vn -0.132583 -0.984835 0.111902
vn -0.148108 -0.980464 0.129440
vn -0.135601 -0.980524 0.142076
vn -0.138244 -0.972372 0.188101
vn -0.135601 -0.962772 0.233845
vn -0.148108 -0.958003 0.245548
vn -0.132583 -0.955519 0.263450
vn -0.061055 -0.949875 0.306610
vn 0.000000 -0.946715 0.322073
vn 0.061055 -0.949875 0.306610
vn 0.132583 -0.955519 0.263450
vn 0.148108 -0.958003 0.245548
vn 0.135601 -0.962772 0.233845
vn 0.138244 -0.972372 0.188101
vn 0.000000 0.981799 -0.189924
s 1
g textureEditorIsolateSelectSet pCylinder10
usemtl initialShadingGroup
f 83/19/1 84/23/2 85/24/3 86/20/4
f 84/23/2 87/27/5 88/28/6 85/24/3
f 87/27/5 89/78/7 90/123/8 88/28/6
f 89/78/7 91/81/9 92/126/10 90/123/8
f 91/81/9 93/84/11 94/129/12 92/126/10
f 93/84/11 95/11/13 96/12/14 94/129/12
f 95/11/13 97/7/15 98/8/16 96/12/14
f 97/7/15 99/1/17 100/4/18 98/8/16
f 99/1/17 101/2/19 102/3/20 100/4/18
f 101/2/19 103/5/21 104/6/22 102/3/20
f 103/5/21 105/9/23 106/10/24 104/6/22
f 105/9/23 107/13/25 108/14/26 106/10/24
f 107/13/25 109/93/27 110/137/28 108/14/26
f 109/93/27 111/90/29 112/134/30 110/137/28
f 111/90/29 113/87/31 114/131/32 112/134/30
f 113/87/31 115/25/33 116/26/34 114/131/32
f 115/25/33 117/21/35 118/22/36 116/26/34
f 117/21/35 119/15/37 120/18/38 118/22/36
f 119/15/37 121/16/39 122/17/40 120/18/38
f 121/16/39 83/19/1 86/20/4 122/17/40
g pCylinder10
f 21/29/41 22/30/42 42/31/43 41/32/44
f 22/30/42 23/33/45 43/34/46 42/31/43
f 23/33/45 24/143/47 44/144/48 43/34/46
f 24/143/47 25/145/49 45/158/50 44/144/48
f 25/160/49 26/148/51 46/149/52 45/146/50
f 26/148/51 27/58/53 47/59/54 46/149/52
f 27/58/53 28/50/55 48/53/56 47/59/54
f 28/50/55 29/51/57 49/52/58 48/53/56
f 29/51/57 30/54/59 50/55/60 49/52/58
f 30/54/59 31/60/61 51/61/62 50/55/60
f 31/60/61 32/64/63 52/65/64 51/61/62
f 32/64/63 33/67/65 53/68/66 52/65/64
f 33/67/65 34/152/67 54/153/68 53/68/66
f 34/152/67 35/154/69 55/155/70 54/153/68
f 35/154/69 36/156/71 56/157/72 55/155/70
f 36/156/71 37/47/73 57/48/74 56/157/72
f 37/47/73 38/44/75 58/45/76 57/48/74
f 38/44/75 39/41/77 59/42/78 58/45/76
f 39/41/77 40/37/79 60/38/80 59/42/78
f 40/37/79 21/29/41 41/32/44 60/38/80
f 41/32/44 42/31/43 62/35/81 61/36/82
f 42/31/43 43/34/46 63/39/83 62/35/81
f 43/34/46 44/144/48 64/147/84 63/39/83
f 44/144/48 45/158/50 65/159/85 64/147/84
f 45/146/50 46/149/52 66/151/86 65/150/85
f 46/149/52 47/59/54 67/63/87 66/151/86
f 47/59/54 48/53/56 68/57/88 67/63/87
f 48/53/56 49/52/58 69/56/89 68/57/88
f 49/52/58 50/55/60 70/62/90 69/56/89
f 50/55/60 51/61/62 71/66/91 70/62/90
f 51/61/62 52/65/64 72/69/92 71/66/91
f 52/65/64 53/68/66 73/70/93 72/69/92
f 53/68/66 54/153/68 74/113/94 73/70/93
f 54/153/68 55/155/70 75/111/95 74/113/94
f 55/155/70 56/157/72 76/109/96 75/111/95
f 56/157/72 57/48/74 77/49/97 76/109/96
f 57/48/74 58/45/76 78/46/98 77/49/97
f 58/45/76 59/42/78 79/43/99 78/46/98
f 59/42/78 60/38/80 80/40/100 79/43/99
f 60/38/80 41/32/44 61/36/82 80/40/100
g textureEditorIsolateSelectSet pCylinder10
f 2/71/101 1/72/102 81/73/103
f 3/75/104 2/71/101 81/73/103
f 4/77/105 3/75/104 81/73/103
f 5/80/106 4/77/105 81/73/103
f 6/83/107 5/80/106 81/73/103
f 7/86/108 6/83/107 81/73/103
f 8/89/109 7/86/108 81/73/103
f 9/92/110 8/89/109 81/73/103
f 10/95/111 9/92/110 81/73/103
f 11/97/112 10/95/111 81/73/103
f 12/96/113 11/97/112 81/73/103
f 13/94/114 12/96/113 81/73/103
f 14/91/115 13/94/114 81/73/103
f 15/88/116 14/91/115 81/73/103
f 16/85/117 15/88/116 81/73/103
f 17/82/118 16/85/117 81/73/103
f 18/79/119 17/82/118 81/73/103
f 19/76/120 18/79/119 81/73/103
f 20/74/121 19/76/120 81/73/103
f 1/72/102 20/74/121 81/73/103
g pCylinder10
f 61/98/82 62/99/81 82/100/122
f 62/99/81 63/101/83 82/100/122
f 63/101/83 64/103/84 82/100/122
f 64/103/84 65/105/85 82/100/122
f 65/105/85 66/107/86 82/100/122
f 66/107/86 67/108/87 82/100/122
f 67/108/87 68/110/88 82/100/122
f 68/110/88 69/112/89 82/100/122
f 69/112/89 70/114/90 82/100/122
f 70/114/90 71/115/91 82/100/122
f 71/115/91 72/116/92 82/100/122
f 72/116/92 73/70/93 82/100/122
f 73/70/93 74/113/94 82/100/122
f 74/113/94 75/111/95 82/100/122
f 75/111/95 76/109/96 82/100/122
f 76/109/96 77/49/97 82/100/122
f 77/49/97 78/106/98 82/100/122
f 78/106/98 79/104/99 82/100/122
f 79/104/99 80/102/100 82/100/122
f 80/102/100 61/98/82 82/100/122
g textureEditorIsolateSelectSet pCylinder10
f 1/72/102 2/71/101 84/23/2 83/19/1
f 22/117/42 21/118/41 86/20/4 85/24/3
f 2/71/101 3/75/104 87/27/5 84/23/2
f 23/120/45 22/117/42 85/24/3 88/28/6
f 3/75/104 4/77/105 89/78/7 87/27/5
f 24/122/47 23/120/45 88/28/6 90/123/8
f 4/77/105 5/80/106 91/81/9 89/78/7
f 25/125/49 24/122/47 90/123/8 92/126/10
f 5/80/106 6/83/107 93/84/11 91/81/9
f 26/128/51 25/125/49 92/126/10 94/129/12
f 6/83/107 7/86/108 95/11/13 93/84/11
f 27/132/53 26/128/51 94/129/12 96/12/14
f 7/86/108 8/89/109 97/7/15 95/11/13
f 28/135/55 27/132/53 96/12/14 98/8/16
f 8/89/109 9/92/110 99/1/17 97/7/15
f 29/138/57 28/135/55 98/8/16 100/4/18
f 9/92/110 10/95/111 101/2/19 99/1/17
f 30/140/59 29/138/57 100/4/18 102/3/20
f 10/95/111 11/97/112 103/5/21 101/2/19
f 31/142/61 30/140/59 102/3/20 104/6/22
f 11/97/112 12/96/113 105/9/23 103/5/21
f 32/141/63 31/142/61 104/6/22 106/10/24
f 12/96/113 13/94/114 107/13/25 105/9/23
f 33/139/65 32/141/63 106/10/24 108/14/26
f 13/94/114 14/91/115 109/93/27 107/13/25
f 34/136/67 33/139/65 108/14/26 110/137/28
f 14/91/115 15/88/116 111/90/29 109/93/27
f 35/133/69 34/136/67 110/137/28 112/134/30
f 15/88/116 16/85/117 113/87/31 111/90/29
f 36/130/71 35/133/69 112/134/30 114/131/32
f 16/85/117 17/82/118 115/25/33 113/87/31
f 37/127/73 36/130/71 114/131/32 116/26/34
f 17/82/118 18/79/119 117/21/35 115/25/33
f 38/124/75 37/127/73 116/26/34 118/22/36
f 18/79/119 19/76/120 119/15/37 117/21/35
f 39/121/77 38/124/75 118/22/36 120/18/38
f 19/76/120 20/74/121 121/16/39 119/15/37
f 40/119/79 39/121/77 120/18/38 122/17/40
f 20/74/121 1/72/102 83/19/1 121/16/39
f 21/118/41 40/119/79 122/17/40 86/20/4
