# This file uses centimeters as units for non-parametric coordinates.

mtllib Rock_3_LP_OBJ.mtl
g default
v -0.076241 -0.001175 0.328178
v 0.282611 0.014638 0.218035
v -0.156590 0.318497 -0.065637
v -0.057725 -0.087997 -0.251024
v -0.089365 0.196701 0.212424
v 0.165608 -0.131052 -0.165563
v 0.143913 0.382260 -0.177538
v 0.196611 0.018454 -0.260850
v 0.002567 -0.062583 0.338253
v -0.164328 -0.092664 -0.161514
v -0.192656 0.053029 -0.194223
v 0.260136 -0.043042 -0.178006
v 0.283169 0.162926 -0.157529
v 0.000912 -0.156933 0.152321
v -0.231726 0.052673 -0.030284
v 0.108415 0.367324 -0.225288
v -0.081479 0.067967 -0.284120
v -0.136687 0.316806 -0.168409
v -0.001760 -0.161617 -0.128936
v 0.270051 -0.061185 0.179877
v -0.176502 -0.089325 0.103425
v 0.292343 0.106539 0.150196
v 0.095790 0.314928 0.044917
v 0.114448 0.104101 0.327184
v -0.008364 0.409632 -0.106917
vt 0.326403 0.675672
vt 0.357916 0.604499
vt 0.416431 0.640346
vt 0.367759 0.716520
vt 0.448034 0.732160
vt 0.322908 0.759543
vt 0.367712 0.762026
vt 0.445578 0.765191
vt 0.372302 0.800418
vt 0.205239 0.725050
vt 0.326605 0.803953
vt 0.047714 0.800061
vt 0.096336 0.692342
vt 0.074696 0.778574
vt 0.024746 0.785733
vt 0.170492 0.693808
vt 0.105196 0.840571
vt 0.040936 0.673590
vt 0.179830 0.677033
vt 0.159739 0.761087
vt 0.002302 0.672778
vt 0.069591 0.643090
vt 0.438121 0.123567
vt 0.436077 0.043618
vt 0.486123 0.030485
vt 0.381603 0.112786
vt 0.417164 0.003559
vt 0.520497 0.135400
vt 0.385511 0.032274
vt 0.407405 0.187915
vt 0.437390 0.183653
vt 0.528723 0.159539
vt 0.251118 0.720449
vt 0.181616 0.841876
vt 0.242182 0.756345
vt 0.361942 0.880294
vt 0.466895 0.841776
vt 0.334361 0.902887
vt 0.307888 0.874036
vt 0.089957 0.894696
vt 0.123861 0.898208
vn -0.807185 -0.503088 0.308796
vn -0.692996 -0.006186 0.720915
vn -0.547870 0.579087 0.603736
vn 0.400958 -0.882185 -0.246946
vn 0.868943 -0.408070 -0.280030
vn 0.672903 -0.707331 0.216529
vn 0.921633 0.293328 -0.254071
vn 0.324361 -0.087504 -0.941878
vn 0.075602 0.378542 -0.922491
vn -0.554337 0.458620 -0.694535
vn -0.147058 0.974181 0.171305
vn -0.985187 0.071065 0.156065
vn -0.680088 -0.686391 -0.257579
vn -0.857278 0.042128 -0.513128
vn -0.184091 0.088406 -0.978926
vn 0.052403 -0.968330 0.244113
vn -0.094253 -0.986951 -0.130553
vn -0.149816 -0.514700 -0.844180
vn 0.795957 -0.275038 0.539265
vn 0.174297 -0.673533 0.718313
vn 0.778133 0.528443 0.339496
vn 0.660196 0.748496 0.062412
vn 0.279849 0.483713 0.829281
vn 0.313766 0.816427 0.484766
vn -0.776335 0.577838 0.251808
s 1
g Rock3
usemtl initialShadingGroup
f 21/1/1 1/2/2 5/3/3
f 6/21/4 12/18/5 20/15/6
f 13/13/7 8/22/8 16/19/9
f 18/33/10 25/10/11 16/19/9
f 5/3/3 15/4/12 21/1/1
f 10/6/13 11/7/14 17/9/15
f 8/22/8 13/13/7 12/18/5
f 14/23/16 19/24/17 6/25/4
f 4/27/18 6/25/4 19/24/17
f 8/36/8 12/38/5 4/11/18
f 17/9/15 4/11/18 10/6/13
f 4/11/18 17/9/15 8/36/8
f 10/29/13 4/27/18 19/24/17
f 14/23/16 2/32/19 9/31/20
f 14/23/16 20/28/6 2/32/19
f 2/12/19 13/13/7 22/14/21
f 13/13/7 7/16/22 22/14/21
f 24/17/23 22/14/21 23/20/24
f 23/20/24 5/34/3 24/17/23
f 10/6/13 15/4/12 11/7/14
f 25/10/11 7/16/22 16/19/9
f 25/10/11 5/34/3 23/20/24
f 13/13/7 2/12/19 20/15/6
f 15/4/12 3/5/25 11/7/14
f 24/17/23 2/12/19 22/14/21
f 2/12/19 24/17/23 9/40/20
f 9/40/20 24/17/23 1/41/2
f 1/41/2 24/17/23 5/34/3
f 18/8/10 16/37/9 17/9/15
f 3/5/25 18/8/10 11/7/14
f 1/30/2 14/23/16 9/31/20
f 1/30/2 21/26/1 14/23/16
f 13/13/7 20/15/6 12/18/5
f 14/23/16 6/25/4 20/28/6
f 6/39/4 4/11/18 12/38/5
f 15/4/12 10/6/13 21/1/1
f 3/5/25 15/4/12 5/3/3
f 17/9/15 16/37/9 8/36/8
f 17/9/15 11/7/14 18/8/10
f 3/35/25 25/10/11 18/33/10
f 16/19/9 7/16/22 13/13/7
f 21/26/1 19/24/17 14/23/16
f 19/24/17 21/26/1 10/29/13
f 22/14/21 7/16/22 23/20/24
f 23/20/24 7/16/22 25/10/11
f 25/10/11 3/35/25 5/34/3
