# This file uses centimeters as units for non-parametric coordinates.

mtllib fence.mtl
g default
v -5.683445 0.000000 -0.023056
v -5.618636 0.000000 -0.029069
v -5.714600 0.395088 -0.020165
v -5.587850 0.395088 -0.031926
v -5.717781 0.395088 -0.054442
v -5.591031 0.395088 -0.066203
v -5.686626 0.000000 -0.057332
v -5.621817 0.000000 -0.063346
v -5.713610 0.322251 -0.020257
v -5.716791 0.322251 -0.054533
v -5.611479 0.322251 -0.064306
v -5.608298 0.322251 -0.030029
v -5.883866 0.182139 0.028780
v -5.269922 0.171134 0.028780
v -5.883866 0.244196 0.028780
v -5.269922 0.255200 0.028780
v -5.883866 0.244196 0.011983
v -5.269922 0.255200 0.011983
v -5.883866 0.182139 0.011983
v -5.269922 0.171134 0.011983
v -5.396548 0.182292 -0.001477
v -5.396548 0.244043 -0.001477
v -5.396548 0.244043 -0.018274
v -5.396548 0.182292 -0.018274
v -5.757515 0.186392 -0.001477
v -5.757515 0.239943 -0.001477
v -5.757515 0.239943 -0.018274
v -5.757515 0.186392 -0.018274
v -5.504767 0.186077 -0.013289
v -5.649021 0.187718 -0.013300
v -5.504762 0.240258 -0.013288
v -5.649026 0.238617 -0.013300
v -5.504767 0.240258 -0.030086
v -5.649021 0.238617 -0.030097
v -5.504762 0.186077 -0.030085
v -5.649026 0.187718 -0.030097
v -5.562040 0.000000 -0.035038
v -5.473368 0.000000 -0.023319
v -5.557529 0.000000 -0.069165
v -5.468858 0.000000 -0.057446
v -5.561655 0.339567 -0.035959
v -5.557145 0.339567 -0.070086
v -5.467598 0.372757 -0.058252
v -5.472109 0.372757 -0.024124
v -5.393921 0.000000 -0.010095
v -5.319684 0.000000 0.006373
v -5.405608 0.452756 -0.015685
v -5.296408 0.452756 0.008539
v -5.398153 0.452756 -0.049293
v -5.288952 0.452756 -0.025068
v -5.386466 0.000000 -0.043703
v -5.312229 0.000000 -0.027234
v -5.404637 0.339567 -0.015470
v -5.397182 0.339567 -0.049077
v -5.309001 0.339567 -0.029516
v -5.316456 0.339567 0.004092
v -5.788734 0.000000 -0.041951
v -5.862483 0.000000 -0.023418
v -5.763701 0.506310 -0.048242
v -5.872183 0.506310 -0.020980
v -5.755311 0.506310 -0.014855
v -5.863793 0.506310 0.012406
v -5.780344 0.000000 -0.008565
v -5.854093 0.000000 0.009968
v -5.772600 0.382865 -0.046005
v -5.764210 0.382865 -0.012619
v -5.831471 0.382865 0.004283
v -5.839861 0.382865 -0.029103
v -5.771646 0.236343 -0.046245
v -5.763256 0.236343 -0.012859
v -5.831714 0.244306 0.004345
v -5.840104 0.244306 -0.029041
vt 0.941363 0.867735
vt 0.959335 0.864369
vt 0.950888 0.978501
vt 0.986227 0.974623
vt 0.941063 0.979359
vt 0.905023 0.980497
vt 0.931622 0.868603
vt 0.913229 0.868603
vt 0.931621 0.858881
vt 0.913232 0.858880
vt 0.968783 0.862237
vt 0.995420 0.971616
vt 0.949417 0.958285
vt 0.939800 0.959068
vt 0.910025 0.959653
vt 0.988514 0.951634
vt 0.979091 0.954176
vt 0.810115 0.812025
vt 0.805569 0.848350
vt 0.790521 0.847202
vt 0.792654 0.810400
vt 0.785832 0.847762
vt 0.787991 0.811213
vt 0.770745 0.847306
vt 0.770406 0.810708
vt 0.766099 0.846458
vt 0.765781 0.809669
vt 0.810199 0.986121
vt 0.810568 0.990847
vt 0.786890 0.992640
vt 0.786520 0.987909
vt 0.810558 0.807303
vt 0.793099 0.805677
vt 0.786763 0.950772
vt 0.804241 0.949905
vt 0.782093 0.949891
vt 0.781938 0.986804
vt 0.764678 0.948578
vt 0.758293 0.984785
vt 0.759949 0.948739
vt 0.753559 0.985053
vt 0.762849 0.918100
vt 0.765272 0.877396
vt 0.770001 0.877844
vt 0.767582 0.918236
vt 0.803469 0.878995
vt 0.802786 0.919589
vt 0.787582 0.919507
vt 0.789070 0.878397
vt 0.782858 0.919113
vt 0.784337 0.878446
vt 0.933524 0.738836
vt 0.958775 0.738857
vt 0.959011 0.844094
vt 0.933518 0.834703
vt 0.994180 0.834592
vt 0.955651 0.853214
vt 0.968494 0.738860
vt 0.933532 0.729117
vt 0.968729 0.844098
vt 0.923805 0.738863
vt 0.930159 0.843822
vt 0.855555 0.853496
vt 0.876891 0.852087
vt 0.883900 0.948252
vt 0.858261 0.949228
vt 0.858397 0.981004
vt 0.889533 0.980682
vt 0.817176 0.981242
vt 0.848729 0.981186
vt 0.848533 0.949462
vt 0.823024 0.949369
vt 0.824362 0.853735
vt 0.845840 0.853846
vt 0.824408 0.844017
vt 0.845884 0.844124
vt 0.886559 0.851428
vt 0.893591 0.947216
vt 0.899100 0.979136
vt 0.763953 0.761500
vt 0.766153 0.740200
vt 0.834581 0.753810
vt 0.829644 0.773109
vt 0.904371 0.788921
vt 0.910384 0.758776
vt 0.893593 0.828443
vt 0.902319 0.798179
vt 0.827881 0.782541
vt 0.825631 0.802322
vt 0.757021 0.791934
vt 0.762247 0.771106
vt 0.747588 0.789567
vt 0.752816 0.768737
vt 0.768025 0.730677
vt 0.836264 0.744281
vt 0.868339 0.790248
vt 0.870393 0.780476
vt 0.863388 0.809442
vt 0.873722 0.760652
vt 0.874314 0.750848
vt 0.910125 0.749107
vt 0.911662 0.800935
vt 0.902898 0.831205
vt 0.848733 0.990911
vt 0.817176 0.990958
vt 0.941401 0.989066
vt 0.905376 0.990222
vt 0.923800 0.834730
vt 0.993745 0.738726
vt 0.958783 0.729138
vn 0.092396 0.000000 0.995722
vn 0.092396 0.000000 0.995722
vn 0.092396 0.000000 0.995722
vn 0.092396 0.000000 0.995722
vn 0.000000 1.000000 -0.000000
vn 0.000000 1.000000 -0.000000
vn 0.000000 1.000000 -0.000000
vn 0.000000 1.000000 -0.000000
vn -0.092395 0.000000 -0.995722
vn -0.092395 0.000000 -0.995722
vn -0.092395 -0.000000 -0.995722
vn -0.092395 -0.000000 -0.995722
vn 0.000000 -1.000000 0.000000
vn 0.000000 -1.000000 0.000000
vn 0.000000 -1.000000 0.000000
vn 0.000000 -1.000000 0.000000
vn 0.995206 -0.032202 -0.092344
vn 0.995206 -0.032202 -0.092344
vn 0.992688 -0.078018 -0.092111
vn 0.992688 -0.078018 -0.092111
vn -0.991351 -0.093595 0.092000
vn -0.991351 -0.093595 0.092000
vn -0.992614 -0.078947 0.092117
vn -0.992614 -0.078947 0.092117
vn -0.995629 -0.013657 0.092397
vn -0.995629 -0.013657 0.092397
vn -0.092395 0.000001 -0.995722
vn -0.092395 0.000001 -0.995722
vn 0.958360 -0.271361 -0.088932
vn 0.958360 -0.271361 -0.088932
vn 0.092396 0.000000 0.995722
vn 0.092396 0.000000 0.995722
vn 0.232885 0.000000 0.972504
vn 0.180363 0.000001 0.983600
vn 0.180363 0.000001 0.983600
vn 0.232885 0.000000 0.972504
vn 0.033640 0.999434 0.000000
vn 0.024859 0.999691 -0.000001
vn 0.022526 0.999746 -0.000001
vn 0.033640 0.999434 0.000000
vn -0.232885 0.000000 -0.972504
vn -0.180363 0.000000 -0.983600
vn -0.180363 0.000000 -0.983600
vn -0.232885 0.000000 -0.972504
vn 0.033640 -0.999434 0.000000
vn 0.022526 -0.999746 0.000000
vn 0.024859 -0.999691 0.000000
vn 0.033640 -0.999434 0.000000
vn 1.000000 0.000000 0.000000
vn 1.000000 0.000000 0.000000
vn 1.000000 0.000000 0.000000
vn 1.000000 0.000000 0.000000
vn -1.000000 0.000000 0.000000
vn -1.000000 0.000000 0.000000
vn -1.000000 0.000000 0.000000
vn -1.000000 0.000000 0.000000
vn -0.185495 0.000000 0.982645
vn -0.185495 0.000000 0.982645
vn -0.232407 0.000000 0.972619
vn -0.232407 0.000000 0.972619
vn -0.060493 0.998169 0.000001
vn -0.066226 0.997805 0.000000
vn -0.087772 0.996141 0.000000
vn -0.087772 0.996141 0.000000
vn 0.185495 0.000000 -0.982645
vn 0.185495 0.000000 -0.982645
vn 0.232407 0.000000 -0.972619
vn 0.232407 0.000000 -0.972619
vn -0.066226 -0.997805 0.000000
vn -0.060493 -0.998169 0.000000
vn -0.087772 -0.996141 0.000000
vn -0.087772 -0.996141 0.000000
vn -0.021873 -0.999761 0.000005
vn -0.000861 -1.000000 0.000005
vn -0.001655 -0.999999 0.000005
vn -0.021077 -0.999778 0.000005
vn 0.046529 -0.000005 0.998917
vn -0.050191 -0.000005 0.998740
vn -0.050198 -0.000005 0.998739
vn 0.046535 -0.000005 0.998917
vn -0.000857 1.000000 -0.000006
vn -0.021877 0.999761 -0.000004
vn -0.021072 0.999778 -0.000005
vn -0.001660 0.999999 -0.000006
vn -0.046529 -0.000006 -0.998917
vn 0.050191 -0.000005 -0.998740
vn 0.050198 -0.000005 -0.998739
vn -0.046535 -0.000006 -0.998917
vn -0.131518 0.002707 0.991310
vn -0.131518 0.002707 0.991310
vn -0.131518 0.002707 0.991310
vn -0.131518 0.002707 0.991310
vn 0.131518 -0.002707 -0.991310
vn 0.131518 -0.002707 -0.991310
vn 0.131518 -0.002707 -0.991310
vn 0.131518 -0.002707 -0.991310
vn 0.000000 -1.000000 0.000000
vn 0.000000 -1.000000 0.000000
vn 0.000000 -1.000000 0.000000
vn 0.000000 -1.000000 0.000000
vn 0.991375 -0.003067 0.131017
vn 0.991375 -0.003067 0.131017
vn 0.991375 -0.003067 0.131017
vn 0.991375 -0.003067 0.131017
vn -0.991379 0.000769 -0.131024
vn -0.991379 0.000769 -0.131024
vn -0.991379 0.000769 -0.131024
vn -0.991379 0.000769 -0.131024
vn -0.341928 0.938639 -0.045191
vn -0.341928 0.938639 -0.045191
vn -0.341928 0.938639 -0.045191
vn -0.341928 0.938639 -0.045191
vn -0.216564 0.008617 0.976231
vn -0.216564 0.008617 0.976231
vn -0.216568 0.005928 0.976250
vn -0.216568 0.006084 0.976249
vn 0.000000 1.000000 -0.000000
vn 0.000000 1.000000 -0.000000
vn 0.000000 1.000000 -0.000000
vn 0.000000 1.000000 -0.000000
vn 0.216568 -0.006084 -0.976249
vn 0.216568 -0.005928 -0.976250
vn 0.216564 -0.008617 -0.976231
vn 0.216564 -0.008617 -0.976231
vn 0.000000 -1.000000 0.000000
vn 0.000000 -1.000000 0.000000
vn 0.000000 -1.000000 0.000000
vn 0.000000 -1.000000 0.000000
vn 0.976237 -0.007824 0.216566
vn 0.976237 -0.007824 0.216566
vn 0.974979 -0.051338 0.216287
vn 0.974997 -0.050982 0.216291
vn -0.975695 -0.034216 -0.216446
vn -0.975695 -0.034216 -0.216446
vn -0.975887 -0.027889 -0.216489
vn -0.975888 -0.027836 -0.216489
vn -0.976229 -0.008784 -0.216565
vn -0.976229 -0.008784 -0.216565
vn 0.216571 0.000001 -0.976267
vn 0.216571 0.000001 -0.976267
vn 0.960584 -0.178520 0.213094
vn 0.960584 -0.178520 0.213094
vn -0.216571 0.000000 0.976267
vn -0.216571 0.000000 0.976267
vn -0.243722 -0.000001 -0.969845
vn -0.243722 -0.000001 -0.969845
vn -0.243722 -0.000000 -0.969845
vn -0.243722 -0.000000 -0.969845
vn 0.000000 1.000000 -0.000000
vn 0.000000 1.000000 -0.000000
vn 0.000000 1.000000 -0.000000
vn 0.000000 1.000000 -0.000000
vn 0.243721 -0.000000 0.969845
vn 0.243721 -0.000000 0.969845
vn 0.243722 0.000000 0.969845
vn 0.243722 0.000000 0.969845
vn 0.000000 -1.000000 0.000000
vn 0.000000 -1.000000 0.000000
vn 0.000000 -1.000000 0.000000
vn 0.000000 -1.000000 0.000000
vn -0.965548 0.094031 0.242643
vn -0.965548 0.094031 0.242643
vn -0.968050 0.060811 0.243272
vn -0.968050 0.060811 0.243272
vn 0.967161 -0.074349 -0.243048
vn 0.967161 -0.074349 -0.243048
vn 0.968931 -0.043410 -0.243493
vn 0.968931 -0.043410 -0.243493
vn 0.969400 -0.030325 -0.243607
vn 0.969400 -0.030325 -0.243607
vn 0.967179 -0.074124 -0.243045
vn 0.967179 -0.074124 -0.243045
vn 0.243721 -0.000001 0.969846
vn 0.243721 -0.000001 0.969845
vn 0.243721 -0.000001 0.969845
vn 0.243721 -0.000001 0.969845
vn -0.962207 -0.125252 0.241803
vn -0.962207 -0.125252 0.241803
vn -0.936321 -0.260650 0.235298
vn -0.936321 -0.260650 0.235298
vn -0.243721 0.000000 -0.969846
vn -0.243721 0.000000 -0.969846
vn -0.243720 0.000000 -0.969846
vn -0.243720 0.000000 -0.969846
s 1
g Fence
usemtl lambert4SG
f 1/1/1 2/2/2 12/17/3 9/13/4
s off
f 3/106/5 4/107/6 6/6/7 5/5/8
s 2
f 10/14/9 11/15/10 8/8/11 7/7/12
s off
f 7/7/13 8/8/14 2/10/15 1/9/16
s 3
f 2/2/17 8/11/18 11/16/19 12/17/20
s 4
f 7/7/21 1/1/22 9/13/23 10/14/24
f 10/14/24 9/13/23 3/3/25 5/5/26
s 2
f 5/5/27 6/6/28 11/15/10 10/14/9
s 3
f 12/17/20 11/16/19 6/12/29 4/4/30
s 1
f 9/13/4 12/17/3 4/4/31 3/3/32
s 5
f 13/18/33 25/19/34 26/20/35 15/21/36
s 6
f 15/21/37 26/20/38 27/22/39 17/23/40
s 7
f 17/23/41 27/22/42 28/24/43 19/25/44
s 8
f 19/25/45 28/24/46 25/26/47 13/27/48
s off
f 14/28/49 20/29/50 18/30/51 16/31/52
f 19/32/53 13/18/54 15/21/55 17/33/56
s 5
f 22/34/57 21/35/58 14/28/59 16/31/60
s 6
f 23/36/61 22/34/62 16/31/63 18/37/64
s 7
f 24/38/65 23/36/66 18/37/67 20/39/68
s 8
f 21/40/69 24/38/70 20/39/71 14/41/72
f 29/42/73 30/43/74 36/44/75 35/45/76
s 5
f 30/46/77 29/47/78 31/48/79 32/49/80
s 6
f 32/49/81 31/48/82 33/50/83 34/51/84
s 7
f 34/51/85 33/50/86 35/45/87 36/44/88
s 5
f 31/48/79 29/47/78 21/35/58 22/34/57
s 6
f 33/50/83 31/48/82 22/34/62 23/36/61
s 7
f 35/45/87 33/50/86 23/36/66 24/38/65
s 8
f 29/42/73 35/45/76 24/38/70 21/40/69
s 5
f 26/20/35 25/19/34 30/46/77 32/49/80
s 6
f 27/22/39 26/20/38 32/49/81 34/51/84
s 7
f 28/24/43 27/22/42 34/51/85 36/44/88
s 8
f 25/26/47 28/24/46 36/44/75 30/43/74
s off
f 37/52/89 38/53/90 44/54/91 41/55/92
f 42/56/93 43/60/94 40/58/95 39/109/96
f 39/59/97 40/110/98 38/53/99 37/52/100
f 38/53/101 40/58/102 43/60/103 44/54/104
f 39/61/105 37/52/106 41/55/107 42/108/108
f 42/62/109 41/55/110 44/54/111 43/57/112
s 13
f 45/63/113 46/64/114 56/65/115 53/66/116
s off
f 47/104/117 48/105/118 50/69/119 49/70/120
s 14
f 54/71/121 55/72/122 52/73/123 51/74/124
s off
f 51/74/125 52/73/126 46/75/127 45/76/128
s 15
f 46/64/129 52/77/130 55/78/131 56/65/132
s 16
f 51/74/133 45/63/134 53/66/135 54/71/136
f 54/71/136 53/66/135 47/67/137 49/70/138
s 14
f 49/70/139 50/69/140 55/72/122 54/71/121
s 15
f 56/65/132 55/78/131 50/79/141 48/68/142
s 13
f 53/66/116 56/65/115 48/68/143 47/67/144
s 17
f 57/80/145 58/81/146 72/82/147 69/83/148
s off
f 59/102/149 60/103/150 62/86/151 61/87/152
s 18
f 70/88/153 71/89/154 64/90/155 63/91/156
s off
f 63/91/157 64/90/158 58/92/159 57/93/160
s 19
f 58/81/161 64/94/162 71/95/163 72/82/164
s 20
f 63/91/165 57/80/166 69/83/167 70/88/168
f 66/96/169 65/97/170 59/84/171 61/87/172
s 18
f 61/87/173 62/86/174 67/98/175 66/96/176
s 19
f 68/99/177 67/100/178 62/101/179 60/85/180
s 17
f 65/97/181 68/99/182 60/85/183 59/84/184
s 20
f 70/88/168 69/83/167 65/97/170 66/96/169
s 18
f 66/96/176 67/98/175 71/89/154 70/88/153
s 19
f 72/82/164 71/95/163 67/100/178 68/99/177
s 17
f 69/83/148 72/82/147 68/99/182 65/97/181
