# This file uses centimeters as units for non-parametric coordinates.

mtllib PostBox.mtl
g default
v -4.895158 0.369618 -0.348825
v -4.895158 0.369618 -0.335572
v -4.895158 0.306789 -0.344155
v -4.895158 0.306789 -0.335572
v -4.895158 0.350769 -0.348825
v -4.895158 0.350769 -0.335572
v -4.895158 0.346371 -0.344155
v -4.895158 0.346371 -0.335572
v -4.893178 0.346371 -0.344155
v -4.893178 0.346371 -0.335572
v -4.893178 0.306789 -0.335572
v -4.893178 0.306789 -0.344155
v -4.893178 0.369618 -0.348825
v -4.893178 0.369618 -0.335572
v -4.893178 0.350769 -0.335572
v -4.893178 0.350769 -0.348825
v -5.004761 0.243736 -0.191261
v -4.895833 0.243736 -0.191261
v -5.004761 0.243736 -0.364505
v -4.895833 0.243736 -0.364505
v -4.993596 0.339482 -0.191261
v -5.004761 0.311253 -0.191261
v -4.966640 0.351175 -0.191261
v -5.004761 0.311253 -0.364505
v -4.993596 0.339482 -0.364505
v -4.966640 0.351175 -0.364505
v -4.906998 0.339482 -0.191261
v -4.933954 0.351175 -0.191261
v -4.895833 0.311253 -0.191261
v -4.895833 0.311253 -0.364505
v -4.933954 0.351175 -0.364505
v -4.906998 0.339482 -0.364505
v -4.964574 0.000000 -0.263606
v -4.936020 0.000000 -0.263606
v -4.964574 0.245624 -0.263606
v -4.936020 0.245624 -0.263606
v -4.964574 0.245624 -0.292160
v -4.936020 0.245624 -0.292160
v -4.964574 0.000000 -0.292160
v -4.936020 0.000000 -0.292160
vt 0.926173 0.512200
vt 0.933015 0.512466
vt 0.933405 0.543442
vt 0.926664 0.543569
vt 0.923160 0.494020
vt 0.933752 0.494022
vt 0.933286 0.509078
vt 0.923502 0.508248
vt 0.941377 0.512533
vt 0.941675 0.543293
vt 0.934956 0.543415
vt 0.934591 0.512486
vt 0.945638 0.494381
vt 0.945160 0.509198
vt 0.934811 0.509077
vt 0.935286 0.494082
vt 0.933441 0.544993
vt 0.925114 0.543623
vt 0.924634 0.512478
vt 0.923156 0.492468
vt 0.922034 0.508572
vt 0.717068 0.544236
vt 0.717203 0.553462
vt 0.668306 0.554178
vt 0.668171 0.544952
vt 0.636901 0.509485
vt 0.588004 0.510201
vt 0.557260 0.510651
vt 0.636473 0.478727
vt 0.716541 0.508319
vt 0.716820 0.527375
vt 0.667924 0.528091
vt 0.667645 0.509035
vt 0.588283 0.529257
vt 0.637179 0.528541
vt 0.588408 0.537825
vt 0.640448 0.536463
vt 0.585248 0.537271
vt 0.560807 0.537628
vt 0.664889 0.536105
vt 0.716946 0.535944
vt 0.557538 0.529707
vt 0.736242 0.567501
vt 0.736241 0.498157
vt 0.744302 0.498157
vt 0.744303 0.567501
vt 0.760425 0.498156
vt 0.760426 0.567501
vt 0.752365 0.567501
vt 0.752364 0.498157
vt 0.728180 0.567501
vt 0.728179 0.498157
vt 0.933741 0.492467
vt 0.921586 0.494113
vt 0.926702 0.545123
vt 0.648104 0.539652
vt 0.657329 0.539516
vt 0.668427 0.562471
vt 0.568463 0.540817
vt 0.577688 0.540682
vt 0.717324 0.561755
vt 0.587579 0.479371
vt 0.668049 0.536659
vt 0.637305 0.537109
vn 1.000000 0.000007 0.000000
vn 1.000000 0.000005 0.000000
vn 1.000000 0.000000 0.000000
vn 1.000000 0.000000 0.000000
vn 1.000000 0.000000 0.000000
vn 1.000000 0.000000 0.000000
vn 1.000000 0.000006 0.000000
vn 1.000000 0.000003 0.000000
vn -1.000000 0.000000 0.000000
vn -1.000000 0.000000 0.000000
vn -1.000000 0.000000 0.000000
vn -1.000000 0.000000 0.000000
vn -1.000000 0.000000 0.000000
vn -1.000000 0.000000 0.000000
vn -1.000000 0.000000 0.000000
vn -1.000000 0.000000 0.000000
vn 0.000000 0.000000 1.000000
vn 0.000000 0.000000 1.000000
vn 0.000000 0.000000 1.000000
vn 0.000000 0.000000 1.000000
vn 0.000000 -1.000000 0.000000
vn 0.000000 -1.000000 0.000000
vn 0.000000 -1.000000 0.000000
vn 0.000000 -1.000000 0.000000
vn 0.000000 0.000000 -1.000000
vn 0.000000 0.000000 -1.000000
vn 0.000000 0.000000 -1.000000
vn 0.000000 0.000000 -1.000000
vn 0.000000 1.000000 0.000000
vn 0.000000 1.000000 0.000000
vn 0.000000 1.000000 0.000000
vn 0.000000 1.000000 0.000000
vn 0.000000 0.000000 1.000000
vn 0.000000 0.000000 1.000000
vn 0.000000 0.000000 1.000000
vn 0.000000 0.000000 1.000000
vn 0.000000 0.000000 -1.000000
vn 0.000000 0.000000 -1.000000
vn 0.000000 0.000000 -1.000000
vn 0.000000 0.000000 -1.000000
vn 0.000000 -0.727992 -0.685585
vn 0.000000 -0.727992 -0.685585
vn 0.000000 -0.727992 -0.685585
vn 0.000000 -0.727992 -0.685585
vn 0.192393 0.981318 0.000000
vn -0.192395 0.981318 0.000000
vn -0.192395 0.981318 0.000000
vn 0.192393 0.981318 0.000000
vn 0.000000 -1.000000 0.000000
vn 0.000000 -1.000000 0.000000
vn 0.000000 -1.000000 0.000000
vn 0.000000 -1.000000 0.000000
vn 1.000000 0.000000 0.000000
vn 0.993270 0.115826 0.000000
vn 0.993270 0.115826 0.000000
vn 1.000000 0.000000 0.000000
vn -0.993269 0.115833 0.000000
vn -1.000000 0.000000 0.000000
vn -1.000000 0.000000 0.000000
vn -0.993269 0.115833 0.000000
vn -0.929902 0.367808 0.000000
vn -0.929902 0.367808 0.000000
vn -0.397965 0.917400 0.000000
vn -0.397965 0.917400 0.000000
vn 0.397957 0.917404 0.000000
vn 0.397957 0.917404 0.000000
vn 0.929910 0.367788 0.000000
vn 0.929910 0.367788 0.000000
vn 0.000000 0.000000 1.000000
vn 0.000000 0.000000 1.000000
vn 0.000000 0.000000 1.000000
vn 0.000000 0.000000 1.000000
vn 0.000000 0.000000 -1.000000
vn 0.000000 0.000000 -1.000000
vn 0.000000 0.000000 -1.000000
vn 0.000000 0.000000 -1.000000
vn 0.000000 0.000000 -1.000000
vn 0.000000 0.000000 -1.000000
vn 0.000000 0.000000 -1.000000
vn 0.000000 0.000000 -1.000000
vn 0.000000 0.000000 1.000000
vn 0.000000 0.000000 1.000000
vn 0.000000 0.000000 1.000000
vn 0.000000 0.000000 1.000000
vn 0.000000 0.000000 1.000000
vn 0.000000 0.000000 1.000000
vn 0.000000 0.000000 1.000000
vn 0.000000 0.000000 1.000000
vn 0.000000 0.000000 -1.000000
vn 0.000000 0.000000 -1.000000
vn 0.000000 0.000000 -1.000000
vn 0.000000 0.000000 -1.000000
vn 1.000000 0.000000 0.000000
vn 1.000000 0.000000 0.000000
vn 1.000000 0.000000 0.000000
vn 1.000000 0.000000 0.000000
vn -1.000000 0.000000 0.000000
vn -1.000000 0.000000 0.000000
vn -1.000000 0.000000 0.000000
vn -1.000000 0.000000 0.000000
s 1
g PostBox
usemtl lambert4SG
f 9/1/1 10/2/2 11/3/3 12/4/4
f 13/5/5 14/6/6 15/7/7 16/8/8
f 16/8/8 15/7/7 10/2/2 9/1/1
s 2
f 7/9/9 3/10/10 4/11/11 8/12/12
f 1/13/13 5/14/14 6/15/15 2/16/16
f 5/14/14 7/9/9 8/12/12 6/15/15
s 3
f 8/12/17 4/11/18 11/3/19 10/2/20
s off
f 4/17/21 3/55/22 12/4/23 11/3/24
f 3/18/25 7/19/26 9/1/27 12/4/28
f 1/20/29 2/53/30 14/6/31 13/5/32
s 3
f 2/16/33 6/15/34 15/7/35 14/6/36
s off
f 5/21/37 1/54/38 13/5/39 16/8/40
s 3
f 6/15/34 8/12/17 10/2/20 15/7/35
s off
f 7/19/41 5/21/42 16/8/43 9/1/44
s 4
f 31/22/45 26/23/46 23/24/47 28/25/48
s off
f 17/26/49 19/27/50 20/62/51 18/29/52
s 5
f 20/30/53 30/31/54 29/32/55 18/33/56
s 6
f 24/34/57 19/27/58 17/26/59 22/35/60
f 25/36/61 24/34/57 22/35/60 21/64/62
s 4
f 26/23/46 25/61/63 21/58/64 23/24/47
f 32/41/65 31/22/45 28/25/48 27/63/66
s 5
f 30/31/54 32/41/67 27/63/68 29/32/55
s 7
f 22/35/69 17/26/70 18/33/71 29/32/72
s 8
f 24/34/73 25/38/74 32/39/75 30/42/76
f 19/27/77 24/34/73 30/42/76 20/28/78
f 25/38/74 26/60/79 31/59/80 32/39/75
s 7
f 23/56/81 21/37/82 27/40/83 28/57/84
f 21/37/82 22/35/69 29/32/72 27/40/83
s off
f 35/43/85 33/44/86 34/45/87 36/46/88
f 39/47/89 37/48/90 38/49/91 40/50/92
f 36/46/93 34/45/94 40/50/95 38/49/96
f 33/44/97 35/43/98 37/51/99 39/52/100
